<svg width="263" height="214" viewBox="0 0 263 214" fill="none" xmlns="http://www.w3.org/2000/svg">
<path opacity="0.6" d="M54.1672 168C55.5405 168 56.6672 168.433 57.5472 169.3C58.4272 170.153 58.8672 171.26 58.8672 172.62C58.8672 173.98 58.4272 175.093 57.5472 175.96C56.6672 176.813 55.5405 177.24 54.1672 177.24C52.7939 177.24 51.6672 176.813 50.7872 175.96C49.9072 175.093 49.4672 173.98 49.4672 172.62C49.4672 171.567 49.7539 170.633 50.3272 169.82L54.9072 163H56.4872L53.0472 168.12C53.4072 168.04 53.7805 168 54.1672 168ZM51.7672 174.98C52.3805 175.58 53.1805 175.88 54.1672 175.88C55.1539 175.88 55.9472 175.58 56.5472 174.98C57.1605 174.38 57.4672 173.593 57.4672 172.62C57.4672 171.647 57.1605 170.86 56.5472 170.26C55.9472 169.66 55.1539 169.36 54.1672 169.36C53.1805 169.36 52.3805 169.66 51.7672 170.26C51.1672 170.86 50.8672 171.647 50.8672 172.62C50.8672 173.593 51.1672 174.38 51.7672 174.98ZM76.5327 166.76C77.6527 166.76 78.5527 167.12 79.2327 167.84C79.926 168.56 80.2727 169.533 80.2727 170.76V177H78.9527V170.76C78.9527 169.893 78.726 169.227 78.2727 168.76C77.8327 168.28 77.246 168.04 76.5127 168.04C75.686 168.04 75.0127 168.32 74.4927 168.88C73.986 169.427 73.7327 170.287 73.7327 171.46V177H72.4127V170.76C72.4127 169.88 72.1993 169.207 71.7727 168.74C71.3593 168.273 70.7927 168.04 70.0727 168.04C69.2727 168.04 68.5927 168.32 68.0327 168.88C67.4727 169.44 67.1927 170.3 67.1927 171.46V177H65.8727V167H67.1927V168.46C67.9127 167.327 68.9327 166.76 70.2527 166.76C71.6927 166.76 72.706 167.367 73.2927 168.58C74.0127 167.367 75.0927 166.76 76.5327 166.76ZM91.2058 175.74C90.1924 176.74 88.9524 177.24 87.4858 177.24C86.0191 177.24 84.7724 176.74 83.7458 175.74C82.7324 174.727 82.2258 173.48 82.2258 172C82.2258 170.52 82.7324 169.28 83.7458 168.28C84.7724 167.267 86.0191 166.76 87.4858 166.76C88.9524 166.76 90.1924 167.267 91.2058 168.28C92.2324 169.28 92.7458 170.52 92.7458 172C92.7458 173.48 92.2324 174.727 91.2058 175.74ZM84.6858 174.82C85.4458 175.58 86.3791 175.96 87.4858 175.96C88.5924 175.96 89.5258 175.58 90.2858 174.82C91.0458 174.047 91.4258 173.107 91.4258 172C91.4258 170.893 91.0458 169.96 90.2858 169.2C89.5258 168.427 88.5924 168.04 87.4858 168.04C86.3791 168.04 85.4458 168.427 84.6858 169.2C83.9258 169.96 83.5458 170.893 83.5458 172C83.5458 173.107 83.9258 174.047 84.6858 174.82ZM99.6347 166.76C100.848 166.76 101.801 167.133 102.495 167.88C103.201 168.613 103.555 169.607 103.555 170.86V177H102.235V170.86C102.235 169.967 101.995 169.273 101.515 168.78C101.048 168.287 100.381 168.04 99.5147 168.04C98.5547 168.04 97.7747 168.347 97.1747 168.96C96.5747 169.56 96.2747 170.493 96.2747 171.76V177H94.9547V167H96.2747V168.56C97.0214 167.36 98.1414 166.76 99.6347 166.76ZM111.407 168.28H108.527V174.34C108.527 174.887 108.634 175.28 108.847 175.52C109.06 175.747 109.38 175.867 109.807 175.88C110.234 175.88 110.767 175.867 111.407 175.84V177C110.007 177.213 108.954 177.113 108.247 176.7C107.554 176.287 107.207 175.5 107.207 174.34V168.28H105.107V167H107.207V164.6L108.527 164.2V167H111.407V168.28ZM118.287 166.76C119.5 166.76 120.454 167.133 121.147 167.88C121.854 168.613 122.207 169.607 122.207 170.86V177H120.887V170.86C120.887 169.967 120.647 169.273 120.167 168.78C119.7 168.287 119.034 168.04 118.167 168.04C117.207 168.04 116.427 168.347 115.827 168.96C115.227 169.56 114.927 170.493 114.927 171.76V177H113.607V163H114.927V168.56C115.674 167.36 116.794 166.76 118.287 166.76ZM125.799 169.62C125.799 170.073 125.999 170.433 126.399 170.7C126.799 170.967 127.286 171.173 127.859 171.32C128.433 171.467 129.006 171.633 129.579 171.82C130.153 171.993 130.639 172.293 131.039 172.72C131.439 173.133 131.639 173.68 131.639 174.36C131.639 175.213 131.299 175.907 130.619 176.44C129.953 176.973 129.086 177.24 128.019 177.24C127.059 177.24 126.239 177.027 125.559 176.6C124.893 176.173 124.426 175.62 124.159 174.94L125.279 174.28C125.466 174.8 125.799 175.213 126.279 175.52C126.773 175.813 127.353 175.96 128.019 175.96C128.673 175.96 129.219 175.833 129.659 175.58C130.099 175.313 130.319 174.907 130.319 174.36C130.319 173.907 130.119 173.547 129.719 173.28C129.319 173.013 128.833 172.807 128.259 172.66C127.686 172.513 127.113 172.353 126.539 172.18C125.966 171.993 125.479 171.693 125.079 171.28C124.679 170.853 124.479 170.3 124.479 169.62C124.479 168.807 124.799 168.127 125.439 167.58C126.093 167.033 126.913 166.76 127.899 166.76C128.713 166.76 129.426 166.947 130.039 167.32C130.653 167.68 131.106 168.173 131.399 168.8L130.299 169.44C129.913 168.507 129.113 168.04 127.899 168.04C127.326 168.04 126.833 168.18 126.419 168.46C126.006 168.727 125.799 169.113 125.799 169.62ZM143.841 164.04C142.868 163.96 142.141 164.127 141.661 164.54C141.195 164.953 140.961 165.64 140.961 166.6V167H143.841V168.28H140.961V177H139.641V168.28H137.941V167H139.641V166.6C139.641 165.293 140.001 164.307 140.721 163.64C141.455 162.96 142.495 162.667 143.841 162.76V164.04ZM146.568 168.66C147.181 167.447 148.234 166.84 149.728 166.84V168.12C148.821 168.12 148.068 168.387 147.468 168.92C146.868 169.453 146.568 170.293 146.568 171.44V177H145.248V167H146.568V168.66ZM155.551 166.76C157.031 166.76 158.225 167.287 159.131 168.34C160.051 169.38 160.511 170.613 160.511 172.04C160.511 172.187 160.498 172.393 160.471 172.66H151.691C151.825 173.673 152.251 174.48 152.971 175.08C153.705 175.667 154.605 175.96 155.671 175.96C156.431 175.96 157.085 175.807 157.631 175.5C158.191 175.18 158.611 174.767 158.891 174.26L160.051 174.94C159.611 175.647 159.011 176.207 158.251 176.62C157.491 177.033 156.625 177.24 155.651 177.24C154.078 177.24 152.798 176.747 151.811 175.76C150.825 174.773 150.331 173.52 150.331 172C150.331 170.507 150.818 169.26 151.791 168.26C152.765 167.26 154.018 166.76 155.551 166.76ZM155.551 168.04C154.511 168.04 153.638 168.353 152.931 168.98C152.238 169.593 151.825 170.393 151.691 171.38H159.151C159.018 170.327 158.611 169.507 157.931 168.92C157.251 168.333 156.458 168.04 155.551 168.04ZM167.231 166.76C168.711 166.76 169.904 167.287 170.811 168.34C171.731 169.38 172.191 170.613 172.191 172.04C172.191 172.187 172.178 172.393 172.151 172.66H163.371C163.504 173.673 163.931 174.48 164.651 175.08C165.384 175.667 166.284 175.96 167.351 175.96C168.111 175.96 168.764 175.807 169.311 175.5C169.871 175.18 170.291 174.767 170.571 174.26L171.731 174.94C171.291 175.647 170.691 176.207 169.931 176.62C169.171 177.033 168.304 177.24 167.331 177.24C165.758 177.24 164.478 176.747 163.491 175.76C162.504 174.773 162.011 173.52 162.011 172C162.011 170.507 162.498 169.26 163.471 168.26C164.444 167.26 165.698 166.76 167.231 166.76ZM167.231 168.04C166.191 168.04 165.318 168.353 164.611 168.98C163.918 169.593 163.504 170.393 163.371 171.38H170.831C170.698 170.327 170.291 169.507 169.611 168.92C168.931 168.333 168.138 168.04 167.231 168.04ZM184.591 168.28H181.711V174.34C181.711 174.887 181.817 175.28 182.031 175.52C182.244 175.747 182.564 175.867 182.991 175.88C183.417 175.88 183.951 175.867 184.591 175.84V177C183.191 177.213 182.137 177.113 181.431 176.7C180.737 176.287 180.391 175.5 180.391 174.34V168.28H178.291V167H180.391V164.6L181.711 164.2V167H184.591V168.28ZM190.805 166.76C192.285 166.76 193.478 167.287 194.385 168.34C195.305 169.38 195.765 170.613 195.765 172.04C195.765 172.187 195.752 172.393 195.725 172.66H186.945C187.078 173.673 187.505 174.48 188.225 175.08C188.958 175.667 189.858 175.96 190.925 175.96C191.685 175.96 192.338 175.807 192.885 175.5C193.445 175.18 193.865 174.767 194.145 174.26L195.305 174.94C194.865 175.647 194.265 176.207 193.505 176.62C192.745 177.033 191.878 177.24 190.905 177.24C189.332 177.24 188.052 176.747 187.065 175.76C186.078 174.773 185.585 173.52 185.585 172C185.585 170.507 186.072 169.26 187.045 168.26C188.018 167.26 189.272 166.76 190.805 166.76ZM190.805 168.04C189.765 168.04 188.892 168.353 188.185 168.98C187.492 169.593 187.078 170.393 186.945 171.38H194.405C194.272 170.327 193.865 169.507 193.185 168.92C192.505 168.333 191.712 168.04 190.805 168.04ZM206.465 167H207.785V177H206.465V175.04C205.545 176.507 204.198 177.24 202.425 177.24C200.998 177.24 199.778 176.733 198.765 175.72C197.765 174.707 197.265 173.467 197.265 172C197.265 170.533 197.765 169.293 198.765 168.28C199.778 167.267 200.998 166.76 202.425 166.76C204.198 166.76 205.545 167.493 206.465 168.96V167ZM199.725 174.82C200.485 175.58 201.418 175.96 202.525 175.96C203.632 175.96 204.565 175.58 205.325 174.82C206.085 174.047 206.465 173.107 206.465 172C206.465 170.893 206.085 169.96 205.325 169.2C204.565 168.427 203.632 168.04 202.525 168.04C201.418 168.04 200.485 168.427 199.725 169.2C198.965 169.96 198.585 170.893 198.585 172C198.585 173.107 198.965 174.047 199.725 174.82ZM221.24 166.76C222.36 166.76 223.26 167.12 223.94 167.84C224.633 168.56 224.98 169.533 224.98 170.76V177H223.66V170.76C223.66 169.893 223.433 169.227 222.98 168.76C222.54 168.28 221.953 168.04 221.22 168.04C220.393 168.04 219.72 168.32 219.2 168.88C218.693 169.427 218.44 170.287 218.44 171.46V177H217.12V170.76C217.12 169.88 216.906 169.207 216.48 168.74C216.066 168.273 215.5 168.04 214.78 168.04C213.98 168.04 213.3 168.32 212.74 168.88C212.18 169.44 211.9 170.3 211.9 171.46V177H210.58V167H211.9V168.46C212.62 167.327 213.64 166.76 214.96 166.76C216.4 166.76 217.413 167.367 218 168.58C218.72 167.367 219.8 166.76 221.24 166.76ZM43.8795 195H45.1995V205H43.8795V203.44C43.1328 204.64 42.0128 205.24 40.5195 205.24C39.3061 205.24 38.3461 204.873 37.6395 204.14C36.9461 203.393 36.5995 202.393 36.5995 201.14V195H37.9195V201.14C37.9195 202.033 38.1528 202.727 38.6195 203.22C39.0995 203.713 39.7728 203.96 40.6395 203.96C41.5995 203.96 42.3795 203.66 42.9795 203.06C43.5795 202.447 43.8795 201.507 43.8795 200.24V195ZM49.0318 197.62C49.0318 198.073 49.2318 198.433 49.6318 198.7C50.0318 198.967 50.5185 199.173 51.0918 199.32C51.6651 199.467 52.2385 199.633 52.8118 199.82C53.3851 199.993 53.8718 200.293 54.2718 200.72C54.6718 201.133 54.8718 201.68 54.8718 202.36C54.8718 203.213 54.5318 203.907 53.8518 204.44C53.1851 204.973 52.3185 205.24 51.2518 205.24C50.2918 205.24 49.4718 205.027 48.7918 204.6C48.1251 204.173 47.6585 203.62 47.3918 202.94L48.5118 202.28C48.6985 202.8 49.0318 203.213 49.5118 203.52C50.0051 203.813 50.5851 203.96 51.2518 203.96C51.9051 203.96 52.4518 203.833 52.8918 203.58C53.3318 203.313 53.5518 202.907 53.5518 202.36C53.5518 201.907 53.3518 201.547 52.9518 201.28C52.5518 201.013 52.0651 200.807 51.4918 200.66C50.9185 200.513 50.3451 200.353 49.7718 200.18C49.1985 199.993 48.7118 199.693 48.3118 199.28C47.9118 198.853 47.7118 198.3 47.7118 197.62C47.7118 196.807 48.0318 196.127 48.6718 195.58C49.3251 195.033 50.1451 194.76 51.1318 194.76C51.9451 194.76 52.6585 194.947 53.2718 195.32C53.8851 195.68 54.3385 196.173 54.6318 196.8L53.5318 197.44C53.1451 196.507 52.3451 196.04 51.1318 196.04C50.5585 196.04 50.0651 196.18 49.6518 196.46C49.2385 196.727 49.0318 197.113 49.0318 197.62ZM65.3809 195H66.7009V205H65.3809V203.04C64.4609 204.507 63.1142 205.24 61.3409 205.24C59.9142 205.24 58.6942 204.733 57.6809 203.72C56.6809 202.707 56.1809 201.467 56.1809 200C56.1809 198.533 56.6809 197.293 57.6809 196.28C58.6942 195.267 59.9142 194.76 61.3409 194.76C63.1142 194.76 64.4609 195.493 65.3809 196.96V195ZM58.6409 202.82C59.4009 203.58 60.3342 203.96 61.4409 203.96C62.5475 203.96 63.4809 203.58 64.2409 202.82C65.0009 202.047 65.3809 201.107 65.3809 200C65.3809 198.893 65.0009 197.96 64.2409 197.2C63.4809 196.427 62.5475 196.04 61.4409 196.04C60.3342 196.04 59.4009 196.427 58.6409 197.2C57.8809 197.96 57.5009 198.893 57.5009 200C57.5009 201.107 57.8809 202.047 58.6409 202.82ZM78.0957 195H79.4157V204.6C79.4157 206.04 78.9224 207.173 77.9357 208C76.949 208.827 75.769 209.24 74.3957 209.24C72.049 209.24 70.469 208.427 69.6557 206.8L70.8157 206.14C71.4157 207.353 72.609 207.96 74.3957 207.96C75.5424 207.96 76.4424 207.653 77.0957 207.04C77.7624 206.44 78.0957 205.627 78.0957 204.6V203.04C77.1757 204.507 75.829 205.24 74.0557 205.24C72.629 205.24 71.409 204.733 70.3957 203.72C69.3957 202.707 68.8957 201.467 68.8957 200C68.8957 198.533 69.3957 197.293 70.3957 196.28C71.409 195.267 72.629 194.76 74.0557 194.76C75.829 194.76 77.1757 195.493 78.0957 196.96V195ZM71.3557 202.82C72.1157 203.58 73.049 203.96 74.1557 203.96C75.2624 203.96 76.1957 203.58 76.9557 202.82C77.7157 202.047 78.0957 201.107 78.0957 200C78.0957 198.893 77.7157 197.96 76.9557 197.2C76.1957 196.427 75.2624 196.04 74.1557 196.04C73.049 196.04 72.1157 196.427 71.3557 197.2C70.5957 197.96 70.2157 198.893 70.2157 200C70.2157 201.107 70.5957 202.047 71.3557 202.82ZM86.8305 194.76C88.3105 194.76 89.5039 195.287 90.4105 196.34C91.3305 197.38 91.7905 198.613 91.7905 200.04C91.7905 200.187 91.7772 200.393 91.7505 200.66H82.9705C83.1039 201.673 83.5305 202.48 84.2505 203.08C84.9839 203.667 85.8839 203.96 86.9505 203.96C87.7105 203.96 88.3639 203.807 88.9105 203.5C89.4705 203.18 89.8905 202.767 90.1705 202.26L91.3305 202.94C90.8905 203.647 90.2905 204.207 89.5305 204.62C88.7705 205.033 87.9039 205.24 86.9305 205.24C85.3572 205.24 84.0772 204.747 83.0905 203.76C82.1039 202.773 81.6105 201.52 81.6105 200C81.6105 198.507 82.0972 197.26 83.0705 196.26C84.0439 195.26 85.2972 194.76 86.8305 194.76ZM86.8305 196.04C85.7905 196.04 84.9172 196.353 84.2105 196.98C83.5172 197.593 83.1039 198.393 82.9705 199.38H90.4305C90.2972 198.327 89.8905 197.507 89.2105 196.92C88.5305 196.333 87.7372 196.04 86.8305 196.04ZM107.27 203.74C106.257 204.74 105.017 205.24 103.55 205.24C102.084 205.24 100.837 204.74 99.8102 203.74C98.7969 202.727 98.2902 201.48 98.2902 200C98.2902 198.52 98.7969 197.28 99.8102 196.28C100.837 195.267 102.084 194.76 103.55 194.76C105.017 194.76 106.257 195.267 107.27 196.28C108.297 197.28 108.81 198.52 108.81 200C108.81 201.48 108.297 202.727 107.27 203.74ZM100.75 202.82C101.51 203.58 102.444 203.96 103.55 203.96C104.657 203.96 105.59 203.58 106.35 202.82C107.11 202.047 107.49 201.107 107.49 200C107.49 198.893 107.11 197.96 106.35 197.2C105.59 196.427 104.657 196.04 103.55 196.04C102.444 196.04 101.51 196.427 100.75 197.2C99.9902 197.96 99.6102 198.893 99.6102 200C99.6102 201.107 99.9902 202.047 100.75 202.82ZM115.629 192.04C114.655 191.96 113.929 192.127 113.449 192.54C112.982 192.953 112.749 193.64 112.749 194.6V195H115.629V196.28H112.749V205H111.429V196.28H109.729V195H111.429V194.6C111.429 193.293 111.789 192.307 112.509 191.64C113.242 190.96 114.282 190.667 115.629 190.76V192.04ZM135.615 198.34V199.06C135.615 200.793 134.995 202.26 133.755 203.46C132.515 204.647 130.855 205.24 128.775 205.24C126.655 205.24 124.901 204.54 123.515 203.14C122.128 201.74 121.435 200.027 121.435 198C121.435 195.973 122.128 194.26 123.515 192.86C124.901 191.46 126.655 190.76 128.775 190.76C130.068 190.76 131.255 191.073 132.335 191.7C133.415 192.327 134.248 193.16 134.835 194.2L133.595 194.92C133.155 194.067 132.501 193.387 131.635 192.88C130.768 192.373 129.815 192.12 128.775 192.12C127.028 192.12 125.601 192.687 124.495 193.82C123.388 194.953 122.835 196.347 122.835 198C122.835 199.653 123.388 201.047 124.495 202.18C125.601 203.313 127.028 203.88 128.775 203.88C130.348 203.88 131.608 203.487 132.555 202.7C133.501 201.9 134.041 200.887 134.175 199.66H128.615V198.34H135.615ZM146.196 203.74C145.183 204.74 143.943 205.24 142.476 205.24C141.009 205.24 139.763 204.74 138.736 203.74C137.723 202.727 137.216 201.48 137.216 200C137.216 198.52 137.723 197.28 138.736 196.28C139.763 195.267 141.009 194.76 142.476 194.76C143.943 194.76 145.183 195.267 146.196 196.28C147.223 197.28 147.736 198.52 147.736 200C147.736 201.48 147.223 202.727 146.196 203.74ZM139.676 202.82C140.436 203.58 141.369 203.96 142.476 203.96C143.583 203.96 144.516 203.58 145.276 202.82C146.036 202.047 146.416 201.107 146.416 200C146.416 198.893 146.036 197.96 145.276 197.2C144.516 196.427 143.583 196.04 142.476 196.04C141.369 196.04 140.436 196.427 139.676 197.2C138.916 197.96 138.536 198.893 138.536 200C138.536 201.107 138.916 202.047 139.676 202.82ZM158.325 203.74C157.312 204.74 156.072 205.24 154.605 205.24C153.138 205.24 151.892 204.74 150.865 203.74C149.852 202.727 149.345 201.48 149.345 200C149.345 198.52 149.852 197.28 150.865 196.28C151.892 195.267 153.138 194.76 154.605 194.76C156.072 194.76 157.312 195.267 158.325 196.28C159.352 197.28 159.865 198.52 159.865 200C159.865 201.48 159.352 202.727 158.325 203.74ZM151.805 202.82C152.565 203.58 153.498 203.96 154.605 203.96C155.712 203.96 156.645 203.58 157.405 202.82C158.165 202.047 158.545 201.107 158.545 200C158.545 198.893 158.165 197.96 157.405 197.2C156.645 196.427 155.712 196.04 154.605 196.04C153.498 196.04 152.565 196.427 151.805 197.2C151.045 197.96 150.665 198.893 150.665 200C150.665 201.107 151.045 202.047 151.805 202.82ZM170.674 195H171.994V204.6C171.994 206.04 171.5 207.173 170.514 208C169.527 208.827 168.347 209.24 166.974 209.24C164.627 209.24 163.047 208.427 162.234 206.8L163.394 206.14C163.994 207.353 165.187 207.96 166.974 207.96C168.12 207.96 169.02 207.653 169.674 207.04C170.34 206.44 170.674 205.627 170.674 204.6V203.04C169.754 204.507 168.407 205.24 166.634 205.24C165.207 205.24 163.987 204.733 162.974 203.72C161.974 202.707 161.474 201.467 161.474 200C161.474 198.533 161.974 197.293 162.974 196.28C163.987 195.267 165.207 194.76 166.634 194.76C168.407 194.76 169.754 195.493 170.674 196.96V195ZM163.934 202.82C164.694 203.58 165.627 203.96 166.734 203.96C167.84 203.96 168.774 203.58 169.534 202.82C170.294 202.047 170.674 201.107 170.674 200C170.674 198.893 170.294 197.96 169.534 197.2C168.774 196.427 167.84 196.04 166.734 196.04C165.627 196.04 164.694 196.427 163.934 197.2C163.174 197.96 162.794 198.893 162.794 200C162.794 201.107 163.174 202.047 163.934 202.82ZM174.789 205V190.4H176.109V205H174.789ZM183.53 194.76C185.01 194.76 186.203 195.287 187.11 196.34C188.03 197.38 188.49 198.613 188.49 200.04C188.49 200.187 188.476 200.393 188.45 200.66H179.67C179.803 201.673 180.23 202.48 180.95 203.08C181.683 203.667 182.583 203.96 183.65 203.96C184.41 203.96 185.063 203.807 185.61 203.5C186.17 203.18 186.59 202.767 186.87 202.26L188.03 202.94C187.59 203.647 186.99 204.207 186.23 204.62C185.47 205.033 184.603 205.24 183.63 205.24C182.056 205.24 180.776 204.747 179.79 203.76C178.803 202.773 178.31 201.52 178.31 200C178.31 198.507 178.796 197.26 179.77 196.26C180.743 195.26 181.996 194.76 183.53 194.76ZM183.53 196.04C182.49 196.04 181.616 196.353 180.91 196.98C180.216 197.593 179.803 198.393 179.67 199.38H187.13C186.996 198.327 186.59 197.507 185.91 196.92C185.23 196.333 184.436 196.04 183.53 196.04ZM200.189 205.24C198.909 205.24 197.809 204.94 196.889 204.34C195.983 203.727 195.349 202.887 194.989 201.82L196.189 201.12C196.443 201.987 196.909 202.667 197.589 203.16C198.269 203.64 199.143 203.88 200.209 203.88C201.249 203.88 202.056 203.653 202.629 203.2C203.216 202.733 203.509 202.12 203.509 201.36C203.509 200.627 203.243 200.073 202.709 199.7C202.176 199.327 201.296 198.94 200.069 198.54C198.616 198.06 197.656 197.673 197.189 197.38C196.123 196.74 195.589 195.813 195.589 194.6C195.589 193.413 196.003 192.48 196.829 191.8C197.656 191.107 198.676 190.76 199.889 190.76C200.983 190.76 201.929 191.047 202.729 191.62C203.529 192.18 204.123 192.9 204.509 193.78L203.329 194.44C202.689 192.893 201.543 192.12 199.889 192.12C199.023 192.12 198.323 192.333 197.789 192.76C197.256 193.187 196.989 193.78 196.989 194.54C196.989 195.233 197.229 195.753 197.709 196.1C198.189 196.447 198.983 196.8 200.089 197.16C200.596 197.333 200.956 197.46 201.169 197.54C201.396 197.607 201.716 197.727 202.129 197.9C202.556 198.06 202.869 198.207 203.069 198.34C203.269 198.46 203.509 198.633 203.789 198.86C204.083 199.073 204.289 199.293 204.409 199.52C204.543 199.733 204.656 200 204.749 200.32C204.856 200.627 204.909 200.96 204.909 201.32C204.909 202.507 204.476 203.46 203.609 204.18C202.743 204.887 201.603 205.24 200.189 205.24ZM214.153 195H215.473V205H214.153V203.44C213.406 204.64 212.286 205.24 210.793 205.24C209.58 205.24 208.62 204.873 207.913 204.14C207.22 203.393 206.873 202.393 206.873 201.14V195H208.193V201.14C208.193 202.033 208.426 202.727 208.893 203.22C209.373 203.713 210.046 203.96 210.913 203.96C211.873 203.96 212.653 203.66 213.253 203.06C213.853 202.447 214.153 201.507 214.153 200.24V195ZM219.605 192.6C219.419 192.787 219.192 192.88 218.925 192.88C218.659 192.88 218.432 192.787 218.245 192.6C218.059 192.413 217.965 192.187 217.965 191.92C217.965 191.653 218.059 191.427 218.245 191.24C218.432 191.053 218.659 190.96 218.925 190.96C219.192 190.96 219.419 191.053 219.605 191.24C219.792 191.427 219.885 191.653 219.885 191.92C219.885 192.187 219.792 192.413 219.605 192.6ZM218.265 205V195H219.585V205H218.265ZM227.686 196.28H224.806V202.34C224.806 202.887 224.913 203.28 225.126 203.52C225.34 203.747 225.66 203.867 226.086 203.88C226.513 203.88 227.046 203.867 227.686 203.84V205C226.286 205.213 225.233 205.113 224.526 204.7C223.833 204.287 223.486 203.5 223.486 202.34V196.28H221.386V195H223.486V192.6L224.806 192.2V195H227.686V196.28ZM233.901 194.76C235.381 194.76 236.574 195.287 237.481 196.34C238.401 197.38 238.861 198.613 238.861 200.04C238.861 200.187 238.848 200.393 238.821 200.66H230.041C230.174 201.673 230.601 202.48 231.321 203.08C232.054 203.667 232.954 203.96 234.021 203.96C234.781 203.96 235.434 203.807 235.981 203.5C236.541 203.18 236.961 202.767 237.241 202.26L238.401 202.94C237.961 203.647 237.361 204.207 236.601 204.62C235.841 205.033 234.974 205.24 234.001 205.24C232.428 205.24 231.148 204.747 230.161 203.76C229.174 202.773 228.681 201.52 228.681 200C228.681 198.507 229.168 197.26 230.141 196.26C231.114 195.26 232.368 194.76 233.901 194.76ZM233.901 196.04C232.861 196.04 231.988 196.353 231.281 196.98C230.588 197.593 230.174 198.393 230.041 199.38H237.501C237.368 198.327 236.961 197.507 236.281 196.92C235.601 196.333 234.808 196.04 233.901 196.04Z" fill="#01062C"/>
<path d="M45.815 123.065H49.21V134.405C48.93 134.498 48.5217 134.603 47.985 134.72C47.4717 134.837 46.865 134.953 46.165 135.07C45.4883 135.187 44.7417 135.28 43.925 135.35C43.1083 135.443 42.28 135.49 41.44 135.49C39.7367 135.49 38.185 135.21 36.785 134.65C35.385 134.09 34.1833 133.273 33.18 132.2C32.1767 131.127 31.395 129.808 30.835 128.245C30.2983 126.682 30.03 124.885 30.03 122.855C30.03 120.825 30.3333 119.028 30.94 117.465C31.57 115.878 32.41 114.548 33.46 113.475C34.51 112.402 35.735 111.585 37.135 111.025C38.5583 110.465 40.075 110.185 41.685 110.185C42.7817 110.185 43.75 110.255 44.59 110.395C45.4533 110.535 46.1883 110.698 46.795 110.885C47.4017 111.072 47.8917 111.258 48.265 111.445C48.6617 111.632 48.93 111.772 49.07 111.865L47.985 114.7C47.3083 114.257 46.41 113.895 45.29 113.615C44.17 113.312 43.0267 113.16 41.86 113.16C40.6233 113.16 39.4917 113.382 38.465 113.825C37.4617 114.268 36.5983 114.91 35.875 115.75C35.175 116.59 34.6267 117.617 34.23 118.83C33.8333 120.02 33.635 121.362 33.635 122.855C33.635 124.302 33.7983 125.62 34.125 126.81C34.475 128 34.9883 129.027 35.665 129.89C36.365 130.73 37.2167 131.383 38.22 131.85C39.2467 132.317 40.4483 132.55 41.825 132.55C42.805 132.55 43.6333 132.503 44.31 132.41C45.01 132.293 45.5117 132.188 45.815 132.095V123.065ZM70.3806 125.9C70.3806 127.347 70.1706 128.653 69.7506 129.82C69.3306 130.987 68.7356 131.99 67.9656 132.83C67.219 133.67 66.3206 134.323 65.2706 134.79C64.2206 135.233 63.0773 135.455 61.8406 135.455C60.604 135.455 59.4606 135.233 58.4106 134.79C57.3606 134.323 56.4506 133.67 55.6806 132.83C54.934 131.99 54.3506 130.987 53.9306 129.82C53.5106 128.653 53.3006 127.347 53.3006 125.9C53.3006 124.477 53.5106 123.182 53.9306 122.015C54.3506 120.825 54.934 119.81 55.6806 118.97C56.4506 118.13 57.3606 117.488 58.4106 117.045C59.4606 116.578 60.604 116.345 61.8406 116.345C63.0773 116.345 64.2206 116.578 65.2706 117.045C66.3206 117.488 67.219 118.13 67.9656 118.97C68.7356 119.81 69.3306 120.825 69.7506 122.015C70.1706 123.182 70.3806 124.477 70.3806 125.9ZM66.9856 125.9C66.9856 123.847 66.519 122.225 65.5856 121.035C64.6756 119.822 63.4273 119.215 61.8406 119.215C60.254 119.215 58.994 119.822 58.0606 121.035C57.1506 122.225 56.6956 123.847 56.6956 125.9C56.6956 127.953 57.1506 129.587 58.0606 130.8C58.994 131.99 60.254 132.585 61.8406 132.585C63.4273 132.585 64.6756 131.99 65.5856 130.8C66.519 129.587 66.9856 127.953 66.9856 125.9ZM91.0252 125.9C91.0252 127.347 90.8152 128.653 90.3952 129.82C89.9752 130.987 89.3802 131.99 88.6102 132.83C87.8635 133.67 86.9652 134.323 85.9152 134.79C84.8652 135.233 83.7218 135.455 82.4852 135.455C81.2485 135.455 80.1052 135.233 79.0552 134.79C78.0052 134.323 77.0952 133.67 76.3252 132.83C75.5785 131.99 74.9952 130.987 74.5752 129.82C74.1552 128.653 73.9452 127.347 73.9452 125.9C73.9452 124.477 74.1552 123.182 74.5752 122.015C74.9952 120.825 75.5785 119.81 76.3252 118.97C77.0952 118.13 78.0052 117.488 79.0552 117.045C80.1052 116.578 81.2485 116.345 82.4852 116.345C83.7218 116.345 84.8652 116.578 85.9152 117.045C86.9652 117.488 87.8635 118.13 88.6102 118.97C89.3802 119.81 89.9752 120.825 90.3952 122.015C90.8152 123.182 91.0252 124.477 91.0252 125.9ZM87.6302 125.9C87.6302 123.847 87.1635 122.225 86.2302 121.035C85.3202 119.822 84.0718 119.215 82.4852 119.215C80.8985 119.215 79.6385 119.822 78.7052 121.035C77.7952 122.225 77.3402 123.847 77.3402 125.9C77.3402 127.953 77.7952 129.587 78.7052 130.8C79.6385 131.99 80.8985 132.585 82.4852 132.585C84.0718 132.585 85.3202 131.99 86.2302 130.8C87.1635 129.587 87.6302 127.953 87.6302 125.9ZM107.015 133.18C106.735 133.367 106.186 133.612 105.37 133.915C104.576 134.195 103.643 134.335 102.57 134.335C101.473 134.335 100.435 134.16 99.4547 133.81C98.498 133.46 97.658 132.923 96.9347 132.2C96.2114 131.453 95.6397 130.532 95.2197 129.435C94.7997 128.338 94.5897 127.032 94.5897 125.515C94.5897 124.185 94.788 122.972 95.1847 121.875C95.5814 120.755 96.153 119.798 96.8997 119.005C97.6697 118.188 98.603 117.558 99.6997 117.115C100.796 116.648 102.033 116.415 103.41 116.415C104.926 116.415 106.245 116.532 107.365 116.765C108.508 116.975 109.465 117.173 110.235 117.36V133.6C110.235 136.4 109.511 138.43 108.065 139.69C106.618 140.95 104.425 141.58 101.485 141.58C100.341 141.58 99.2564 141.487 98.2297 141.3C97.2264 141.113 96.3514 140.892 95.6047 140.635L96.1997 137.8C96.853 138.057 97.6464 138.278 98.5797 138.465C99.5364 138.675 100.528 138.78 101.555 138.78C103.491 138.78 104.88 138.395 105.72 137.625C106.583 136.855 107.015 135.63 107.015 133.95V133.18ZM106.98 119.67C106.653 119.577 106.21 119.495 105.65 119.425C105.113 119.332 104.378 119.285 103.445 119.285C101.695 119.285 100.341 119.857 99.3847 121C98.4514 122.143 97.9847 123.66 97.9847 125.55C97.9847 126.6 98.113 127.498 98.3697 128.245C98.6497 128.992 99.0114 129.61 99.4547 130.1C99.9214 130.59 100.446 130.952 101.03 131.185C101.636 131.418 102.255 131.535 102.885 131.535C103.748 131.535 104.541 131.418 105.265 131.185C105.988 130.928 106.56 130.637 106.98 130.31V119.67ZM121.299 135.35C119.292 135.303 117.869 134.872 117.029 134.055C116.189 133.238 115.769 131.967 115.769 130.24V108.4L119.024 107.84V129.715C119.024 130.252 119.071 130.695 119.164 131.045C119.257 131.395 119.409 131.675 119.619 131.885C119.829 132.095 120.109 132.258 120.459 132.375C120.809 132.468 121.241 132.55 121.754 132.62L121.299 135.35ZM124.394 125.935C124.394 124.325 124.628 122.925 125.094 121.735C125.561 120.522 126.179 119.518 126.949 118.725C127.719 117.932 128.606 117.337 129.609 116.94C130.613 116.543 131.639 116.345 132.689 116.345C135.139 116.345 137.018 117.115 138.324 118.655C139.631 120.172 140.284 122.493 140.284 125.62C140.284 125.76 140.284 125.947 140.284 126.18C140.284 126.39 140.273 126.588 140.249 126.775H127.789C127.929 128.665 128.478 130.1 129.434 131.08C130.391 132.06 131.884 132.55 133.914 132.55C135.058 132.55 136.014 132.457 136.784 132.27C137.578 132.06 138.173 131.862 138.569 131.675L139.024 134.405C138.628 134.615 137.928 134.837 136.924 135.07C135.944 135.303 134.824 135.42 133.564 135.42C131.978 135.42 130.601 135.187 129.434 134.72C128.291 134.23 127.346 133.565 126.599 132.725C125.853 131.885 125.293 130.893 124.919 129.75C124.569 128.583 124.394 127.312 124.394 125.935ZM136.889 124.15C136.913 122.68 136.539 121.478 135.769 120.545C135.023 119.588 133.984 119.11 132.654 119.11C131.908 119.11 131.243 119.262 130.659 119.565C130.099 119.845 129.621 120.218 129.224 120.685C128.828 121.152 128.513 121.688 128.279 122.295C128.069 122.902 127.929 123.52 127.859 124.15H136.889ZM158.906 132.585C162.452 132.585 164.226 131.372 164.226 128.945C164.226 128.198 164.062 127.568 163.736 127.055C163.432 126.518 163.012 126.063 162.476 125.69C161.939 125.293 161.321 124.955 160.621 124.675C159.944 124.395 159.221 124.115 158.451 123.835C157.564 123.532 156.724 123.193 155.931 122.82C155.137 122.423 154.449 121.968 153.866 121.455C153.282 120.918 152.816 120.288 152.466 119.565C152.139 118.842 151.976 117.967 151.976 116.94C151.976 114.817 152.699 113.16 154.146 111.97C155.592 110.78 157.587 110.185 160.131 110.185C161.601 110.185 162.931 110.348 164.121 110.675C165.334 110.978 166.221 111.317 166.781 111.69L165.696 114.455C165.206 114.152 164.471 113.86 163.491 113.58C162.534 113.277 161.414 113.125 160.131 113.125C159.477 113.125 158.871 113.195 158.311 113.335C157.751 113.475 157.261 113.685 156.841 113.965C156.421 114.245 156.082 114.607 155.826 115.05C155.592 115.47 155.476 115.972 155.476 116.555C155.476 117.208 155.604 117.757 155.861 118.2C156.117 118.643 156.479 119.04 156.946 119.39C157.412 119.717 157.949 120.02 158.556 120.3C159.186 120.58 159.874 120.86 160.621 121.14C161.671 121.56 162.627 121.98 163.491 122.4C164.377 122.82 165.136 123.322 165.766 123.905C166.419 124.488 166.921 125.188 167.271 126.005C167.621 126.798 167.796 127.767 167.796 128.91C167.796 131.033 167.014 132.667 165.451 133.81C163.911 134.953 161.729 135.525 158.906 135.525C157.949 135.525 157.062 135.455 156.246 135.315C155.452 135.198 154.741 135.058 154.111 134.895C153.481 134.708 152.932 134.522 152.466 134.335C152.022 134.125 151.672 133.95 151.416 133.81L152.431 131.01C152.967 131.313 153.784 131.652 154.881 132.025C155.977 132.398 157.319 132.585 158.906 132.585ZM186.179 134.475C185.432 134.662 184.44 134.86 183.204 135.07C181.99 135.28 180.579 135.385 178.969 135.385C177.569 135.385 176.39 135.187 175.434 134.79C174.477 134.37 173.707 133.787 173.124 133.04C172.54 132.293 172.12 131.418 171.864 130.415C171.607 129.388 171.479 128.257 171.479 127.02V116.8H174.734V126.32C174.734 128.537 175.084 130.123 175.784 131.08C176.484 132.037 177.662 132.515 179.319 132.515C179.669 132.515 180.03 132.503 180.404 132.48C180.777 132.457 181.127 132.433 181.454 132.41C181.78 132.363 182.072 132.328 182.329 132.305C182.609 132.258 182.807 132.212 182.924 132.165V116.8H186.179V134.475ZM195.041 135H191.786V116.8H195.041V135ZM193.396 113.51C192.813 113.51 192.311 113.323 191.891 112.95C191.495 112.553 191.296 112.028 191.296 111.375C191.296 110.722 191.495 110.208 191.891 109.835C192.311 109.438 192.813 109.24 193.396 109.24C193.98 109.24 194.47 109.438 194.866 109.835C195.286 110.208 195.496 110.722 195.496 111.375C195.496 112.028 195.286 112.553 194.866 112.95C194.47 113.323 193.98 113.51 193.396 113.51ZM203.684 116.8H210.579V119.53H203.684V127.93C203.684 128.84 203.754 129.598 203.894 130.205C204.034 130.788 204.244 131.255 204.524 131.605C204.804 131.932 205.154 132.165 205.574 132.305C205.994 132.445 206.484 132.515 207.044 132.515C208.024 132.515 208.806 132.41 209.389 132.2C209.996 131.967 210.416 131.803 210.649 131.71L211.279 134.405C210.952 134.568 210.381 134.767 209.564 135C208.747 135.257 207.814 135.385 206.764 135.385C205.527 135.385 204.501 135.233 203.684 134.93C202.891 134.603 202.249 134.125 201.759 133.495C201.269 132.865 200.919 132.095 200.709 131.185C200.522 130.252 200.429 129.178 200.429 127.965V111.725L203.684 111.165V116.8ZM213.364 125.935C213.364 124.325 213.597 122.925 214.064 121.735C214.531 120.522 215.149 119.518 215.919 118.725C216.689 117.932 217.576 117.337 218.579 116.94C219.582 116.543 220.609 116.345 221.659 116.345C224.109 116.345 225.987 117.115 227.294 118.655C228.601 120.172 229.254 122.493 229.254 125.62C229.254 125.76 229.254 125.947 229.254 126.18C229.254 126.39 229.242 126.588 229.219 126.775H216.759C216.899 128.665 217.447 130.1 218.404 131.08C219.361 132.06 220.854 132.55 222.884 132.55C224.027 132.55 224.984 132.457 225.754 132.27C226.547 132.06 227.142 131.862 227.539 131.675L227.994 134.405C227.597 134.615 226.897 134.837 225.894 135.07C224.914 135.303 223.794 135.42 222.534 135.42C220.947 135.42 219.571 135.187 218.404 134.72C217.261 134.23 216.316 133.565 215.569 132.725C214.822 131.885 214.262 130.893 213.889 129.75C213.539 128.583 213.364 127.312 213.364 125.935ZM225.859 124.15C225.882 122.68 225.509 121.478 224.739 120.545C223.992 119.588 222.954 119.11 221.624 119.11C220.877 119.11 220.212 119.262 219.629 119.565C219.069 119.845 218.591 120.218 218.194 120.685C217.797 121.152 217.482 121.688 217.249 122.295C217.039 122.902 216.899 123.52 216.829 124.15H225.859Z" fill="black"/>
<path d="M254.948 52.7147L262.259 57.5886C259.886 61.0837 254.211 67.0798 244.399 67.0798C232.214 67.0798 223.14 57.6527 223.14 45.6605C223.14 32.8986 232.31 24.2411 243.373 24.2411C254.499 24.2411 259.95 33.091 261.714 37.8687L262.676 40.3056L234.01 52.1696C236.19 56.4663 239.589 58.6468 244.399 58.6468C249.209 58.6468 252.543 56.274 254.948 52.7147ZM232.471 44.9871L251.614 37.035C250.555 34.3736 247.413 32.4818 243.661 32.4818C238.884 32.4818 232.246 36.7143 232.471 44.9871Z" fill="#FF302F"/>
<path d="M209.32 2.40491H218.555V65.1239H209.32V2.40491Z" fill="#20B15A"/>
<path d="M194.762 25.9085H203.676V64.0017C203.676 79.8097 194.346 86.3189 183.315 86.3189C172.926 86.3189 166.673 79.3287 164.333 73.6532L172.509 70.2543C173.984 73.7494 177.543 77.8858 183.315 77.8858C190.402 77.8858 194.762 73.4929 194.762 65.2843V62.206H194.442C192.325 64.7712 188.285 67.0799 183.155 67.0799C172.445 67.0799 162.633 57.749 162.633 45.7247C162.633 33.6362 172.445 24.2091 183.155 24.2091C188.253 24.2091 192.325 26.4857 194.442 28.9868H194.762V25.9085ZM195.404 45.7247C195.404 38.1573 190.369 32.6422 183.956 32.6422C177.479 32.6422 172.028 38.1573 172.028 45.7247C172.028 53.1958 177.479 58.6148 183.956 58.6148C190.369 58.6468 195.404 53.1958 195.404 45.7247Z" fill="#3686F7"/>
<path d="M111.939 45.5641C111.939 57.9091 102.319 66.9835 90.5192 66.9835C78.7193 66.9835 69.0999 57.877 69.0999 45.5641C69.0999 33.155 78.7193 24.1127 90.5192 24.1127C102.319 24.1127 111.939 33.155 111.939 45.5641ZM102.576 45.5641C102.576 37.8685 96.9963 32.5778 90.5192 32.5778C84.0421 32.5778 78.4628 37.8685 78.4628 45.5641C78.4628 53.1956 84.0421 58.5504 90.5192 58.5504C96.9963 58.5504 102.576 53.1956 102.576 45.5641Z" fill="#FF302F"/>
<path d="M158.721 45.6605C158.721 58.0055 149.102 67.0798 137.302 67.0798C125.502 67.0798 115.883 58.0055 115.883 45.6605C115.883 33.2513 125.502 24.2411 137.302 24.2411C149.102 24.2411 158.721 33.2193 158.721 45.6605ZM149.326 45.6605C149.326 37.9649 143.747 32.6742 137.27 32.6742C130.793 32.6742 125.214 37.9649 125.214 45.6605C125.214 53.2919 130.793 58.6468 137.27 58.6468C143.779 58.6468 149.326 53.2598 149.326 45.6605Z" fill="#FFBA40"/>
<path d="M33.8926 57.6848C20.4574 57.6848 9.94013 46.8469 9.94013 33.4117C9.94013 19.9765 20.4574 9.13851 33.8926 9.13851C41.1393 9.13851 46.43 11.9923 50.3419 15.6477L56.787 9.20263C51.3359 3.97605 44.0572 0 33.8926 0C15.4874 0 0 15.0064 0 33.4117C0 51.8169 15.4874 66.8233 33.8926 66.8233C43.8328 66.8233 51.3359 63.5527 57.2038 57.4604C63.232 51.4322 65.0918 42.967 65.0918 36.1051C65.0918 33.9568 64.8353 31.7443 64.5467 30.109H33.8926V39.023H55.7288C55.0875 44.6023 53.324 48.418 50.7267 51.0153C47.5844 54.1897 42.6143 57.6848 33.8926 57.6848Z" fill="#3686F7"/>
</svg>
