<svg width="619" height="141" viewBox="0 0 619 141" fill="none" xmlns="http://www.w3.org/2000/svg">
<path d="M608.096 119.111C607.358 119.111 606.621 118.83 606.058 118.267L598.289 110.497C597.163 109.372 597.163 107.547 598.289 106.421L606.058 98.6518C606.599 98.1111 607.332 97.8076 608.096 97.8076C608.86 97.8076 609.593 98.1111 610.133 98.6518L617.904 106.421C618.444 106.961 618.748 107.695 618.748 108.459C618.748 109.224 618.444 109.957 617.904 110.497L610.133 118.267C609.571 118.83 608.833 119.111 608.096 119.111Z" fill="#FF468C"/>
<path d="M610.134 98.6513C609.594 98.1106 608.861 97.8071 608.096 97.8071V119.111C608.833 119.111 609.571 118.829 610.134 118.266L617.904 110.497C618.445 109.956 618.748 109.223 618.748 108.459C618.748 107.695 618.445 106.961 617.904 106.421L610.134 98.6513Z" fill="#D72878"/>
<path d="M367.672 86.8299C366.935 86.8299 366.198 86.5485 365.635 85.9857L357.865 78.2161C356.74 77.0905 356.74 75.2658 357.865 74.1402L365.635 66.3706C366.176 65.8299 366.908 65.5264 367.672 65.5264C368.437 65.5264 369.17 65.8299 369.71 66.3706L377.48 74.1402C378.02 74.6801 378.325 75.4139 378.325 76.1778C378.325 76.9424 378.021 77.6754 377.48 78.2154L369.71 85.9857C369.148 86.5485 368.41 86.8299 367.672 86.8299Z" fill="#FF468C"/>
<path d="M369.711 66.3701C369.17 65.8294 368.437 65.5259 367.673 65.5259V86.8294C368.41 86.8294 369.148 86.548 369.711 85.9852L377.481 78.2156C378.021 77.6749 378.325 76.9419 378.325 76.1773C378.325 75.4134 378.021 74.6797 377.481 74.1397L369.711 66.3701Z" fill="#D72878"/>
<path d="M559.978 44.4815C556.732 44.4815 553.33 43.6328 550.19 41.9717C547.132 40.354 544.564 38.1057 542.734 35.4809C539.535 35.4456 536.231 34.5881 533.173 32.9696C531.179 31.9155 528.804 29.7224 527.376 28.1651C526.3 26.9924 526.379 25.1691 527.553 24.0929C528.725 23.0173 530.548 23.0961 531.624 24.2697C533.005 25.7754 534.83 27.3261 535.868 27.8749C537.227 28.5939 538.639 29.1088 540.048 29.4086C539.428 26.4531 539.795 23.5507 541.146 20.9967L541.178 20.9355C543.51 16.5281 548.649 14.6577 552.635 16.7667C554.61 17.8113 556.042 19.7266 556.563 22.0206C557.055 24.1894 556.726 26.5194 555.634 28.5828L555.602 28.644C554.251 31.198 552.057 33.1332 549.265 34.2846C550.306 35.2798 551.526 36.1579 552.885 36.8769C556.579 38.8305 560.831 39.2593 563.98 37.9937C565.457 37.4007 567.135 38.1174 567.728 39.5945C568.322 41.0715 567.605 42.7496 566.128 43.3426C564.23 44.105 562.138 44.4815 559.978 44.4815ZM549.087 21.6567C548.064 21.6567 546.915 22.4162 546.273 23.6302L546.24 23.6921C545.383 25.3135 545.303 27.2811 545.994 29.3202C548.067 28.7434 549.649 27.5699 550.506 25.9485L550.539 25.8874C550.98 25.0542 551.127 24.1105 550.942 23.298C550.855 22.9135 550.608 22.2151 549.939 21.8608C549.676 21.7223 549.387 21.6567 549.087 21.6567Z" fill="#FFE733"/>
<path d="M563.98 37.994C560.83 39.2596 556.579 38.8308 552.886 36.8772C551.526 36.1582 550.306 35.2801 549.265 34.2849C552.057 33.1342 554.251 31.1983 555.602 28.645L555.634 28.5831C556.726 26.5197 557.056 24.1896 556.563 22.0216C556.041 19.7269 554.609 17.8123 552.634 16.767C550.955 15.8786 549.07 15.6989 547.277 16.1158V22.3885C547.838 21.9229 548.484 21.6577 549.087 21.6577C549.386 21.6577 549.676 21.7233 549.939 21.8618C550.608 22.2161 550.855 22.9145 550.942 23.299C551.127 24.1108 550.98 25.0545 550.539 25.8884L550.507 25.9495C549.836 27.2166 548.722 28.2089 547.277 28.8579V40.1318C548.187 40.8095 549.16 41.4276 550.19 41.9727C553.33 43.6339 556.732 44.4818 559.977 44.4818C562.138 44.4818 564.229 44.1061 566.128 43.3436C567.605 42.7506 568.322 41.0725 567.728 39.5955C567.135 38.1177 565.457 37.401 563.98 37.994Z" fill="#FFC247"/>
<path d="M483.482 140.66C478.841 140.66 475.065 136.884 475.065 132.243C475.065 127.601 478.841 123.826 483.482 123.826C488.124 123.826 491.899 127.601 491.899 132.243C491.899 136.884 488.124 140.66 483.482 140.66Z" fill="#06CCAB"/>
<path d="M483.482 123.824V140.658C488.123 140.658 491.899 136.882 491.899 132.241C491.899 127.6 488.123 123.824 483.482 123.824Z" fill="#1CADB5"/>
<path d="M33.7695 40.0449C35.2767 40.0449 36.7213 38.7196 36.6514 37.1631C36.5814 35.6014 35.385 34.2812 33.7695 34.2812C32.2623 34.2812 30.8177 35.6065 30.8877 37.1631C30.9577 38.7248 32.154 40.0449 33.7695 40.0449Z" fill="#FFFD78"/>
<path d="M36.6515 37.1631C36.5815 35.6014 35.3852 34.2812 33.7697 34.2812V40.0449C35.2769 40.0449 36.7215 38.7196 36.6515 37.1631Z" fill="#FFE733"/>
<path d="M43.9324 37.47C45.4397 37.47 46.8843 36.144 46.8143 34.5874C46.7443 33.0264 45.5479 31.7056 43.9324 31.7056C42.4245 31.7056 40.9806 33.0308 41.0499 34.5874C41.1199 36.1491 42.3162 37.47 43.9324 37.47Z" fill="#FFFD78"/>
<path d="M41.3566 47.6323C42.8638 47.6323 44.3084 46.307 44.2384 44.7505C44.1684 43.1888 42.9721 41.8687 41.3566 41.8687C39.8493 41.8687 38.4048 43.1939 38.4747 44.7505C38.5447 46.3122 39.7411 47.6323 41.3566 47.6323Z" fill="#FFFD78"/>
<path d="M46.8146 34.5874C46.7446 33.0264 45.5482 31.7056 43.9327 31.7056V37.47C45.44 37.47 46.8845 36.144 46.8146 34.5874Z" fill="#FFE733"/>
<path d="M44.2384 44.7505C44.1684 43.1888 42.9721 41.8687 41.3566 41.8687V47.6323C42.8638 47.6323 44.3084 46.307 44.2384 44.7505Z" fill="#FFE733"/>
<path d="M31.2111 15.9069C25.625 16.3503 20.6657 19.3596 17.5474 24.0028C15.9754 26.3432 15.1385 29.0018 14.8218 31.7827C14.4844 34.7485 15.392 44.2463 11.0751 44.8673C9.58558 45.0817 8.12036 46.1321 8.19329 47.7499C8.25959 49.2379 9.4633 50.7223 11.0751 50.6317C14.1912 50.4556 16.6855 48.7083 18.3386 46.1145C20.0123 43.4861 20.4005 40.3854 20.4359 37.3342C20.4713 34.3875 20.4403 31.6692 21.4252 28.8574C23.1041 25.1387 26.7218 22.3615 30.7484 21.7014C32.3919 21.6049 34.1739 20.6871 34.0929 18.7887C34.0273 17.3294 32.8207 15.7787 31.2111 15.9069Z" fill="#FF468C"/>
<path d="M31.2114 15.9064C26.2272 16.302 21.7431 18.7418 18.6189 22.5614V45.6469C20.0561 43.1224 20.4031 40.2067 20.4362 37.3337C20.4716 34.387 20.4407 31.6688 21.4256 28.8576C23.1037 25.1382 26.7222 22.3617 30.7481 21.701C32.3923 21.6052 34.1743 20.6866 34.0932 18.7882C34.0277 17.3289 32.821 15.7782 31.2114 15.9064Z" fill="#D72878"/>
<path d="M224.998 123.84C224.976 123.84 224.955 123.84 224.933 123.84C223.342 123.804 222.08 122.486 222.115 120.895C222.228 115.777 225.04 110.499 229.639 106.778C232.329 104.602 235.406 103.123 238.538 102.473C239.827 99.5453 241.914 96.8446 244.605 94.6685C246.357 93.2497 249.308 91.9274 251.301 91.2261C252.803 90.6979 254.448 91.4869 254.976 92.9882C255.504 94.4895 254.715 96.1352 253.213 96.6634C251.285 97.3419 249.143 98.4101 248.231 99.1489C247.035 100.116 246.007 101.213 245.177 102.39C248.138 102.982 250.664 104.459 252.481 106.705L252.525 106.758C253.994 108.573 254.766 110.796 254.7 113.019C254.63 115.371 253.593 117.526 251.856 118.931C248.351 121.767 242.949 120.922 239.812 117.046L239.77 116.995C237.951 114.747 237.033 111.969 237.072 108.949C235.747 109.515 234.46 110.292 233.265 111.259C230.017 113.887 227.952 117.628 227.878 121.022C227.843 122.591 226.56 123.84 224.998 123.84ZM242.922 107.892C242.637 110.025 243.095 111.94 244.248 113.367L244.29 113.418C245.41 114.802 247.213 115.274 248.231 114.451C248.819 113.974 248.927 113.242 248.938 112.848C248.963 112.015 248.637 111.117 248.044 110.385L248.001 110.331C246.846 108.905 245.069 108.057 242.922 107.892Z" fill="#FFE733"/>
<path d="M248.23 99.1489C249.143 98.4101 251.285 97.3419 253.213 96.6634C254.715 96.1352 255.503 94.4903 254.975 92.9882C254.447 91.4869 252.802 90.6979 251.301 91.2261C249.307 91.9274 246.357 93.2497 244.604 94.6685C242.85 96.0881 241.354 97.7309 240.166 99.5143V117.459C243.343 120.978 248.479 121.664 251.856 118.931C253.593 117.526 254.63 115.371 254.7 113.019C254.765 110.797 253.993 108.574 252.524 106.758L252.481 106.705C250.664 104.459 248.138 102.982 245.177 102.39C246.006 101.213 247.035 100.116 248.23 99.1489ZM248.001 110.331L248.044 110.385C248.637 111.117 248.963 112.015 248.938 112.847C248.926 113.242 248.818 113.974 248.23 114.451C247.213 115.274 245.41 114.802 244.29 113.417L244.248 113.367C243.094 111.94 242.637 110.025 242.922 107.892C245.069 108.057 246.846 108.905 248.001 110.331Z" fill="#FFC247"/>
<path d="M117.306 82.3606C112.665 82.3606 108.889 78.5845 108.889 73.9435C108.889 69.3018 112.665 65.5264 117.306 65.5264C121.948 65.5264 125.723 69.3018 125.723 73.9435C125.723 78.5845 121.948 82.3606 117.306 82.3606Z" fill="#06CCAB"/>
<path d="M117.306 65.5259V82.3601C121.948 82.3601 125.723 78.584 125.723 73.943C125.723 69.3013 121.948 65.5259 117.306 65.5259Z" fill="#1CADB5"/>
<path d="M13.047 121.88C14.5549 121.88 15.9988 120.555 15.9296 118.998C15.8596 117.437 14.6625 116.116 13.047 116.116C11.5398 116.116 10.0952 117.442 10.1652 118.998C10.2351 120.559 11.4315 121.88 13.047 121.88Z" fill="#FFFD78"/>
<path d="M15.9296 118.998C15.8596 117.437 14.6625 116.116 13.047 116.116V121.88C14.5549 121.88 15.9988 120.555 15.9296 118.998Z" fill="#FFE733"/>
<path d="M2.88496 124.457C4.39217 124.457 5.83677 123.131 5.76678 121.574C5.6968 120.013 4.50046 118.692 2.88496 118.692C1.37701 118.692 -0.0668518 120.018 0.00239441 121.574C0.0723775 123.136 1.26872 124.457 2.88496 124.457Z" fill="#FFFD78"/>
<path d="M10.4714 132.043C11.9786 132.043 13.4232 130.717 13.3533 129.161C13.2833 127.599 12.0869 126.279 10.4714 126.279C8.96348 126.279 7.51962 127.604 7.5896 129.161C7.65885 130.722 8.85519 132.043 10.4714 132.043Z" fill="#FFFD78"/>
<path d="M5.76647 121.574C5.69649 120.013 4.50015 118.692 2.88464 118.692V124.456C4.39186 124.456 5.83645 123.13 5.76647 121.574Z" fill="#FFE733"/>
<path d="M13.3535 129.161C13.2835 127.599 12.0872 126.279 10.4717 126.279V132.043C11.9789 132.043 13.4235 130.717 13.3535 129.161Z" fill="#FFE733"/>
<path d="M423.067 5.76439C424.575 5.76439 426.019 4.43913 425.95 2.88256C425.88 1.32084 424.683 0 423.067 0C421.56 0 420.115 1.32599 420.185 2.88256C420.255 4.44355 421.452 5.76439 423.067 5.76439Z" fill="#FFFD78"/>
<path d="M425.95 2.88256C425.88 1.32084 424.683 0 423.067 0V5.76439C424.575 5.76439 426.019 4.43913 425.95 2.88256Z" fill="#FFE733"/>
<path d="M412.905 8.34154C414.412 8.34154 415.857 7.01554 415.787 5.45898C415.717 3.89799 414.521 2.57715 412.905 2.57715C411.397 2.57715 409.953 3.90241 410.023 5.45898C410.093 7.0207 411.289 8.34154 412.905 8.34154Z" fill="#FFFD78"/>
<path d="M420.492 15.9275C421.999 15.9275 423.444 14.6015 423.374 13.0449C423.304 11.4832 422.107 10.1631 420.492 10.1631C418.984 10.1631 417.54 11.4883 417.61 13.0449C417.679 14.6066 418.875 15.9275 420.492 15.9275Z" fill="#FFFD78"/>
<path d="M415.787 5.458C415.717 3.89701 414.521 2.57617 412.905 2.57617V8.34056C414.412 8.34056 415.857 7.01457 415.787 5.458Z" fill="#FFE733"/>
<path d="M423.374 13.0449C423.304 11.4832 422.107 10.1631 420.492 10.1631V15.9275C421.999 15.9275 423.444 14.6015 423.374 13.0449Z" fill="#FFE733"/>
</svg>
