<svg width="370" height="461" viewBox="0 0 370 461" fill="none" xmlns="http://www.w3.org/2000/svg">
<circle cx="185" cy="276" r="185" fill="url(#paint0_linear)" fill-opacity="0.61"/>
<path d="M127.203 284.14C127.203 284.14 116.228 345.837 123.051 400.999H254.132C254.132 400.999 248.87 300.582 241.801 277.81L165.635 275.056L127.203 284.14Z" fill="url(#paint1_radial)"/>
<path d="M127.203 284.14C127.203 284.14 117.132 345.837 123.956 400.999H254.132C254.132 400.999 248.871 300.582 241.801 277.81L165.635 275.056L127.203 284.14Z" fill="url(#paint2_radial)"/>
<path d="M143.11 302.02C143.398 300.705 143.685 299.307 144.549 298.239C145.412 297.17 146.481 296.512 147.631 295.896L156.346 291.087C159.552 289.319 162.799 287.552 166.375 286.812C170.609 285.908 203.163 290.1 196.545 277.235C196.332 276.823 196.055 276.448 195.723 276.125L165.635 275.056L127.203 284.14C127.203 284.14 115.036 324.628 121.859 379.789H140.973C137.972 353.894 137.684 327.505 143.11 302.02Z" fill="url(#paint3_radial)"/>
<path d="M181.008 324.628C181.008 324.628 182.035 372.596 186.598 400.67L133.985 400.999L131.848 319.12L179.117 308.309L181.008 324.628Z" fill="url(#paint4_radial)"/>
<path d="M151.125 92.0202L163.415 87.9509L186.392 87.4577H190.503L194.49 95.1441L191.695 107.681L173.979 114.134L157.414 112.613L148.453 104.639L151.125 92.0202Z" fill="url(#paint5_radial)"/>
<path d="M138.835 26.8705C138.835 26.8705 131.971 59.2193 135.259 73.6468C138.547 88.0743 152.235 78.456 152.235 78.456L153.509 93.3767L149.44 94.8976L147.673 100.241C147.673 100.241 154.003 111.093 155.77 111.873C157.538 112.654 167.896 119.19 167.896 119.19L168.06 135.508L184.872 114.915L194.737 104.516V90.6227L189.146 89.3485C189.146 89.3485 181.049 83.224 185.365 60.2058L188.653 33.5705L175.747 19.5129L148.7 14.005L139.082 19.0197L138.835 26.8705Z" fill="#FDE5E0"/>
<path d="M138.835 26.8705C138.835 26.8705 131.971 59.2193 135.259 73.6468C138.547 88.0743 152.235 78.456 152.235 78.456L153.509 93.3767L149.44 94.8976L147.673 100.241C147.673 100.241 154.003 111.093 155.77 111.873C157.538 112.654 167.896 119.19 167.896 119.19L168.06 135.508L184.872 114.915L194.737 104.516V90.6227L189.146 89.3485C189.146 89.3485 181.049 83.224 185.365 60.2058L188.653 33.5705L175.747 19.5129L148.7 14.005L139.082 19.0197L138.835 26.8705Z" fill="url(#paint6_radial)"/>
<path d="M170.198 120.629C170.198 120.629 171.431 123.506 170.198 126.424C168.964 129.343 168.677 130.905 168.677 130.905C168.677 130.905 173.321 128.521 173.856 126.835C174.39 125.15 175.582 125.068 175.582 125.068V120.957L175.993 115.778L180.391 114.216H185.447L202.218 92.7601C202.218 92.7601 239.622 107.311 242.294 109.119C242.294 109.119 248.131 107.763 259.475 133.823C270.82 159.883 278.712 180.887 278.712 180.887C279.311 180.887 279.904 181.005 280.458 181.234C281.012 181.464 281.514 181.8 281.938 182.223C282.362 182.647 282.698 183.15 282.927 183.704C283.156 184.257 283.274 184.85 283.274 185.45V186.97C283.274 186.97 284.302 187.957 287.837 193.547C291.372 199.137 292.112 206.7 289.851 204.275C287.59 201.85 256.187 188.203 245.089 188.984C245.089 188.984 239.006 230.705 243.034 245.379C247.062 260.053 250.638 262.108 245.582 271.192C240.526 280.276 244.061 283.071 244.061 283.071C244.061 283.071 190.873 288.908 185.447 284.592C180.021 280.276 172.458 280.811 172.458 280.811C172.458 280.811 130.203 290.059 126.175 286.195C122.147 282.332 118.818 258.039 122.64 255.532L116.804 250.969C116.804 250.969 118.818 256.765 115.529 258.039C112.241 259.313 100.362 256.518 99.6221 252.983C98.8822 249.448 101.883 247.681 101.883 247.681C101.883 247.681 85.9345 233.253 90.9903 226.677C96.0461 220.1 95.7994 218.703 95.7994 218.703C95.7994 218.703 98.5945 203.823 93.2921 189.93C87.9897 176.037 97.0736 174.105 97.8546 164.692C98.6356 155.279 93.2921 137.358 98.8411 135.344C98.8411 135.344 137.931 104.064 139.205 103.982C140.479 103.899 140.356 104.475 140.356 104.475L159.798 114.093L164.566 115.367L168.677 116.354L170.198 120.629Z" fill="#7BCAB5"/>
<path d="M180.556 188.779L168.677 159.431L153.468 138.92L126.668 137.933L115.118 157.91C115.118 157.91 128.847 194.821 130.162 201.932C130.162 201.932 134.067 203.042 134.396 206.988C134.725 210.934 132.957 211.14 132.957 211.14L119.763 253.312L122.64 255.573C122.353 255.737 121.983 256.395 121.53 257.423C119.681 263.794 122.64 282.866 126.175 286.236C129.71 289.607 172.458 280.852 172.458 280.852C172.458 280.852 180.063 280.359 185.447 284.633C187.297 286.113 194.449 286.401 203.204 286.154L180.556 188.779Z" fill="url(#paint7_radial)"/>
<path d="M230.908 140.934C230.333 165.802 234.731 178.01 234.731 178.01L270.738 184.093C272.069 184.352 273.414 184.53 274.766 184.627C278.794 184.997 283.275 187.012 283.275 187.012V185.491C283.275 184.281 282.794 183.12 281.938 182.264C281.083 181.409 279.922 180.928 278.712 180.928C278.712 180.928 270.861 159.924 259.475 133.864C250.391 113.024 244.842 109.736 242.993 109.243L242.294 109.161C242.294 109.161 231.484 116.107 230.908 140.934Z" fill="url(#paint8_radial)"/>
<path d="M194.202 275.344C183.109 269.81 170.879 266.939 158.483 266.959C156.346 266.959 154.003 267 152.317 265.643C150.632 264.287 150.098 260.176 151.208 257.464C154.044 250.64 161.155 246.941 167.32 242.954C173.928 238.651 179.904 233.45 185.077 227.499C188.366 223.676 195.024 217.346 193.791 211.838C192.558 206.33 186.968 205.385 182.529 207.933C169.006 215.661 155.976 223.799 141.836 230.458L135.835 233.253C131.683 240.775 126.381 247.64 122.147 255.203L122.64 255.573C118.818 258.08 122.106 282.373 126.175 286.236C130.245 290.1 172.458 280.852 172.458 280.852C172.869 280.825 173.281 280.825 173.691 280.852C173.756 280.666 173.839 280.487 173.938 280.317C174.373 279.846 174.951 279.528 175.582 279.413C181.46 277.728 187.749 278.961 193.791 280.112C194.695 280.317 195.764 280.441 196.463 279.824C197.984 278.55 196.011 276.248 194.202 275.344Z" fill="url(#paint9_radial)"/>
<path d="M164.566 42.6133L158.442 57.7396L157.908 54.9445C157.908 54.9445 156.14 58.8494 153.879 60.3702C151.619 61.8911 136.287 58.6028 134.396 59.7537C132.505 60.9046 131.971 81.3743 138.301 82.1553C144.631 82.9363 155.154 81.4977 155.154 81.4977C155.154 81.4977 166.909 79.6069 170.444 63.1653C170.444 63.1653 165.142 55.7666 170.444 48.4501C170.444 48.4501 175.253 42.5311 179.282 47.5869C183.31 52.6427 180.186 60.4935 177.268 60.6169C177.268 60.6169 178.131 67.3579 184.995 62.4665C191.859 57.5752 193.462 55.1911 191.325 53.4237C191.325 53.4237 199.916 38.8729 195.23 27.857C190.544 16.8412 184.378 5.98972 180.433 8.9081C176.487 11.8265 178.665 6.60627 166.005 2.57809C153.345 -1.4501 143.357 -0.833539 145.905 4.96212C148.454 10.7578 146.933 8.90809 141.219 9.0314C135.506 9.15472 128.847 12.0731 133.122 16.5945C133.122 16.5945 124.654 19.7595 136.369 25.473L138.835 26.8705C138.835 26.8705 140.973 24.4454 141.589 22.308C141.589 22.308 153.715 28.1447 160.949 23.0479C160.949 23.0479 159.305 26.2129 162.84 26.0895C161.668 28.7565 161.211 31.6828 161.513 34.5802C161.816 37.4777 162.868 40.2463 164.566 42.6133Z" fill="#F58F87"/>
<path d="M164.566 42.6133L158.442 57.7396L157.908 54.9445C157.908 54.9445 156.14 58.8494 153.879 60.3702C151.619 61.8911 136.287 58.6028 134.396 59.7537C132.505 60.9046 131.971 81.3743 138.301 82.1553C144.631 82.9363 155.154 81.4977 155.154 81.4977C155.154 81.4977 166.909 79.6069 170.444 63.1653C170.444 63.1653 165.142 55.7666 170.444 48.4501C170.444 48.4501 175.253 42.5311 179.282 47.5869C183.31 52.6427 180.186 60.4935 177.268 60.6169C177.268 60.6169 178.131 67.3579 184.995 62.4665C191.859 57.5752 193.462 55.1911 191.325 53.4237C191.325 53.4237 199.916 38.8729 195.23 27.857C190.544 16.8412 184.378 5.98972 180.433 8.9081C176.487 11.8265 178.665 6.60627 166.005 2.57809C153.345 -1.4501 143.357 -0.833539 145.905 4.96212C148.454 10.7578 146.933 8.90809 141.219 9.0314C135.506 9.15472 128.847 12.0731 133.122 16.5945C133.122 16.5945 124.654 19.7595 136.369 25.473L138.835 26.8705C138.835 26.8705 140.973 24.4454 141.589 22.308C141.589 22.308 153.715 28.1447 160.949 23.0479C160.949 23.0479 159.305 26.2129 162.84 26.0895C161.668 28.7565 161.211 31.6828 161.513 34.5802C161.816 37.4777 162.868 40.2463 164.566 42.6133Z" fill="url(#paint10_radial)"/>
<path d="M151.125 94.651V92.0203L137.479 102.132C137.479 102.132 143.151 116.559 151.125 120.588C159.1 124.616 158.565 129.713 158.565 129.713C158.565 129.713 162.593 111.298 170.198 120.999C170.198 120.999 173.979 112.86 157.784 106.982C157.784 106.982 149.235 101.515 151.125 94.651Z" fill="#F8FCFA"/>
<path d="M151.125 94.651V92.0203L137.479 102.132C137.479 102.132 143.151 116.559 151.125 120.588C159.1 124.616 158.565 129.713 158.565 129.713C158.565 129.713 162.593 111.298 170.198 120.999C170.198 120.999 173.979 112.86 157.784 106.982C157.784 106.982 149.235 101.515 151.125 94.651Z" fill="url(#paint11_radial)"/>
<path d="M168.677 130.905C168.677 130.905 177.596 125.767 174.76 119.149C171.924 112.531 181.953 111.709 187.461 106.612C192.969 101.515 190.503 87.4577 190.503 87.4577L202.259 91.6092C202.259 91.6092 201.683 119.683 188.612 124.081C188.612 124.081 179.569 111.175 176.651 118.738C173.733 126.301 182.899 123.3 168.677 130.905Z" fill="#F8FCFA"/>
<path d="M168.677 130.905C168.677 130.905 177.596 125.767 174.76 119.149C171.924 112.531 181.953 111.709 187.461 106.612C192.969 101.515 190.503 87.4577 190.503 87.4577L202.259 91.6092C202.259 91.6092 201.683 119.683 188.612 124.081C188.612 124.081 179.569 111.175 176.651 118.738C173.733 126.301 182.899 123.3 168.677 130.905Z" fill="url(#paint12_radial)"/>
<path d="M116.845 257.011C116.845 257.011 143.521 258.039 167.526 236.336C191.53 214.633 206.986 206.043 206.986 206.043L248.747 188.984C248.747 188.984 258.078 190.382 263.709 189.601C264.613 189.483 265.469 189.123 266.186 188.559C266.902 187.994 267.452 187.247 267.778 186.395C268.066 185.655 268.107 184.956 267.532 184.586C266.956 184.216 272.135 182.531 270.984 179.695C269.834 176.859 269.053 177.681 266.216 177.475L242.869 175.667C242.869 175.667 249.117 173.036 258.242 173.981C267.367 174.927 270.203 168.104 268.847 166.583L268.436 165.884L256.146 166.747L243.65 165.021C242.375 164.841 241.077 164.911 239.828 165.226L228.647 167.939C227.767 168.157 226.95 168.579 226.263 169.172C221.002 173.776 197.038 194.575 193.134 195.52C189.229 196.465 154.948 205.755 154.948 205.755C154.948 205.755 134.889 211.92 130.902 211.139C130.902 211.139 108.87 211.386 116.845 257.011Z" fill="#FDE5E0"/>
<path d="M116.845 257.011C116.845 257.011 143.521 258.039 167.526 236.336C191.53 214.633 206.986 206.043 206.986 206.043L248.747 188.984C248.747 188.984 258.078 190.382 263.709 189.601C264.613 189.483 265.469 189.123 266.186 188.559C266.902 187.994 267.452 187.247 267.778 186.395C268.066 185.655 268.107 184.956 267.532 184.586C266.956 184.216 272.135 182.531 270.984 179.695C269.834 176.859 269.053 177.681 266.216 177.475L242.869 175.667C242.869 175.667 249.117 173.036 258.242 173.981C267.367 174.927 270.203 168.104 268.847 166.583L268.436 165.884L256.146 166.747L243.65 165.021C242.375 164.841 241.077 164.911 239.828 165.226L229.264 167.816C227.985 168.11 226.798 168.718 225.811 169.583C219.687 174.927 196.915 194.616 193.134 195.52C189.352 196.424 154.948 205.755 154.948 205.755C154.948 205.755 134.889 211.92 130.902 211.139C130.902 211.139 108.87 211.386 116.845 257.011Z" fill="url(#paint13_radial)"/>
<path d="M245.089 189.026C245.089 189.026 228.072 193.424 176.445 191.081L151.577 192.93C151.577 192.93 144.014 195.808 143.069 200.165C142.124 204.522 137.438 205.837 137.479 209.084V210.4L144.713 208.961L154.167 206.166L160.333 204.316C160.333 204.316 166.58 202.631 174.76 206.988C182.94 211.345 231.853 233.664 261.284 230.499C290.714 227.334 294.866 221.415 292.4 214.592C289.933 207.769 289.851 204.316 289.851 204.316C289.851 204.316 263.216 188.121 245.089 189.026Z" fill="#FDE5E0"/>
<path d="M245.089 189.026C245.089 189.026 228.072 193.424 176.445 191.081L151.577 192.93C151.577 192.93 144.014 195.808 143.069 200.165C142.124 204.522 137.438 205.837 137.479 209.084V210.4L144.713 208.961L154.167 206.166L160.333 204.316C160.333 204.316 166.58 202.631 174.76 206.988C182.94 211.345 231.853 233.664 261.284 230.499C290.714 227.334 294.866 221.415 292.4 214.592C289.933 207.769 289.851 204.316 289.851 204.316C289.851 204.316 263.216 188.121 245.089 189.026Z" fill="url(#paint14_radial)"/>
<path d="M266.216 177.475L242.869 175.667C242.869 175.667 249.117 173.036 258.242 173.981C267.367 174.927 270.203 168.104 268.847 166.583L268.436 165.884L256.146 166.747L243.65 165.021C242.375 164.841 241.077 164.911 239.828 165.226L227.784 168.145L238.636 183.518L251.255 182.449L267.532 184.586C267.532 184.586 272.135 182.531 270.984 179.695C269.834 176.859 269.053 177.681 266.216 177.475Z" fill="url(#paint15_radial)"/>
<path d="M110.843 210.276C107.35 214.428 104.76 219.319 100.691 222.936C100.497 223.124 100.263 223.265 100.007 223.351C99.7508 223.436 99.4789 223.463 99.2111 223.43C97.8957 223.265 97.6902 221.95 97.6902 220.881C97.7313 213.894 100.156 207.029 99.3343 200.083C98.7589 194.821 96.2926 189.683 97.0736 184.463C97.8546 179.243 101.718 174.968 101.883 169.789C102.047 165.391 99.5399 161.486 97.6491 157.499C97.8944 159.902 97.963 162.32 97.8546 164.733C97.0736 174.146 87.9897 176.119 93.2921 189.971C98.5945 203.823 95.7994 218.744 95.7994 218.744C95.7994 218.744 96.0461 220.141 90.9903 226.718C85.9345 233.295 101.883 247.722 101.883 247.722C101.883 247.722 98.8411 249.49 99.6221 253.024C100.403 256.559 112.241 259.354 115.529 258.08C117.091 257.505 117.461 255.861 117.42 254.34L117.173 253.888C116.598 253.189 115.612 252.983 114.707 252.819H114.625C112.013 252.318 109.687 250.851 108.109 248.71C106.532 246.569 105.821 243.911 106.116 241.269C106.281 239.542 106.528 237.816 106.774 236.131L102.499 244.886C100.321 241.228 100.567 236.46 102.171 232.473C103.774 228.485 106.486 225.074 109.199 221.744L123.956 203.618C118.859 203.083 114.173 206.413 110.843 210.276Z" fill="url(#paint16_radial)"/>
<path d="M157.291 39.4895C151.002 33.8582 137.027 36.6122 137.027 36.6122C136.205 41.7502 135.259 48.2857 134.766 54.739L150.427 55.2323C150.427 55.2323 163.539 45.1207 157.291 39.4895Z" fill="url(#paint17_radial)"/>
<defs>
<linearGradient id="paint0_linear" x1="185" y1="91" x2="185" y2="350.5" gradientUnits="userSpaceOnUse">
<stop stop-color="#F5F3F3"/>
<stop offset="1" stop-color="white" stop-opacity="0.52"/>
</linearGradient>
<radialGradient id="paint1_radial" cx="0" cy="0" r="1" gradientUnits="userSpaceOnUse" gradientTransform="translate(153.953 239.493) scale(162.887)">
<stop offset="0.1" stop-color="#3F62A3"/>
<stop offset="0.24" stop-color="#4365A5"/>
<stop offset="0.38" stop-color="#4F70AA"/>
<stop offset="0.52" stop-color="#6381B4"/>
<stop offset="0.65" stop-color="#7E99C1"/>
<stop offset="0.79" stop-color="#A2B8D2"/>
<stop offset="0.92" stop-color="#CDDDE6"/>
<stop offset="1" stop-color="#EAF6F4"/>
</radialGradient>
<radialGradient id="paint2_radial" cx="0" cy="0" r="1" gradientUnits="userSpaceOnUse" gradientTransform="translate(199149 108960) scale(45812.5 43529.5)">
<stop offset="0.15" stop-color="#292B68" stop-opacity="0"/>
<stop offset="0.26" stop-color="#2C3270" stop-opacity="0.87"/>
<stop offset="0.46" stop-color="#334583" stop-opacity="0.54"/>
<stop offset="0.74" stop-color="#3F62A3" stop-opacity="0"/>
</radialGradient>
<radialGradient id="paint3_radial" cx="0" cy="0" r="1" gradientUnits="userSpaceOnUse" gradientTransform="translate(103742 89871.9) scale(21935.6 29587)">
<stop offset="0.15" stop-color="#292B68"/>
<stop offset="0.26" stop-color="#2C3270" stop-opacity="0.87"/>
<stop offset="0.46" stop-color="#334583" stop-opacity="0.54"/>
<stop offset="0.74" stop-color="#3F62A3" stop-opacity="0"/>
</radialGradient>
<radialGradient id="paint4_radial" cx="0" cy="0" r="1" gradientUnits="userSpaceOnUse" gradientTransform="translate(73406 90479.3) scale(11531 19521.3)">
<stop offset="0.15" stop-color="#292B68"/>
<stop offset="0.26" stop-color="#2C3270" stop-opacity="0.87"/>
<stop offset="0.46" stop-color="#334583" stop-opacity="0.54"/>
<stop offset="0.74" stop-color="#3F62A3" stop-opacity="0"/>
</radialGradient>
<radialGradient id="paint5_radial" cx="0" cy="0" r="1" gradientUnits="userSpaceOnUse" gradientTransform="translate(171.455 100.792) scale(18.8174)">
<stop offset="0.04" stop-color="#CCECFA"/>
<stop offset="1" stop-color="#CCECFA"/>
</radialGradient>
<radialGradient id="paint6_radial" cx="0" cy="0" r="1" gradientUnits="userSpaceOnUse" gradientTransform="translate(200.549 90.1048) scale(58.7951)">
<stop offset="0.1" stop-color="#F8AEA4"/>
<stop offset="0.27" stop-color="#F8AEA4" stop-opacity="0.71"/>
<stop offset="0.44" stop-color="#F8AEA4" stop-opacity="0.46"/>
<stop offset="0.6" stop-color="#F8AEA4" stop-opacity="0.26"/>
<stop offset="0.73" stop-color="#F8AEA4" stop-opacity="0.12"/>
<stop offset="0.84" stop-color="#F8AEA4" stop-opacity="0.03"/>
<stop offset="0.91" stop-color="#F8AEA4" stop-opacity="0"/>
</radialGradient>
<radialGradient id="paint7_radial" cx="0" cy="0" r="1" gradientUnits="userSpaceOnUse" gradientTransform="translate(124.4 218.115) scale(60.5708)">
<stop stop-color="#37B4A8"/>
<stop offset="0.21" stop-color="#38B4A8" stop-opacity="0.99"/>
<stop offset="0.34" stop-color="#3BB5A9" stop-opacity="0.94"/>
<stop offset="0.45" stop-color="#41B7AA" stop-opacity="0.86"/>
<stop offset="0.55" stop-color="#48BAAB" stop-opacity="0.75"/>
<stop offset="0.63" stop-color="#52BDAD" stop-opacity="0.6"/>
<stop offset="0.72" stop-color="#5FC1B0" stop-opacity="0.42"/>
<stop offset="0.79" stop-color="#6DC5B2" stop-opacity="0.21"/>
<stop offset="0.85" stop-color="#7BCAB5" stop-opacity="0"/>
</radialGradient>
<radialGradient id="paint8_radial" cx="0" cy="0" r="1" gradientUnits="userSpaceOnUse" gradientTransform="translate(75482.6 52894.4) scale(13910.2 20659.3)">
<stop stop-color="#37B4A8"/>
<stop offset="0.21" stop-color="#38B4A8" stop-opacity="0.99"/>
<stop offset="0.34" stop-color="#3BB5A9" stop-opacity="0.94"/>
<stop offset="0.45" stop-color="#41B7AA" stop-opacity="0.86"/>
<stop offset="0.55" stop-color="#48BAAB" stop-opacity="0.75"/>
<stop offset="0.63" stop-color="#52BDAD" stop-opacity="0.6"/>
<stop offset="0.72" stop-color="#5FC1B0" stop-opacity="0.42"/>
<stop offset="0.79" stop-color="#6DC5B2" stop-opacity="0.21"/>
<stop offset="0.85" stop-color="#7BCAB5" stop-opacity="0"/>
</radialGradient>
<radialGradient id="paint9_radial" cx="0" cy="0" r="1" gradientUnits="userSpaceOnUse" gradientTransform="translate(83141.6 57424.4) scale(17384 18420.3)">
<stop stop-color="#37B4A8"/>
<stop offset="0.21" stop-color="#38B4A8" stop-opacity="0.99"/>
<stop offset="0.34" stop-color="#3BB5A9" stop-opacity="0.94"/>
<stop offset="0.45" stop-color="#41B7AA" stop-opacity="0.86"/>
<stop offset="0.55" stop-color="#48BAAB" stop-opacity="0.75"/>
<stop offset="0.63" stop-color="#52BDAD" stop-opacity="0.6"/>
<stop offset="0.72" stop-color="#5FC1B0" stop-opacity="0.42"/>
<stop offset="0.79" stop-color="#6DC5B2" stop-opacity="0.21"/>
<stop offset="0.85" stop-color="#7BCAB5" stop-opacity="0"/>
</radialGradient>
<radialGradient id="paint10_radial" cx="0" cy="0" r="1" gradientUnits="userSpaceOnUse" gradientTransform="translate(196.377 53.6744) scale(64.7223)">
<stop stop-color="#C87680" stop-opacity="0.91"/>
<stop offset="0.17" stop-color="#CF7A81" stop-opacity="0.76"/>
<stop offset="0.54" stop-color="#E28584" stop-opacity="0.38"/>
<stop offset="0.88" stop-color="#F58F87" stop-opacity="0"/>
</radialGradient>
<radialGradient id="paint11_radial" cx="0" cy="0" r="1" gradientUnits="userSpaceOnUse" gradientTransform="translate(151.849 91.4942) scale(15.9565)">
<stop offset="0.04" stop-color="#CCECFA"/>
<stop offset="1" stop-color="#CCECFA" stop-opacity="0"/>
</radialGradient>
<radialGradient id="paint12_radial" cx="0" cy="0" r="1" gradientUnits="userSpaceOnUse" gradientTransform="translate(42306.6 20341.9) scale(1523.95 1971.62)">
<stop offset="0.04" stop-color="#CCECFA"/>
<stop offset="1" stop-color="#CCECFA" stop-opacity="0"/>
</radialGradient>
<radialGradient id="paint13_radial" cx="0" cy="0" r="1" gradientUnits="userSpaceOnUse" gradientTransform="translate(203422 70044.2) scale(31022.1 18308.6)">
<stop offset="0.1" stop-color="#F8AEA4"/>
<stop offset="0.27" stop-color="#F8AEA4" stop-opacity="0.71"/>
<stop offset="0.44" stop-color="#F8AEA4" stop-opacity="0.46"/>
<stop offset="0.6" stop-color="#F8AEA4" stop-opacity="0.26"/>
<stop offset="0.73" stop-color="#F8AEA4" stop-opacity="0.12"/>
<stop offset="0.84" stop-color="#F8AEA4" stop-opacity="0.03"/>
<stop offset="0.91" stop-color="#F8AEA4" stop-opacity="0"/>
</radialGradient>
<radialGradient id="paint14_radial" cx="0" cy="0" r="1" gradientUnits="userSpaceOnUse" gradientTransform="translate(249412 30120) scale(35555.3 9560.09)">
<stop offset="0.1" stop-color="#F8AEA4"/>
<stop offset="0.27" stop-color="#F8AEA4" stop-opacity="0.71"/>
<stop offset="0.44" stop-color="#F8AEA4" stop-opacity="0.46"/>
<stop offset="0.6" stop-color="#F8AEA4" stop-opacity="0.26"/>
<stop offset="0.73" stop-color="#F8AEA4" stop-opacity="0.12"/>
<stop offset="0.84" stop-color="#F8AEA4" stop-opacity="0.03"/>
<stop offset="0.91" stop-color="#F8AEA4" stop-opacity="0"/>
</radialGradient>
<radialGradient id="paint15_radial" cx="0" cy="0" r="1" gradientUnits="userSpaceOnUse" gradientTransform="translate(60808 12369.2) scale(2679.46 1214.37)">
<stop offset="0.1" stop-color="#F8AEA4"/>
<stop offset="0.27" stop-color="#F8AEA4" stop-opacity="0.71"/>
<stop offset="0.44" stop-color="#F8AEA4" stop-opacity="0.46"/>
<stop offset="0.6" stop-color="#F8AEA4" stop-opacity="0.26"/>
<stop offset="0.73" stop-color="#F8AEA4" stop-opacity="0.12"/>
<stop offset="0.84" stop-color="#F8AEA4" stop-opacity="0.03"/>
<stop offset="0.91" stop-color="#F8AEA4" stop-opacity="0"/>
</radialGradient>
<radialGradient id="paint16_radial" cx="0" cy="0" r="1" gradientUnits="userSpaceOnUse" gradientTransform="translate(34337.3 85232) scale(11102.8 32990.6)">
<stop stop-color="#37B4A8"/>
<stop offset="0.21" stop-color="#38B4A8" stop-opacity="0.99"/>
<stop offset="0.34" stop-color="#3BB5A9" stop-opacity="0.94"/>
<stop offset="0.45" stop-color="#41B7AA" stop-opacity="0.86"/>
<stop offset="0.55" stop-color="#48BAAB" stop-opacity="0.75"/>
<stop offset="0.63" stop-color="#52BDAD" stop-opacity="0.6"/>
<stop offset="0.72" stop-color="#5FC1B0" stop-opacity="0.42"/>
<stop offset="0.79" stop-color="#6DC5B2" stop-opacity="0.21"/>
<stop offset="0.85" stop-color="#7BCAB5" stop-opacity="0"/>
</radialGradient>
<radialGradient id="paint17_radial" cx="0" cy="0" r="1" gradientUnits="userSpaceOnUse" gradientTransform="translate(28293.8 4180.74) scale(1493.18 1189.82)">
<stop offset="0.1" stop-color="#F8AEA4"/>
<stop offset="0.27" stop-color="#F8AEA4" stop-opacity="0.71"/>
<stop offset="0.44" stop-color="#F8AEA4" stop-opacity="0.46"/>
<stop offset="0.6" stop-color="#F8AEA4" stop-opacity="0.26"/>
<stop offset="0.73" stop-color="#F8AEA4" stop-opacity="0.12"/>
<stop offset="0.84" stop-color="#F8AEA4" stop-opacity="0.03"/>
<stop offset="0.91" stop-color="#F8AEA4" stop-opacity="0"/>
</radialGradient>
</defs>
</svg>
