<svg width="100%" height="100%" viewBox="0 0 1509 1614" fill="none" xmlns="http://www.w3.org/2000/svg">
<path fill-rule="evenodd" clip-rule="evenodd" d="M826.287 910.856C455.069 648.7 216.693 155.296 417.258 -252.507C627.276 -679.531 1152.2 -772.027 1624.21 -711.542C2175.34 -640.919 2921.18 -488.041 2915.05 67.5636C2909.34 585.59 2090.24 395.767 1609.86 589.712C1320.48 706.544 1081.21 1090.88 826.287 910.856Z" fill="url(#paint0_linear)"/>
<path d="M862.09 618.892H784.167C780.925 618.89 777.781 617.785 775.25 615.759C772.72 613.733 770.954 610.906 770.244 607.743L753.263 532.056C752.795 529.97 752.803 527.805 753.285 525.723C753.766 523.64 754.711 521.692 756.047 520.023C757.383 518.354 759.078 517.007 761.005 516.082C762.932 515.156 765.042 514.676 767.18 514.676" stroke="#6562CF" stroke-width="5" stroke-miterlimit="10" stroke-linecap="round"/>
<path d="M1005.82 618.892H927.894C924.652 618.89 921.508 617.785 918.977 615.759C916.447 613.733 914.681 610.906 913.971 607.743L896.99 532.056C896.522 529.97 896.53 527.805 897.012 525.723C897.494 523.64 898.438 521.692 899.774 520.023C901.11 518.354 902.805 517.007 904.732 516.082C906.659 515.156 908.77 514.676 910.908 514.676" stroke="#6562CF" stroke-width="5" stroke-miterlimit="10" stroke-linecap="round"/>
<path d="M920.53 541.379H788.29C783.477 541.379 778.806 539.75 775.036 536.758C771.267 533.765 768.621 529.585 767.53 524.898L748.474 443.056C747.853 440.389 747.842 437.616 748.443 434.944C749.044 432.272 750.24 429.77 751.944 427.625C753.647 425.48 755.812 423.748 758.278 422.557C760.745 421.366 763.448 420.748 766.187 420.748H898.433C903.245 420.748 907.915 422.377 911.684 425.37C915.452 428.362 918.097 432.542 919.187 437.23L938.243 519.087C938.86 521.754 938.868 524.525 938.265 527.194C937.663 529.864 936.465 532.363 934.763 534.505C933.06 536.648 930.896 538.379 928.432 539.569C925.968 540.759 923.267 541.378 920.53 541.379Z" fill="white" stroke="#6562CF" stroke-width="5" stroke-miterlimit="10" stroke-linecap="round"/>
<path d="M1009.81 600.013H797.724C792.511 600.013 788.284 604.239 788.284 609.452C788.284 614.665 792.511 618.891 797.724 618.891H1009.81C1015.03 618.891 1019.25 614.665 1019.25 609.452C1019.25 604.239 1015.03 600.013 1009.81 600.013Z" fill="#EAEEFF" stroke="#6562CF" stroke-width="5" stroke-miterlimit="10" stroke-linecap="round"/>
<path d="M772.513 833.495L798.845 637.26C799.35 626.966 807.463 618.892 817.302 618.892H862.806C872.645 618.892 880.758 626.966 881.269 637.26L907.6 833.495" stroke="#6562CF" stroke-width="5" stroke-miterlimit="10" stroke-linecap="round"/>
<path d="M939.747 618.892H983.931C993.481 618.892 1001.36 626.966 1001.86 637.26L1027.91 833.495" stroke="#6562CF" stroke-width="5" stroke-miterlimit="10" stroke-linecap="round"/>
<path d="M1148.25 424.439C1151.12 426.331 1157.77 440.426 1157.89 442.124C1158.01 443.822 1150.37 456.442 1150.37 456.442C1150.37 456.442 1147.34 456.508 1146.76 449.566C1146.05 441.347 1142.45 438.234 1137.22 437.063C1135.03 436.575 1131.02 438.24 1130.73 441.458C1130.45 444.677 1138.76 446.813 1140.43 448.767C1142.97 451.719 1141.54 455.881 1141.54 455.981C1141.54 455.981 1128.71 452.096 1126.25 451.375C1124.03 450.715 1114.12 441.703 1107.94 432.768C1105.64 434.453 1103.23 435.982 1100.72 437.346C1085.18 445.704 1031.91 465.143 1004.31 460.737C976.6 456.297 998.736 368.063 998.736 368.063C1038.87 369.917 1055.67 364.806 1058.74 363.724L1052.5 404.511C1069.37 404.012 1110.87 410.887 1110.89 410.893C1122.55 412.424 1144.12 421.725 1148.25 424.439Z" fill="#F1921B"/>
<path d="M998.542 368.024H998.781C1038.91 369.877 1055.72 364.766 1058.78 363.684L1057.31 373.673C1057.31 373.673 1027.54 387.69 994.425 386.436L998.542 368.024Z" fill="#EB7200"/>
<path d="M1002.57 479.554C1012.1 478.855 1029.38 367.913 1029.38 367.913C1050.66 368.224 1076.39 358.296 1076.39 358.296C1076.39 358.296 1058.8 300.627 1052.73 288.735C1046.67 276.843 1003.13 256.283 997.987 254.796L913.116 235.373C913.116 235.373 840.67 253.369 817.823 271.838C794.977 290.306 777.125 368.207 777.125 368.207C819.083 385.127 862.584 382.635 862.584 382.635L847.795 471.774C843.006 493.416 827.707 562.128 854.682 595.49C854.682 595.49 876.385 488.821 1002.57 479.554Z" fill="#EAEEFF"/>
<path d="M946.789 263.913L921.407 279.401L889.221 241.977L913.382 227.504C914.086 227.085 914.867 226.809 915.678 226.694C916.489 226.579 917.315 226.626 918.108 226.832C918.901 227.039 919.645 227.401 920.297 227.897C920.949 228.393 921.496 229.014 921.906 229.724L946.789 263.913Z" fill="#DBDAFF"/>
<path d="M985.39 267.464L1003.25 278.008L1002.39 256.577L997.987 254.795C997.987 254.795 990.141 260.056 985.39 267.464Z" fill="#DBDAFF"/>
<path d="M862.584 382.624C866.025 371.353 869.465 344.128 869.465 344.128" stroke="#C7BFFF" stroke-width="5" stroke-linejoin="round"/>
<path d="M921.407 279.401L946.312 264.856C946.312 264.856 970.207 293.286 970.873 298.258C971.539 303.23 972.793 353.934 972.793 353.934H985.39" stroke="#C7BFFF" stroke-width="5" stroke-linejoin="round"/>
<path d="M1002.78 277.986L985.862 268.408C985.862 268.408 970.518 292.681 970.879 298.258" stroke="#C7BFFF" stroke-width="5" stroke-linejoin="round"/>
<path d="M865.286 371.425C865.286 371.425 811.658 373.018 780.138 356.226" stroke="#C7BFFF" stroke-width="5" stroke-linejoin="round"/>
<path d="M1025.73 459.249C1025.73 461.796 999.574 460.87 995.89 460.87C992.205 460.87 969.125 461.746 963.704 460.87C934.231 463.295 802.774 472.851 787.485 451.602C769.788 426.997 785.598 371.337 785.598 371.337C825.304 385.127 862.584 382.619 862.584 382.619L859.327 403.756C890.841 407.641 947.711 427.618 967.044 434.616C971.19 433.289 986.972 428.512 994.963 430.332C1004.21 432.413 1015.31 440.737 1016.47 443.051C1017.62 445.365 1025.73 456.708 1025.73 459.249Z" fill="#F1921B"/>
<path d="M995.873 460.869C999.558 460.869 1025.72 461.796 1025.72 459.255C1025.72 456.713 1017.62 445.381 1016.47 443.067C1015.31 440.753 1004.21 432.429 994.963 430.348C994.963 430.348 1006.38 446.203 995.873 460.869Z" fill="#EB7200"/>
<path d="M785.576 371.354C785.576 371.354 826.214 385.649 862.584 382.624L859.327 403.756C859.327 403.756 810.792 395.987 783.856 378.407L785.576 371.354Z" fill="#EB7200"/>
<path d="M1137.16 835.492H1047.3C1047.21 834.122 1047.18 832.812 1047.2 831.552H1137.28C1137.37 832.866 1137.33 834.187 1137.16 835.492Z" fill="#3F4D79"/>
<path d="M1056.45 795.26C1056.78 805.06 1047.3 811.27 1047.3 831.525H1137.16C1137.16 831.525 1138.46 814.533 1120.51 810.615C1102.56 806.697 1086.2 801.464 1084.57 795.26H1056.45Z" fill="#FFB000"/>
<path d="M1085.18 813.567L1093.39 801.425" stroke="#3F4D79" stroke-width="5" stroke-miterlimit="10" stroke-linecap="round"/>
<path d="M1091.58 815.043L1099.3 803.889" stroke="#3F4D79" stroke-width="5" stroke-miterlimit="10" stroke-linecap="round"/>
<path d="M1099.95 815.537L1106.19 805.365" stroke="#3F4D79" stroke-width="5" stroke-miterlimit="10" stroke-linecap="round"/>
<path d="M959.819 487.406C959.819 487.406 1096.96 478.827 1130.29 518.038C1163.62 557.25 1098.93 697.093 1092.39 782.047C1092.39 782.047 1059.57 785.316 1046.25 782.047C1032.93 778.778 1021.33 633.536 1054.9 593.67C1054.9 593.67 927.267 623.031 877.495 586.001C827.723 548.97 939.115 488.105 959.819 487.406Z" fill="#3C4564"/>
<path d="M1084.56 795.26C1075.44 798.34 1065.57 798.34 1056.46 795.26L1053.8 783.14C1053.8 783.14 1071.26 784.023 1087.21 782.497L1084.56 795.26Z" fill="#F1921B"/>
<path d="M1340.22 699.423L1268.94 754.134C1267.93 752.902 1267.02 751.698 1266.2 750.521L1337.2 696.027C1338.33 697.04 1339.35 698.179 1340.22 699.423Z" fill="#3F4D79"/>
<path d="M1251.16 716.343C1257.39 723.923 1253.65 734.617 1265.99 750.688L1337.27 695.977C1337.27 695.977 1327.95 681.704 1311.31 689.534C1294.67 697.364 1278.53 703.169 1273.45 699.235L1251.16 716.343Z" fill="#FFB000"/>
<path d="M1285.29 712.508L1284.4 698.363" stroke="#3F4D79" stroke-width="5" stroke-miterlimit="10" stroke-linecap="round"/>
<path d="M1290.7 709.063L1289.82 696.394" stroke="#3F4D79" stroke-width="5" stroke-miterlimit="10" stroke-linecap="round"/>
<path d="M1296.12 705.616L1295.24 694.423" stroke="#3F4D79" stroke-width="5" stroke-miterlimit="10" stroke-linecap="round"/>
<path d="M854.682 589.941C856.735 601.006 973.437 627.82 1097.62 549.431C1097.62 549.431 1105.78 643.991 1231.26 712.581C1231.26 712.581 1258.56 702.725 1270.83 681.066C1270.83 681.066 1188.98 585.346 1157.46 497.445C1144.23 460.536 977.727 479.859 953.382 487.406C929.037 494.953 845.531 540.624 854.682 589.941Z" fill="#3F4D79"/>
<path d="M1273.45 699.235C1273.45 699.235 1268.07 715.794 1251.16 716.344L1240.14 708.53C1250.11 703.436 1258.97 696.427 1266.22 687.903L1273.45 699.235Z" fill="#F1921B"/>
<path d="M961.917 204.869C961.917 204.869 956.728 218.509 923.072 231.505C923.072 231.505 946.756 263.924 970.846 294.385C970.846 294.385 980.501 266.399 997.954 254.807L961.917 204.869Z" fill="#F1921B"/>
<path d="M997.987 254.796C992.843 258.309 988.509 263.053 984.924 268.114C973.826 259.79 961.345 245.179 957.649 234.58C955.824 229.336 960.657 215.157 963.459 206.966L997.987 254.796Z" fill="#EB7200"/>
<path d="M961.24 207.532C961.24 211.971 957.383 225.639 962.05 231.122C970.585 241.15 995.035 257.204 1007.06 256.532C1015.63 256.072 1027.76 218.902 1029.57 213.347C1031.38 207.793 1039.2 185.518 1033.65 179.563C1028.1 173.609 981.711 160.579 972.494 179.769C962.277 201.039 961.24 207.532 961.24 207.532Z" fill="#F1921B"/>
<path d="M1052.73 166.645C1048.18 196.45 1028.76 200.346 990.523 177.96C973.004 167.71 985.39 186.068 975.54 202.005L972.322 203.204C972.427 201.6 972.655 194.974 969.358 194.958C964.503 194.958 963.01 202.305 962.544 206.839L960.679 207.532C960.679 207.532 960.479 174.309 965.191 163.748C976.844 137.605 1010.53 151.728 1018.79 156.173C1044.86 170.185 1052.73 166.645 1052.73 166.645Z" fill="#FFB000"/>
<path d="M989.663 175.679C1016.85 197.144 1038.22 202.233 1048.83 189.614" stroke="#FFB000" stroke-width="4" stroke-miterlimit="10"/>
<path d="M966.983 185.443L966.93 185.427C960.421 183.576 953.643 187.351 951.792 193.86L950.283 199.165C948.431 205.674 952.206 212.452 958.715 214.303L958.769 214.319C965.277 216.17 972.055 212.395 973.906 205.886L975.416 200.581C977.267 194.072 973.492 187.294 966.983 185.443Z" fill="white" stroke="#3F4D79" stroke-width="5" stroke-miterlimit="10" stroke-linecap="round"/>
<path d="M975.867 198.986L973.437 207.532C972.668 210.229 970.861 212.51 968.411 213.874C965.962 215.238 963.071 215.574 960.374 214.807L957.088 213.869C956.944 213.831 956.805 213.786 956.661 213.736C959.313 214.379 962.111 213.968 964.466 212.591C966.821 211.213 968.551 208.976 969.291 206.35L971.722 197.804C972.474 195.183 972.18 192.372 970.903 189.962C969.627 187.552 967.465 185.73 964.874 184.88L965.307 184.991L968.576 185.912C969.916 186.287 971.169 186.923 972.262 187.785C973.355 188.646 974.267 189.715 974.944 190.93C975.622 192.146 976.053 193.483 976.211 194.866C976.37 196.249 976.253 197.649 975.867 198.986Z" fill="white" stroke="#3F4D79" stroke-width="5" stroke-miterlimit="10" stroke-linecap="round"/>
<path d="M965.307 184.974L975.296 149.903C975.736 148.355 976.477 146.909 977.476 145.647C978.474 144.385 979.712 143.333 981.118 142.549C982.524 141.766 984.07 141.267 985.669 141.082C987.267 140.896 988.887 141.027 990.434 141.468L1025.95 151.567C1030.35 152.816 1032.34 156.284 1031.09 160.685" stroke="#3F4D79" stroke-width="5" stroke-miterlimit="10" stroke-linecap="round"/>
<path d="M1131.24 462.268H975.529C968.42 462.268 963.914 455.16 967.344 449.355L1020.06 360.194C1024.65 352.425 1033.38 347.62 1042.9 347.62H1198.62C1205.73 347.62 1210.23 354.728 1206.8 360.533L1154.08 449.694C1149.48 457.452 1140.74 462.268 1131.24 462.268Z" fill="#EAEEFF"/>
<path d="M1129.71 465.132H980.396C973.432 465.132 969.02 458.168 972.383 452.48L1024.03 365.128C1028.53 357.526 1037.1 352.809 1046.41 352.809H1195.73C1202.69 352.809 1207.1 359.773 1203.74 365.461L1152.09 452.807C1147.6 460.41 1139.02 465.132 1129.71 465.132Z" fill="#C0C1FF"/>
<path d="M1131.24 462.268H975.529C968.42 462.268 963.914 455.16 967.344 449.355L1020.06 360.194C1024.65 352.425 1033.38 347.62 1042.9 347.62H1198.62C1205.73 347.62 1210.23 354.728 1206.8 360.533L1154.08 449.694C1149.48 457.452 1140.74 462.268 1131.24 462.268Z" stroke="#6562CF" stroke-width="5" stroke-miterlimit="10"/>
<path d="M1133.34 462.385H849.005C846.007 462.385 843.578 464.815 843.578 467.812V469.011C843.578 472.008 846.007 474.438 849.005 474.438H1133.34C1136.33 474.438 1138.76 472.008 1138.76 469.011V467.812C1138.76 464.815 1136.33 462.385 1133.34 462.385Z" fill="#D1D1FF" stroke="#6562CF" stroke-width="6" stroke-miterlimit="10"/>
<defs>
<linearGradient id="paint0_linear" x1="746.348" y1="856.617" x2="3033.99" y2="-914.706" gradientUnits="userSpaceOnUse">
<stop stop-color="#FCF089"/>
<stop offset="0.89375" stop-color="#B40000"/>
</linearGradient>
</defs>
</svg>
