<svg width="596" height="698" viewBox="0 0 596 698" fill="none" xmlns="http://www.w3.org/2000/svg">
<path d="M117.09 480.892H39.1668C35.9251 480.89 32.7806 479.785 30.2502 477.759C27.7198 475.733 25.9541 472.906 25.2436 469.743L8.26265 394.056C7.79514 391.97 7.80263 389.805 8.28456 387.723C8.76648 385.64 9.71052 383.692 11.0468 382.023C12.3831 380.354 14.0775 379.007 16.0047 378.082C17.9318 377.156 20.0424 376.676 22.1803 376.676" stroke="#6562CF" stroke-width="5" stroke-miterlimit="10" stroke-linecap="round"/>
<path d="M260.818 480.892H182.894C179.652 480.89 176.508 479.785 173.977 477.759C171.447 475.733 169.681 472.906 168.971 469.743L151.99 394.056C151.522 391.97 151.53 389.805 152.012 387.723C152.494 385.64 153.438 383.692 154.774 382.023C156.11 380.354 157.805 379.007 159.732 378.082C161.659 377.156 163.77 376.676 165.908 376.676" stroke="#6562CF" stroke-width="5" stroke-miterlimit="10" stroke-linecap="round"/>
<path d="M175.53 403.379H43.2899C38.477 403.379 33.8058 401.75 30.0364 398.758C26.267 395.765 23.6213 391.585 22.5299 386.898L3.47359 305.056C2.85263 302.389 2.84218 299.616 3.44302 296.944C4.04386 294.272 5.24048 291.77 6.94354 289.625C8.64661 287.48 10.8121 285.748 13.2785 284.557C15.7448 283.366 18.4483 282.748 21.187 282.748H153.433C158.245 282.748 162.915 284.377 166.684 287.37C170.452 290.362 173.097 294.542 174.187 299.23L193.243 381.087C193.86 383.754 193.868 386.525 193.265 389.194C192.663 391.864 191.465 394.363 189.763 396.505C188.06 398.648 185.896 400.379 183.432 401.569C180.968 402.759 178.267 403.378 175.53 403.379Z" fill="white" stroke="#6562CF" stroke-width="5" stroke-miterlimit="10" stroke-linecap="round"/>
<path d="M264.813 462.013H52.7238C47.5106 462.013 43.2844 466.239 43.2844 471.452C43.2844 476.665 47.5106 480.891 52.7238 480.891H264.813C270.026 480.891 274.252 476.665 274.252 471.452C274.252 466.239 270.026 462.013 264.813 462.013Z" fill="#EAEEFF" stroke="#6562CF" stroke-width="5" stroke-miterlimit="10" stroke-linecap="round"/>
<path d="M27.5132 695.495L53.8447 499.26C54.3497 488.966 62.4628 480.892 72.3017 480.892H117.806C127.645 480.892 135.758 488.966 136.269 499.26L162.6 695.495" stroke="#6562CF" stroke-width="5" stroke-miterlimit="10" stroke-linecap="round"/>
<path d="M194.747 480.892H238.931C248.481 480.892 256.361 488.966 256.855 499.26L282.909 695.495" stroke="#6562CF" stroke-width="5" stroke-miterlimit="10" stroke-linecap="round"/>
<path d="M403.246 286.439C406.115 288.331 412.769 302.426 412.891 304.124C413.013 305.822 405.371 318.442 405.371 318.442C405.371 318.442 402.336 318.508 401.759 311.566C401.054 303.347 397.447 300.234 392.22 299.063C390.033 298.575 386.015 300.24 385.732 303.458C385.449 306.677 393.762 308.813 395.433 310.767C397.969 313.719 396.542 317.881 396.542 317.981C396.542 317.981 383.712 314.096 381.249 313.375C379.029 312.715 369.118 303.703 362.936 294.768C360.636 296.453 358.226 297.982 355.722 299.346C340.184 307.704 286.91 327.143 259.314 322.737C231.6 318.297 253.736 230.063 253.736 230.063C293.869 231.917 310.672 226.806 313.736 225.724L307.504 266.511C324.368 266.012 365.866 272.887 365.888 272.893C377.547 274.424 399.123 283.725 403.246 286.439Z" fill="#F1921B"/>
<path d="M253.542 230.024H253.781C293.913 231.877 310.717 226.766 313.78 225.684L312.309 235.673C312.309 235.673 282.537 249.69 249.425 248.436L253.542 230.024Z" fill="#EB7200"/>
<path d="M257.565 341.554C267.099 340.855 284.38 229.913 284.38 229.913C305.661 230.224 331.393 220.296 331.393 220.296C331.393 220.296 313.797 162.627 307.731 150.735C301.666 138.843 258.126 118.283 252.987 116.796L168.116 97.373C168.116 97.373 95.6697 115.369 72.8232 133.838C49.9767 152.306 32.1245 230.207 32.1245 230.207C74.0829 247.127 117.584 244.635 117.584 244.635L102.795 333.774C98.006 355.416 82.7065 424.128 109.682 457.49C109.682 457.49 131.385 350.821 257.565 341.554Z" fill="#EAEEFF"/>
<path d="M201.789 125.913L176.407 141.401L144.221 103.977L168.382 89.504C169.086 89.0846 169.867 88.8093 170.678 88.6939C171.489 88.5786 172.315 88.6255 173.108 88.832C173.901 89.0385 174.645 89.4005 175.297 89.8969C175.949 90.3933 176.496 91.0143 176.906 91.7237L201.789 125.913Z" fill="#DBDAFF"/>
<path d="M240.39 129.464L258.254 140.008L257.393 118.577L252.987 116.795C252.987 116.795 245.141 122.056 240.39 129.464Z" fill="#DBDAFF"/>
<path d="M117.584 244.624C121.025 233.353 124.465 206.128 124.465 206.128" stroke="#C7BFFF" stroke-width="5" stroke-linejoin="round"/>
<path d="M176.407 141.401L201.312 126.856C201.312 126.856 225.207 155.286 225.873 160.258C226.539 165.23 227.793 215.934 227.793 215.934H240.39" stroke="#C7BFFF" stroke-width="5" stroke-linejoin="round"/>
<path d="M257.782 139.986L240.862 130.408C240.862 130.408 225.518 154.681 225.879 160.258" stroke="#C7BFFF" stroke-width="5" stroke-linejoin="round"/>
<path d="M120.286 233.425C120.286 233.425 66.6578 235.018 35.1377 218.226" stroke="#C7BFFF" stroke-width="5" stroke-linejoin="round"/>
<path d="M280.734 321.249C280.734 323.796 254.574 322.87 250.89 322.87C247.205 322.87 224.125 323.746 218.704 322.87C189.231 325.295 57.7735 334.851 42.4852 313.602C24.7884 288.997 40.5984 233.337 40.5984 233.337C80.3038 247.127 117.584 244.619 117.584 244.619L114.327 265.756C145.841 269.641 202.711 289.618 222.044 296.616C226.19 295.289 241.972 290.512 249.963 292.332C259.208 294.413 270.312 302.737 271.467 305.051C272.621 307.365 280.734 318.708 280.734 321.249Z" fill="#F1921B"/>
<path d="M250.873 322.869C254.558 322.869 280.717 323.796 280.717 321.255C280.717 318.713 272.621 307.381 271.466 305.067C270.312 302.753 259.214 294.429 249.963 292.348C249.963 292.348 261.378 308.203 250.873 322.869Z" fill="#EB7200"/>
<path d="M40.5762 233.354C40.5762 233.354 81.2139 247.649 117.584 244.624L114.327 265.756C114.327 265.756 65.7923 257.987 38.856 240.407L40.5762 233.354Z" fill="#EB7200"/>
<path d="M392.158 697.492H302.298C302.21 696.122 302.176 694.812 302.204 693.552H392.275C392.373 694.866 392.334 696.187 392.158 697.492Z" fill="#3F4D79"/>
<path d="M311.455 657.26C311.777 667.06 302.304 673.27 302.304 693.525H392.158C392.158 693.525 393.463 676.533 375.51 672.615C357.558 668.697 341.199 663.464 339.568 657.26H311.455Z" fill="#FFB000"/>
<path d="M340.184 675.567L348.385 663.425" stroke="#3F4D79" stroke-width="5" stroke-miterlimit="10" stroke-linecap="round"/>
<path d="M346.582 677.043L354.296 665.889" stroke="#3F4D79" stroke-width="5" stroke-miterlimit="10" stroke-linecap="round"/>
<path d="M354.95 677.537L361.188 667.365" stroke="#3F4D79" stroke-width="5" stroke-miterlimit="10" stroke-linecap="round"/>
<path d="M214.819 349.406C214.819 349.406 351.965 340.827 385.294 380.038C418.623 419.25 353.929 559.093 347.392 644.047C347.392 644.047 314.574 647.316 301.25 644.047C287.926 640.778 276.328 495.536 309.901 455.67C309.901 455.67 182.267 485.031 132.495 448.001C82.7232 410.97 194.115 350.105 214.819 349.406Z" fill="#3C4564"/>
<path d="M339.557 657.26C330.444 660.34 320.573 660.34 311.46 657.26L308.802 645.14C308.802 645.14 326.26 646.023 342.209 644.497L339.557 657.26Z" fill="#F1921B"/>
<path d="M595.219 561.423L523.938 616.134C522.928 614.902 522.016 613.698 521.202 612.521L592.2 558.027C593.333 559.04 594.346 560.179 595.219 561.423Z" fill="#3F4D79"/>
<path d="M506.164 578.343C512.39 585.923 508.65 596.617 520.986 612.688L592.267 557.977C592.267 557.977 582.955 543.704 566.313 551.534C549.67 559.364 533.527 565.169 528.45 561.235L506.164 578.343Z" fill="#FFB000"/>
<path d="M540.286 574.508L539.404 560.363" stroke="#3F4D79" stroke-width="5" stroke-miterlimit="10" stroke-linecap="round"/>
<path d="M545.703 571.063L544.82 558.394" stroke="#3F4D79" stroke-width="5" stroke-miterlimit="10" stroke-linecap="round"/>
<path d="M551.119 567.616L550.236 556.423" stroke="#3F4D79" stroke-width="5" stroke-miterlimit="10" stroke-linecap="round"/>
<path d="M109.682 451.941C111.735 463.006 228.437 489.82 352.62 411.431C352.62 411.431 360.783 505.991 486.258 574.581C486.258 574.581 513.561 564.725 525.83 543.066C525.83 543.066 443.978 447.346 412.463 359.445C399.234 322.536 232.727 341.859 208.382 349.406C184.037 356.953 100.531 402.624 109.682 451.941Z" fill="#3F4D79"/>
<path d="M528.45 561.235C528.45 561.235 523.072 577.794 506.164 578.344L495.143 570.53C505.108 565.436 513.971 558.427 521.224 549.903L528.45 561.235Z" fill="#F1921B"/>
<path d="M216.917 66.8687C216.917 66.8687 211.728 80.5089 178.072 93.5054C178.072 93.5054 201.756 125.924 225.846 156.385C225.846 156.385 235.501 128.399 252.954 116.807L216.917 66.8687Z" fill="#F1921B"/>
<path d="M252.987 116.796C247.843 120.309 243.509 125.053 239.924 130.114C228.826 121.79 216.345 107.179 212.649 96.5797C210.824 91.3356 215.657 77.1571 218.459 68.9663L252.987 116.796Z" fill="#EB7200"/>
<path d="M216.24 69.5318C216.24 73.9712 212.383 87.6392 217.05 93.1219C225.585 103.15 250.035 119.204 262.06 118.532C270.628 118.072 282.765 80.9023 284.574 75.3474C286.383 69.7926 294.196 47.5176 288.647 41.5632C283.098 35.6088 236.711 22.579 227.494 41.7685C217.277 63.0391 216.24 69.5318 216.24 69.5318Z" fill="#F1921B"/>
<path d="M307.731 28.6449C303.175 58.4503 283.764 62.3459 245.523 39.96C228.004 29.7104 240.39 48.0675 230.54 64.0051L227.322 65.2038C227.427 63.6 227.655 56.9742 224.358 56.9575C219.503 56.9575 218.01 64.3048 217.544 68.8386L215.679 69.5323C215.679 69.5323 215.479 36.3085 220.191 25.7482C231.844 -0.394634 265.529 13.7284 273.792 18.1734C299.862 32.1854 307.731 28.6449 307.731 28.6449Z" fill="#FFB000"/>
<path d="M244.663 37.6792C271.855 59.1439 293.22 64.2327 303.83 51.6135" stroke="#FFB000" stroke-width="4" stroke-miterlimit="10"/>
<path d="M221.983 47.4426L221.93 47.4274C215.421 45.5757 208.643 49.3512 206.792 55.86L205.283 61.1655C203.431 67.6743 207.206 74.4518 213.715 76.3034L213.769 76.3186C220.277 78.1703 227.055 74.3949 228.906 67.886L230.416 62.5805C232.267 56.0717 228.492 49.2942 221.983 47.4426Z" fill="white" stroke="#3F4D79" stroke-width="5" stroke-miterlimit="10" stroke-linecap="round"/>
<path d="M230.867 60.9862L228.437 69.5322C227.668 72.2286 225.861 74.5095 223.411 75.8737C220.962 77.2379 218.071 77.5737 215.374 76.8073L212.088 75.8695C211.944 75.8307 211.805 75.7863 211.661 75.7363C214.313 76.3787 217.111 75.968 219.466 74.5906C221.821 73.2132 223.551 70.9763 224.291 68.3502L226.722 59.8042C227.474 57.1826 227.18 54.3716 225.903 51.9616C224.627 49.5516 222.465 47.7302 219.874 46.8799L220.307 46.9909L223.576 47.9121C224.916 48.2868 226.169 48.9232 227.262 49.7846C228.355 50.6459 229.267 51.7151 229.944 52.9305C230.622 54.1459 231.053 55.4835 231.211 56.8661C231.37 58.2487 231.253 59.649 230.867 60.9862Z" fill="white" stroke="#3F4D79" stroke-width="5" stroke-miterlimit="10" stroke-linecap="round"/>
<path d="M220.307 46.9742L230.296 11.9025C230.736 10.3546 231.477 8.9085 232.476 7.64683C233.474 6.38516 234.712 5.33263 236.118 4.54935C237.524 3.76607 239.07 3.26738 240.669 3.08177C242.267 2.89616 243.887 3.02726 245.434 3.46758L280.95 13.5673C285.345 14.8159 287.343 18.2843 286.089 22.6849" stroke="#3F4D79" stroke-width="5" stroke-miterlimit="10" stroke-linecap="round"/>
<path d="M386.237 324.268H230.529C223.42 324.268 218.914 317.16 222.344 311.355L275.062 222.194C279.646 214.425 288.381 209.62 297.903 209.62H453.617C460.726 209.62 465.232 216.728 461.802 222.533L409.084 311.694C404.483 319.452 395.738 324.268 386.237 324.268Z" fill="#EAEEFF"/>
<path d="M384.711 327.132H235.396C228.432 327.132 224.02 320.168 227.383 314.48L279.03 227.128C283.525 219.526 292.099 214.809 301.411 214.809H450.726C457.69 214.809 462.102 221.773 458.739 227.461L407.092 314.807C402.597 322.41 394.023 327.132 384.711 327.132Z" fill="#C0C1FF"/>
<path d="M386.237 324.268H230.529C223.42 324.268 218.914 317.16 222.344 311.355L275.062 222.194C279.646 214.425 288.381 209.62 297.903 209.62H453.617C460.726 209.62 465.232 216.728 461.802 222.533L409.084 311.694C404.483 319.452 395.738 324.268 386.237 324.268Z" stroke="#6562CF" stroke-width="5" stroke-miterlimit="10"/>
<path d="M388.335 324.385H104.005C101.007 324.385 98.5776 326.815 98.5776 329.812V331.011C98.5776 334.008 101.007 336.438 104.005 336.438H388.335C391.332 336.438 393.762 334.008 393.762 331.011V329.812C393.762 326.815 391.332 324.385 388.335 324.385Z" fill="#D1D1FF" stroke="#6562CF" stroke-width="6" stroke-miterlimit="10"/>
</svg>
