<svg width="486" height="841" viewBox="0 0 486 841" fill="none" xmlns="http://www.w3.org/2000/svg">
<path d="M354.434 578.973V693.594C354.434 710.948 358.874 728.014 367.332 743.168C375.789 758.322 387.983 771.061 402.754 780.171L445.034 806.25" stroke="#6562CF" stroke-width="6" stroke-miterlimit="10" stroke-linecap="round"/>
<path d="M331.508 578.973V693.594C331.508 710.947 327.069 728.013 318.613 743.167C310.156 758.32 297.964 771.059 283.195 780.171L240.908 806.25" stroke="#6562CF" stroke-width="6" stroke-miterlimit="10" stroke-linecap="round"/>
<path d="M354.673 578.967H329.152C323.519 578.967 318.117 576.729 314.134 572.746C310.15 568.762 307.913 563.36 307.913 557.727H375.932C375.932 560.518 375.382 563.281 374.314 565.86C373.245 568.438 371.679 570.78 369.704 572.753C367.73 574.725 365.386 576.289 362.807 577.355C360.228 578.422 357.464 578.969 354.673 578.967Z" fill="white" stroke="#6562CF" stroke-width="5" stroke-miterlimit="10"/>
<path d="M382.404 521.022H402.979L410.997 476.333H390.422L382.404 521.022Z" fill="white" stroke="#6562CF" stroke-width="5" stroke-miterlimit="10"/>
<path d="M223.83 529.213V546.529C223.83 548.819 230.103 550.963 241.008 552.789C261.955 556.3 299.988 558.649 343.436 558.649C409.484 558.649 463.034 553.22 463.034 546.529V529.213C463.034 532.598 449.282 535.671 427.12 537.841C405.548 540.032 376.012 541.359 343.456 541.359C310.899 541.359 281.337 540.032 259.765 537.894C252.57 537.177 246.265 536.374 241.028 535.498C230.103 533.646 223.83 531.503 223.83 529.213Z" fill="#D1D1FF" stroke="#6562CF" stroke-width="5" stroke-miterlimit="10"/>
<path d="M223.83 529.213C223.83 531.503 230.103 533.647 241.008 535.472C246.245 536.348 252.55 537.151 259.745 537.868C281.317 540.032 310.853 541.359 343.456 541.359C376.058 541.359 405.568 540.032 427.139 537.894C449.302 535.698 463.054 532.624 463.054 529.266C463.054 522.569 409.504 517.133 343.456 517.133C290.941 517.133 246.331 520.564 230.249 525.343C226.081 526.518 223.83 527.839 223.83 529.213Z" fill="white" stroke="#6562CF" stroke-width="5" stroke-miterlimit="10"/>
<path d="M392.645 477.8H416.221C437.069 477.8 459.284 451.098 465.842 418.15L480.803 342.975C487.36 310.027 475.778 283.325 454.917 283.325H431.354C410.513 283.325 388.298 310.027 381.74 342.975L366.773 418.15C360.215 451.091 371.797 477.8 392.645 477.8Z" fill="#D1D1FF" stroke="#6562CF" stroke-width="5" stroke-miterlimit="10"/>
<path d="M378.707 477.8H402.283C423.131 477.8 445.346 451.098 451.903 418.15L466.864 342.975C473.422 310.027 461.84 283.325 440.978 283.325H417.416C396.574 283.325 374.359 310.027 367.801 342.975L352.834 418.15C346.277 451.091 357.859 477.8 378.707 477.8Z" fill="white" stroke="#6562CF" stroke-width="5" stroke-miterlimit="10"/>
<path d="M446.925 837.83C457.384 837.83 465.862 829.352 465.862 818.894C465.862 808.436 457.384 799.958 446.925 799.958C436.467 799.958 427.989 808.436 427.989 818.894C427.989 829.352 436.467 837.83 446.925 837.83Z" fill="#D1D1FF" stroke="#6562CF" stroke-width="5" stroke-miterlimit="10"/>
<path d="M240.504 837.83C250.962 837.83 259.44 829.352 259.44 818.894C259.44 808.436 250.962 799.958 240.504 799.958C230.045 799.958 221.567 808.436 221.567 818.894C221.567 829.352 230.045 837.83 240.504 837.83Z" fill="#D1D1FF" stroke="#6562CF" stroke-width="5" stroke-miterlimit="10"/>
<path d="M315.134 748.983C315.134 748.983 339.646 730.989 370.841 748.983" stroke="#6562CF" stroke-width="5" stroke-miterlimit="10"/>
<path d="M405.847 474.143C371.996 522.111 236.408 492.774 236.408 492.774C235.512 474.136 236.873 425.232 203.799 397.342L280.268 399.333C340.668 404.981 385.404 392.908 399.322 386.682C411.269 404.059 429.741 440.272 405.847 474.143Z" fill="#6562CF"/>
<path d="M183.688 400.295C183.688 400.295 90.1009 405.997 82.0896 425.975C57.0535 488.26 154.145 684.48 160.264 732.714C165.388 773.295 131.85 794.999 131.85 794.999C131.85 794.999 146.943 805.373 168.123 799.645C172.656 798.417 176.858 792.722 185.32 785.853C191.613 780.749 207.111 771.563 206.845 763.81C206.407 751.04 187.796 741.183 188.321 733.212C188.845 725.24 204.323 618.744 198.94 572.953C192.967 521.845 154.47 493.915 154.47 493.915L236.707 492.92C236.707 492.92 223.837 425.796 183.688 400.295Z" fill="#B65A18"/>
<path d="M238.001 492.82C238.001 492.82 245.05 428.212 202.159 396.054C198.768 393.512 189.303 396.618 183.86 397.693C181.869 398.092 181.345 400.348 182.533 402.028C210.96 442.894 211.538 477.939 209.58 498.648L238.001 492.82Z" fill="#8382D8"/>
<path d="M205.73 753.755C208.003 756.7 209.122 760.373 208.878 764.084C208.633 767.796 207.042 771.291 204.403 773.912L174.767 803.176C174.767 803.176 121.754 804.165 118.641 803.176C115.529 802.187 118.336 793.333 126.965 790.745C135.593 788.156 147.388 773.806 147.388 773.806C147.388 773.806 156.806 763.711 172.172 794.973L182.453 785.939C182.453 785.939 180.024 759.297 184.039 745.491H160.264C159.72 745.496 159.18 745.392 158.676 745.187C158.172 744.982 157.713 744.679 157.326 744.296C156.939 743.913 156.632 743.457 156.422 742.955C156.212 742.453 156.104 741.914 156.103 741.369C156.13 740.332 156.562 739.346 157.306 738.622C158.05 737.898 159.047 737.493 160.085 737.493H189.568C190.04 737.493 190.507 737.592 190.938 737.784C191.369 737.976 191.755 738.257 192.071 738.608L205.73 753.755Z" fill="#333B63"/>
<path d="M425.759 494.718C411.376 536.321 293.085 530.832 272.92 529.365C272.924 529.336 272.924 529.307 272.92 529.279C272.024 510.641 266.568 451.834 233.494 423.944L277.394 413.324L282.319 399.525C341.332 404.682 385.012 392.994 399.063 386.808C408.754 399.698 441.781 448.349 425.759 494.718Z" fill="#8382D8"/>
<path d="M204.263 430.163C204.263 430.163 107.126 448.881 102.937 477.289C98.7493 505.696 160.264 725.546 153.627 765.901C146.99 806.256 103.309 834.16 103.309 834.16C103.309 834.16 139.456 841.056 158.831 834.16C163.251 832.58 171.276 821.947 178.683 817.712C185.719 813.69 200.473 806.741 200.208 798.988C199.77 786.218 181.159 775.698 181.683 767.726C182.207 759.755 211.624 645.293 206.241 599.502C200.268 548.395 181.683 527.102 181.683 527.102L236.043 526.106C236.043 526.106 246.225 468.434 204.263 430.163Z" fill="#C36F0B"/>
<path d="M240.616 532.418L267.398 535.073C268.146 535.074 268.887 534.923 269.575 534.628C270.263 534.334 270.884 533.903 271.4 533.36C271.916 532.818 272.316 532.177 272.577 531.475C272.837 530.774 272.951 530.026 272.914 529.279C272.011 510.515 266.489 451.018 232.797 423.36C231.426 422.24 229.811 421.457 228.082 421.074C226.352 420.691 224.558 420.719 222.841 421.156L200.274 426.964C200.274 426.964 245.886 458.12 235.167 526C235.039 526.79 235.085 527.598 235.3 528.369C235.514 529.14 235.894 529.855 236.412 530.465C236.93 531.076 237.574 531.566 238.3 531.903C239.026 532.24 239.816 532.416 240.616 532.418Z" fill="#E5E6FF"/>
<path d="M198.363 787.24C200.687 790.245 201.832 793.997 201.58 797.787C201.328 801.578 199.697 805.145 196.996 807.816L166.762 837.684C166.762 837.684 105.911 838.693 102.732 837.684C99.5525 836.675 102.42 827.642 111.228 825C120.035 822.358 132.062 807.743 132.062 807.743C132.062 807.743 148.443 797.442 164.114 829.334L174.608 820.115C174.608 820.115 172.125 792.902 176.221 778.85H151.954C151.399 778.856 150.848 778.751 150.333 778.542C149.819 778.334 149.35 778.025 148.955 777.634C148.561 777.244 148.247 776.779 148.033 776.267C147.818 775.754 147.707 775.204 147.707 774.649C147.732 773.585 148.173 772.573 148.934 771.829C149.696 771.085 150.717 770.668 151.782 770.667H181.856C182.337 770.666 182.814 770.766 183.254 770.962C183.695 771.157 184.089 771.444 184.411 771.801L198.363 787.24Z" fill="#3F4D79"/>
<path d="M346.276 138.816C355.443 143.642 377.18 154.627 390.806 178.043C404.433 201.46 374.565 286.63 374.963 312.038C375.361 337.446 399.448 381.452 403.643 383.443C407.838 385.434 354.394 407.337 275.542 398.888C275.542 398.888 281.781 363.352 277.228 347.906C272.675 332.461 251.581 287.659 251.581 287.659C251.581 287.659 227.614 269.433 232.724 254.977C236.129 245.346 272.037 185.869 272.037 185.869L346.276 138.816Z" fill="#FFB000"/>
<path d="M425.945 265.908C425.945 265.908 401.566 294.622 357.095 294.622C357.095 294.622 321.486 179.968 362.233 165.492C402.979 151.016 425.945 265.908 425.945 265.908Z" fill="#FFC033"/>
<path d="M428.805 341.349C426.728 360.531 270.717 386.417 270.717 386.417L270.67 386.324C267.836 387.777 257.442 392.596 250.44 389.032C242.269 384.857 235.048 383.058 230.05 384.153C223.877 385.481 216.848 390.246 213.33 389.191C209.066 387.952 205.079 385.903 201.589 383.158C205.019 379.196 208.648 375.41 212.461 371.814C208.949 372.916 203.932 375.797 201.336 376.666C197.175 378.1 195.595 374.064 195.595 374.064C195.595 374.064 205.591 367.016 208.312 365.436C213.065 362.741 223.751 360.126 226.684 360.126C231.815 360.259 259.307 363.73 272.914 366.193C295.262 354.517 352.071 325.227 374.12 317.74L366.62 293.553C366.62 293.553 398.267 290.467 420.509 270.323C420.509 270.382 430.949 321.51 428.805 341.349Z" fill="#C36F0B"/>
<path d="M206.062 384.465C206.062 384.465 221.076 371.489 224.375 371.191C230.189 370.633 237.782 369.863 237.782 369.863" stroke="#A55F2B" stroke-width="4" stroke-miterlimit="10" stroke-linecap="round"/>
<path d="M210.947 387.292C210.947 387.292 224.222 376.673 227.541 376.347C233.355 375.79 240.948 375.02 240.948 375.02" stroke="#A55F2B" stroke-width="4" stroke-miterlimit="10" stroke-linecap="round"/>
<path d="M424.033 289.611C414.243 295.359 396.535 302.998 368.81 300.728L366.613 293.633C366.613 293.633 398.267 290.553 420.502 270.402C420.502 270.382 422.175 278.52 424.033 289.611Z" fill="#B65A18"/>
<path d="M374.279 71.5798C374.279 71.5798 369.155 142.958 219.131 162.366C219.131 162.366 199.558 146.469 211.166 130.427C222.775 114.384 235.625 108.484 224.66 97.6115C213.695 86.7396 198.376 64.2057 220.505 43.4374C242.634 22.6691 293.217 -4.85601 329.962 15.2486C366.706 35.3531 321.645 72.217 374.279 71.5798Z" fill="#3F4D79"/>
<path d="M211.857 162.405C211.857 162.405 192.283 146.509 203.892 130.473C215.501 114.437 227.069 108.53 216.098 97.658C205.126 86.786 193.803 60.668 218.793 43.4506C247.811 23.4589 278.31 14.3724 314.165 28.1847" stroke="#3F4D79" stroke-width="4" stroke-miterlimit="10"/>
<path d="M307.614 76.5513C307.614 76.5513 313.714 119.495 346.164 138.81C346.164 138.81 324.924 181.375 270.75 188.258C270.75 188.258 286.215 160.109 286.175 151.142C286.135 142.175 279.073 116.236 279.073 116.236L307.614 76.5513Z" fill="#C36F0B"/>
<path d="M309.286 92.5606C309.831 112.599 295.799 128.27 283.958 136.533C281.887 126.63 279.073 116.236 279.073 116.236L307.614 76.5513C308.06 79.326 308.652 82.0755 309.386 84.7882C309.247 87.1511 309.207 89.753 309.286 92.5606Z" fill="#B65A18"/>
<path d="M304.295 58.856C293.251 46.245 276.584 37.3244 261.411 42.1963C238.081 49.6965 234.981 88.3325 264.936 123.404C268.487 127.559 302.961 114.55 306.452 86.9387C308.278 72.5157 304.295 58.856 304.295 58.856Z" fill="#C36F0B"/>
<path d="M305.623 61.604L294.06 14.5517C291.983 6.53379 284.383 1.51594 276.498 2.99608L253.698 7.86126C246.397 9.24183 242.242 17.4589 242.276 25.198" stroke="#FFB000" stroke-width="5" stroke-miterlimit="10" stroke-linecap="round"/>
<path d="M306.454 58.0236L304.447 58.5066C296.418 60.4388 291.475 68.5144 293.407 76.5441L293.89 78.551C295.822 86.5807 303.898 91.5236 311.927 89.5914L313.934 89.1085C321.964 87.1763 326.907 79.1006 324.975 71.071L324.492 69.0641C322.56 61.0344 314.484 56.0915 306.454 58.0236Z" fill="white"/>
<path d="M315.818 87.2705C321.127 103.2 339.997 139.201 315.818 180.505C291.638 221.81 260.847 252.693 284.43 296.367C304.899 334.28 303.545 392.529 248.588 392.529" stroke="white" stroke-width="5" stroke-miterlimit="10" stroke-linecap="round"/>
<path d="M91.528 388.421H81.3197C79.0396 388.422 76.8086 387.759 74.9 386.511C72.9913 385.264 71.4879 383.487 70.5738 381.398L4.61173 229.821C3.83479 228.038 3.51409 226.089 3.67855 224.151C3.84302 222.213 4.48747 220.346 5.55376 218.72C6.62006 217.093 8.07463 215.757 9.78621 214.833C11.4978 213.909 13.4125 213.426 15.3576 213.427L91.528 388.421Z" fill="white" stroke="#6562CF" stroke-width="6" stroke-miterlimit="10"/>
<path d="M301.773 405.2H99.9375C97.7344 405.2 95.5528 404.766 93.5174 403.923C91.482 403.079 89.6327 401.843 88.0752 400.285C86.5176 398.727 85.2823 396.877 84.4398 394.842C83.5972 392.806 83.164 390.624 83.1649 388.421H284.994C289.444 388.421 293.712 390.189 296.858 393.335C300.005 396.482 301.773 400.75 301.773 405.2Z" fill="white" stroke="#6562CF" stroke-width="6" stroke-miterlimit="10"/>
</svg>
