<svg width="263" height="87" viewBox="0 0 263 87" fill="none" xmlns="http://www.w3.org/2000/svg">
<path d="M254.948 52.7147L262.259 57.5886C259.886 61.0837 254.211 67.0798 244.399 67.0798C232.214 67.0798 223.14 57.6527 223.14 45.6605C223.14 32.8986 232.31 24.2411 243.373 24.2411C254.499 24.2411 259.95 33.091 261.714 37.8687L262.676 40.3056L234.01 52.1696C236.19 56.4663 239.589 58.6468 244.399 58.6468C249.209 58.6468 252.543 56.274 254.948 52.7147ZM232.471 44.9871L251.614 37.035C250.555 34.3736 247.413 32.4818 243.661 32.4818C238.884 32.4818 232.246 36.7143 232.471 44.9871Z" fill="#FF302F"/>
<path d="M209.32 2.40491H218.555V65.1239H209.32V2.40491Z" fill="#20B15A"/>
<path d="M194.762 25.9085H203.676V64.0017C203.676 79.8097 194.346 86.3189 183.315 86.3189C172.926 86.3189 166.673 79.3287 164.333 73.6532L172.509 70.2543C173.984 73.7494 177.543 77.8858 183.315 77.8858C190.402 77.8858 194.762 73.4929 194.762 65.2843V62.206H194.442C192.325 64.7712 188.285 67.0799 183.155 67.0799C172.445 67.0799 162.633 57.749 162.633 45.7247C162.633 33.6362 172.445 24.2091 183.155 24.2091C188.253 24.2091 192.325 26.4857 194.442 28.9868H194.762V25.9085ZM195.404 45.7247C195.404 38.1573 190.369 32.6422 183.956 32.6422C177.479 32.6422 172.028 38.1573 172.028 45.7247C172.028 53.1958 177.479 58.6148 183.956 58.6148C190.369 58.6468 195.404 53.1958 195.404 45.7247Z" fill="#3686F7"/>
<path d="M111.939 45.5641C111.939 57.9091 102.319 66.9835 90.5192 66.9835C78.7193 66.9835 69.0999 57.877 69.0999 45.5641C69.0999 33.155 78.7193 24.1127 90.5192 24.1127C102.319 24.1127 111.939 33.155 111.939 45.5641ZM102.576 45.5641C102.576 37.8685 96.9963 32.5778 90.5192 32.5778C84.0421 32.5778 78.4628 37.8685 78.4628 45.5641C78.4628 53.1956 84.0421 58.5504 90.5192 58.5504C96.9963 58.5504 102.576 53.1956 102.576 45.5641Z" fill="#FF302F"/>
<path d="M158.721 45.6605C158.721 58.0055 149.102 67.0798 137.302 67.0798C125.502 67.0798 115.883 58.0055 115.883 45.6605C115.883 33.2513 125.502 24.2411 137.302 24.2411C149.102 24.2411 158.721 33.2193 158.721 45.6605ZM149.326 45.6605C149.326 37.9649 143.747 32.6742 137.27 32.6742C130.793 32.6742 125.214 37.9649 125.214 45.6605C125.214 53.2919 130.793 58.6468 137.27 58.6468C143.779 58.6468 149.326 53.2598 149.326 45.6605Z" fill="#FFBA40"/>
<path d="M33.8926 57.6848C20.4574 57.6848 9.94013 46.8469 9.94013 33.4117C9.94013 19.9765 20.4574 9.13851 33.8926 9.13851C41.1393 9.13851 46.43 11.9923 50.3419 15.6477L56.787 9.20263C51.3359 3.97605 44.0572 0 33.8926 0C15.4874 0 0 15.0064 0 33.4117C0 51.8169 15.4874 66.8233 33.8926 66.8233C43.8328 66.8233 51.3359 63.5527 57.2038 57.4604C63.232 51.4322 65.0918 42.967 65.0918 36.1051C65.0918 33.9568 64.8353 31.7443 64.5467 30.109H33.8926V39.023H55.7288C55.0875 44.6023 53.324 48.418 50.7267 51.0153C47.5844 54.1897 42.6143 57.6848 33.8926 57.6848Z" fill="#3686F7"/>
</svg>
