<svg width="525" height="569" viewBox="0 0 525 569" fill="none" xmlns="http://www.w3.org/2000/svg">
<path d="M99.2407 506.032H170.22" stroke="#424D76" stroke-width="5" stroke-miterlimit="10" stroke-linecap="round"/>
<path d="M74.6292 350.359L199.371 553.344" stroke="#424D76" stroke-width="5" stroke-miterlimit="10" stroke-linecap="round"/>
<path d="M194.831 350.359L70.0891 553.344" stroke="#424D76" stroke-width="5" stroke-miterlimit="10" stroke-linecap="round"/>
<path d="M220.673 333.474C220.673 335.204 216.8 336.829 209.995 338.241C195.353 341.283 167.132 343.344 134.73 343.344C102.328 343.344 74.1066 341.283 59.4741 338.237C52.664 336.825 48.7959 335.199 48.7959 333.47C48.7959 328.022 87.2728 323.6 134.739 323.6C182.205 323.6 220.673 328.022 220.673 333.474Z" fill="white" stroke="#FFB000" stroke-width="5" stroke-miterlimit="10"/>
<path d="M220.673 333.474V343.008C220.673 348.456 182.192 352.878 134.73 352.878C87.2688 352.878 48.7874 348.461 48.7874 343.008V333.474C48.7874 335.204 52.66 336.829 59.4655 338.241C74.1072 341.283 102.324 343.344 134.73 343.344C167.137 343.344 195.354 341.283 209.995 338.237C216.801 336.829 220.673 335.204 220.673 333.474Z" fill="#FFD880" stroke="#FFB000" stroke-width="5" stroke-miterlimit="10"/>
<path d="M120.87 483.3C124.67 485.47 132.801 485.711 134.249 491.281C135.697 496.852 127.739 518.908 129.005 526.694C130.272 534.48 130.159 551.106 117.256 552.903C102.977 554.892 92.1311 550.011 92.1311 544.586C92.1311 539.161 100.448 533.004 101.697 523.788C102.945 514.572 106.237 494.686 106.237 494.686L120.87 483.3Z" fill="#FFB000"/>
<path d="M102.659 507.58C102.659 507.58 108.684 502.359 117.923 507.58" stroke="white" stroke-width="4" stroke-linecap="round" stroke-linejoin="round"/>
<path d="M101.297 513.936C101.297 513.936 107.322 508.715 116.561 513.936" stroke="white" stroke-width="4" stroke-linecap="round" stroke-linejoin="round"/>
<path d="M99.9355 520.292C99.9355 520.292 105.96 515.071 115.199 520.292" stroke="white" stroke-width="4" stroke-linecap="round" stroke-linejoin="round"/>
<path d="M169.562 510.677C167.146 514.209 153.217 522.885 153.948 526.862C154.679 530.839 167.505 542.407 168.408 548.55C169.312 554.692 168.05 563.913 173.471 566.628C178.891 569.343 207.634 569.52 212.333 566.628C217.032 563.736 211.97 554.515 206.908 552.527C201.846 550.538 188.294 527.947 189.075 514.027L169.562 510.677Z" fill="#FFB000"/>
<path d="M195.027 526.989C195.027 526.989 189.002 521.768 179.763 526.989" stroke="white" stroke-width="4" stroke-linecap="round" stroke-linejoin="round"/>
<path d="M197.297 533.345C197.297 533.345 191.272 528.124 182.033 533.345" stroke="white" stroke-width="4" stroke-linecap="round" stroke-linejoin="round"/>
<path d="M200.021 539.701C200.021 539.701 193.996 534.48 184.757 539.701" stroke="white" stroke-width="4" stroke-linecap="round" stroke-linejoin="round"/>
<path d="M83.1963 266.427C83.1963 266.427 0 299.551 0 328.049C0 378.866 70.9473 472.422 85.4663 471.019C99.9854 469.616 109.76 457.908 109.202 451.765C108.643 445.622 82.4154 366.576 63.6741 339.767C63.6741 339.767 120.933 325.239 128.474 324.966C136.015 324.694 174.833 345.632 175.391 346.468C175.949 347.303 155.324 403.927 167.292 477.72C168.967 488.054 200.243 490.287 203.317 486.101C206.39 481.915 240.999 336.135 236.268 324.408C231.538 312.681 191.776 280.583 167.746 267.789C150.43 258.573 83.1963 266.427 83.1963 266.427Z" fill="#424D76"/>
<path d="M193.719 500.924C193.202 502.523 190.745 510.045 189.075 514.027C187.477 517.827 167.568 516.538 169.552 510.672C171.246 505.678 171.273 498.868 171.241 496.952C174.501 498.246 183.745 501.492 193.719 500.924Z" fill="#C36F0B"/>
<path d="M194.1 500.902L199.662 487.654C199.662 487.654 181.606 489.897 169.562 481.575L170.016 496.43C170.016 496.43 182.537 502.132 194.1 500.902Z" fill="#6562CF"/>
<path d="M112.661 467.669C112.661 467.669 119.244 481.312 120.87 483.3C122.495 485.289 113.46 495.408 106.232 494.687L94.6826 479.119C94.6826 479.119 107.072 476.803 112.661 467.669Z" fill="#C36F0B"/>
<path d="M108.466 455.701L113.115 467.669C113.115 467.669 105.901 477.68 93.7746 479.573L85.4663 471.019C85.4663 471.019 101.025 469.144 108.466 455.701Z" fill="#6562CF"/>
<path d="M161.775 95.7983C169.121 101.196 189.079 110.635 201.501 119.329C211.521 126.344 220.46 157.012 220.46 157.012C220.46 157.012 206.509 171.24 183.073 176.82C183.073 176.82 169.68 218.134 164.658 266.386C164.658 266.386 121.687 282.276 82.9059 266.386C82.9059 266.386 67.279 177.937 65.3268 177.401C63.3746 176.865 34.4182 167.98 24.9204 153.747C24.9204 153.747 36.1207 121.481 51.3889 115.157C67.9782 108.283 90.0837 98.8628 97.7745 94.7269C101.697 92.584 161.775 95.7983 161.775 95.7983Z" fill="#EAEAFF"/>
<path d="M59.1023 111.911L26.5321 155.849C26.1779 155.427 25.8374 155 25.5242 154.565L56.2648 113.105L59.1023 111.911Z" fill="white"/>
<path d="M75.0288 105.137L32.9653 161.888C32.543 161.565 32.1299 161.243 31.7258 160.916L72.1322 106.399L75.0288 105.137Z" fill="white"/>
<path d="M91.305 97.8821L40.2885 166.696C39.8345 166.432 39.3805 166.169 38.9265 165.892L88.3177 99.2623C89.3664 98.781 90.3471 98.3225 91.305 97.8821Z" fill="white"/>
<path d="M105.07 94.0142L48.1656 170.768C47.6843 170.546 47.2031 170.314 46.7173 170.083L103.059 94.0686C103.695 94.0459 104.362 94.0232 105.07 94.0142Z" fill="white"/>
<path d="M115.948 94.0368L56.4736 174.291L54.9346 173.696L114.014 94.0095L115.948 94.0368Z" fill="white"/>
<path d="M126.667 94.3047L65.1134 177.31C64.8002 177.215 64.2554 177.047 63.5244 176.811L124.733 94.2502C125.373 94.2639 126.009 94.282 126.667 94.3047Z" fill="white"/>
<path d="M137.268 94.6816L68.1371 187.92C67.9873 187.212 67.842 186.531 67.6831 185.877L135.352 94.6226L137.268 94.6816Z" fill="white"/>
<path d="M147.833 95.1263L70.5025 199.434C70.3618 198.73 70.2256 198.035 70.0894 197.354L145.94 95.04L147.833 95.1263Z" fill="white"/>
<path d="M158.361 95.6257L72.7725 211.074C72.6363 210.375 72.5001 209.672 72.3684 208.977L156.473 95.5349L158.361 95.6257Z" fill="white"/>
<path d="M166.747 99.0217L74.9791 222.797C74.8519 222.093 74.7203 221.389 74.5886 220.686L165.39 98.2C165.825 98.4678 166.279 98.7402 166.747 99.0217Z" fill="white"/>
<path d="M174.406 103.385L77.181 234.551C77.0493 233.852 76.9222 233.148 76.7905 232.435L173.017 102.608C173.475 102.872 173.938 103.131 174.406 103.385Z" fill="white"/>
<path d="M182.133 107.662L79.3101 246.351C79.1875 245.656 79.0604 244.948 78.9287 244.231L180.748 106.894L182.133 107.662Z" fill="white"/>
<path d="M189.81 112.006L81.4439 258.196C81.3213 257.519 81.1987 256.834 81.0625 256.066L188.439 111.234L189.81 112.006Z" fill="white"/>
<path d="M197.329 116.56L85.5028 267.412L83.991 266.808L196.007 115.716L197.329 116.56Z" fill="white"/>
<path d="M204.302 121.886L94.3467 270.168C93.8019 270.032 93.2616 269.882 92.7168 269.714L203.176 120.719C203.548 121.091 203.916 121.472 204.302 121.886Z" fill="white"/>
<path d="M209.478 129.572L103.799 272.129C103.218 272.043 102.632 271.948 102.051 271.839L208.629 128.078C208.915 128.564 209.196 129.068 209.478 129.572Z" fill="white"/>
<path d="M182.828 177.573C182.564 178.418 182.097 179.934 181.466 182.045L113.887 273.219C113.265 273.178 112.648 273.137 112.021 273.082L182.828 177.573Z" fill="white"/>
<path d="M213.773 138.475L185.897 176.075C185.098 176.298 184.285 176.529 183.468 176.711L213.042 136.813C213.287 137.376 213.532 137.93 213.773 138.475Z" fill="white"/>
<path d="M176.363 201.005C176.04 202.276 175.723 203.592 175.4 204.941L124.647 273.405C123.989 273.405 123.33 273.432 122.663 273.437L176.363 201.005Z" fill="white"/>
<path d="M217.527 148.113L201.124 170.255C200.153 170.736 199.149 171.213 198.105 171.681L216.892 146.338C217.11 146.947 217.323 147.555 217.527 148.113Z" fill="white"/>
<path d="M171.568 222.17C171.323 223.36 171.08 224.571 170.837 225.802L136.138 272.61C135.434 272.687 134.731 272.765 134.013 272.833L171.568 222.17Z" fill="white"/>
<path d="M167.982 241.724C167.805 242.837 167.623 243.954 167.45 245.079L148.459 270.685C147.719 270.831 146.957 270.98 146.189 271.139L167.982 241.724Z" fill="white"/>
<path d="M233.812 230.319C232.786 249.387 196.62 267.093 177.547 275.129C176.916 279.079 174.324 280.809 169.339 282.094C158.947 284.772 159.923 291.628 159.387 292.935C158.547 295.019 148.296 297.394 145.831 295.659C144.364 294.62 148.505 281.562 150.861 276.972C152.328 274.117 162.152 268.71 168.594 266.381C168.594 266.381 201.283 226.76 205.759 224.526C205.759 224.526 193.669 191.384 188.612 179.457C187.89 177.745 187.309 176.474 186.932 175.798C186.932 175.798 205.092 170.35 217.377 159.771C217.377 159.771 218.49 162.545 220.129 167.108C225.064 180.846 234.852 210.838 233.812 230.319Z" fill="#C36F0B"/>
<path d="M220.124 167.104C217.582 169.806 209.854 175.658 188.607 179.453C187.881 177.746 187.299 176.47 186.923 175.794C186.923 175.794 205.083 170.346 217.373 159.768C217.373 159.768 218.48 162.537 220.124 167.104Z" fill="#B65A18"/>
<path d="M102.991 295.201C100.235 296.418 92.0041 294.139 91.2504 292.931C90.4968 291.723 89.4344 284.214 81.3032 281.635C75.4828 279.788 72.8405 277.949 72.9404 272.206C56.0197 266.426 11.0233 249.283 8.98481 229.82C7.62279 216.835 21.2021 179.693 26.8726 164.897C28.3572 161.034 29.297 158.691 29.297 158.691C42.3768 169.587 59.3521 175.271 59.3521 175.271L57.9492 179.117L41.5732 223.963C49.028 226.792 76.1775 260.134 80.4088 265.368C89.2301 267.075 98.6779 273.209 99.7812 276.514C100.939 279.978 105.828 293.943 102.991 295.201Z" fill="#C36F0B"/>
<path d="M29.3016 158.682C42.3769 169.578 59.3567 175.263 59.3567 175.263L57.9538 179.103C48.9872 177.687 34.2593 174.223 26.8772 164.884C28.3573 161.025 29.3016 158.682 29.3016 158.682Z" fill="#B65A18"/>
<path d="M190.409 307.65H58.9525L36.8243 220.672C36.4827 219.485 36.4219 218.235 36.6467 217.021C36.8715 215.807 37.3758 214.662 38.1197 213.676C38.8637 212.69 39.8267 211.891 40.9328 211.342C42.0389 210.793 43.2576 210.508 44.4925 210.512H204.888C206.121 210.511 207.338 210.798 208.441 211.348C209.545 211.898 210.506 212.698 211.248 213.683C211.99 214.668 212.492 215.813 212.716 217.026C212.94 218.239 212.879 219.487 212.538 220.672L190.409 307.65Z" fill="white" stroke="#6562CF" stroke-width="7" stroke-miterlimit="10"/>
<path d="M186.423 306.833H62.9343L42.1454 225.112C40.7834 220.332 39.8209 214.67 44.7923 214.67H204.565C209.537 214.67 208.588 220.341 207.212 225.112L186.423 306.833Z" fill="#6562CF"/>
<path d="M132.197 267.748H117.165C116.661 267.747 116.171 267.579 115.773 267.269C115.375 266.959 115.092 266.525 114.968 266.036L113.174 256.352C113.13 256.197 113.122 256.034 113.152 255.875C113.182 255.716 113.248 255.567 113.345 255.438C113.442 255.309 113.568 255.204 113.712 255.132C113.857 255.06 114.016 255.022 114.178 255.022H135.184C135.346 255.022 135.505 255.06 135.65 255.132C135.794 255.204 135.92 255.309 136.017 255.438C136.114 255.567 136.18 255.716 136.21 255.875C136.24 256.034 136.232 256.197 136.188 256.352L134.385 266.05C134.259 266.535 133.976 266.964 133.58 267.271C133.184 267.579 132.698 267.746 132.197 267.748Z" stroke="white" stroke-width="6" stroke-linejoin="round"/>
<path d="M144.66 69.012C144.66 69.012 143.915 85.3561 161.775 95.7982C161.775 95.7982 144.069 108.692 129.409 125.254C129.409 125.254 113.701 106.045 97.7881 94.6859C97.7881 94.6859 113.41 82.4051 113.41 69.0165L144.66 69.012Z" fill="#B65A18"/>
<path d="M159.86 60.0137C158.066 62.3654 154.829 66.7738 153.268 69.9382C150.489 85.0066 141.009 94.9766 128.992 94.9766C118.577 94.9766 111.54 83.2996 108.298 72.4443C108.222 72.2473 108.158 72.0457 108.108 71.8405C107.304 68.8486 102.95 62.8966 100.762 60.0364C100.589 59.8088 100.466 59.5468 100.402 59.2679C100.338 58.989 100.335 58.6996 100.392 58.4193C100.449 58.139 100.566 57.8741 100.734 57.6425C100.902 57.4108 101.117 57.2178 101.366 57.0763C104.035 55.5463 105.42 56.6586 106.146 58.1114C105.761 47.2562 106.21 35.8652 112.53 35.8016C119.794 35.7335 143.951 35.2568 148.137 36.6552C151.738 37.8537 154.112 42.8977 154.121 59.0194C154.689 57.2034 156.051 55.2376 159.256 57.0763C159.501 57.2181 159.714 57.4102 159.879 57.64C160.045 57.8697 160.16 58.132 160.217 58.4095C160.274 58.687 160.272 58.9734 160.21 59.2499C160.149 59.5264 160.029 59.7867 159.86 60.0137Z" fill="#C36F0B"/>
<path d="M164.2 40.2599C159.397 46.2981 153.708 60.2769 153.708 60.2769C153.708 60.2769 155.774 38.6391 147.402 38.8752C143.42 38.9841 135.411 44.5638 127.026 43.6558C120.062 42.9022 111.363 33.4498 107.781 39.6288C105.797 44.3641 105.938 51.7961 106.237 59.4416C104.099 49.6578 99.6768 43.1474 97.2479 39.2611C92.1448 36.6142 88.1405 30.9483 89.2937 25.1869C91.255 15.4395 98.7688 15.9843 98.7688 15.9843C111.44 17.2963 104.044 9.90969 119.403 2.93164C134.762 -4.0464 152.232 2.55936 153.735 10.9675C154.77 16.7334 158.316 13.8459 163.868 16.4156C171.668 20.0567 169.843 33.1456 164.2 40.2599Z" fill="#FFB000"/>
<path d="M118.441 46.802C139.942 49.526 142.076 37.8535 151.333 39.2655" stroke="#FFB000" stroke-width="3" stroke-miterlimit="10"/>
<path d="M439.549 556.159L456.542 365.023C456.864 362.158 458.23 359.513 460.379 357.591C462.528 355.67 465.309 354.608 468.192 354.608C471.075 354.608 473.856 355.67 476.005 357.591C478.154 359.513 479.52 362.158 479.842 365.023L501.375 556.159" stroke="#FFB000" stroke-width="5" stroke-miterlimit="10" stroke-linecap="round"/>
<path d="M321.962 556.159L338.955 365.023C339.277 362.158 340.642 359.513 342.791 357.591C344.941 355.67 347.722 354.608 350.605 354.608C353.487 354.608 356.269 355.67 358.418 357.591C360.567 359.513 361.933 362.158 362.255 365.023L383.788 556.159" stroke="#FFB000" stroke-width="5" stroke-miterlimit="10" stroke-linecap="round"/>
<path d="M507.323 342.75C507.323 351.408 463.484 358.427 409.403 358.427C355.322 358.427 311.479 351.403 311.479 342.75C311.479 341.265 312.764 339.831 315.17 338.473C326.801 331.895 364.588 327.073 409.403 327.073C454.218 327.073 492 331.881 503.632 338.473C506.038 339.831 507.323 341.265 507.323 342.75Z" fill="#DBDAFF"/>
<path d="M503.631 338.473C493.276 346.123 455.017 351.798 409.403 351.798C363.789 351.798 325.521 346.123 315.17 338.473C326.801 331.894 364.588 327.073 409.403 327.073C454.218 327.073 492 331.881 503.631 338.473Z" fill="white"/>
<path d="M409.398 358.427C463.478 358.427 507.318 351.408 507.318 342.75C507.318 334.092 463.478 327.073 409.398 327.073C355.319 327.073 311.479 334.092 311.479 342.75C311.479 351.408 355.319 358.427 409.398 358.427Z" stroke="#6562CF" stroke-width="5" stroke-miterlimit="10"/>
<path d="M386.689 105.178C386.689 105.178 384.446 159.395 379.775 169.347C375.103 179.299 347.45 225.117 336.553 224.054C315.933 222.011 286.409 125.39 282.799 113.323C281.033 110.44 279.167 108.578 276.121 107.167C261.388 100.27 258.81 94.6178 255.727 89.5829L253.511 74.7234C260.24 70.7781 265.692 81.8104 267.504 84.4254C272.316 91.3717 278.436 89.701 280.62 89.4195C283.834 88.9927 279.008 85.1382 277.161 81.6469C274.496 76.612 277.955 73.7109 277.955 73.7109C278.618 76.3623 289.759 88.4615 293.314 92.6202C296.583 96.4384 296.274 104.393 296.202 105.677C300.651 112.451 334.996 171.281 334.996 171.281C334.996 171.281 354.364 124.827 362.236 116.192C367.957 109.945 381.237 106.949 386.689 105.178Z" fill="#FFD1CB"/>
<path d="M262.937 89.7056C262.937 89.7056 261.988 84.4482 258.946 81.6152C258.946 81.6152 257.956 75.7813 254.015 74.8052" stroke="#EEB9AF" stroke-width="3" stroke-miterlimit="10" stroke-linecap="round"/>
<path d="M265.974 88.4799C265.974 88.4799 264.771 83.2951 261.593 80.5938C261.593 80.5938 258.324 72.5807 254.061 74.7826" stroke="#EEB9AF" stroke-width="3" stroke-miterlimit="10" stroke-linecap="round"/>
<path d="M346.097 557.521H340.685L340.957 542.539L334.293 557.521H293.219C293.219 557.521 292.497 549.04 299.271 547.864C305.005 546.865 310.457 540.827 310.457 540.827L338.524 513.678C341.044 516.733 348.212 524.12 348.512 535.683C348.628 543.035 347.816 550.372 346.097 557.521Z" fill="#FFB000"/>
<path d="M284.715 304.431C275.88 305.635 262.156 321.47 272.97 352.701C283.785 383.932 323.846 504.261 323.446 513.305C322.915 525.386 310.457 540.818 310.457 540.818C310.457 540.818 323.719 547.764 331.659 536.573C339.6 525.382 338.524 513.668 338.524 513.668C338.524 513.668 341.725 415.676 329.898 354.104C324.463 325.897 300.596 302.266 284.715 304.431Z" fill="#FFD1CB"/>
<path d="M333.63 379.769C330.125 379.878 326.538 379.878 322.902 379.746C303.666 379.061 288.874 374.557 278.963 370.289C278.055 367.629 277.224 365.132 276.434 362.821C286.277 366.525 301.954 370.829 322.902 371.574C325.768 371.68 328.593 371.73 331.378 371.724C332.104 374.271 332.858 376.958 333.63 379.769Z" fill="#F3C2B9"/>
<path d="M387.166 557.521H381.754L382.022 542.566L373.087 557.521H333.38C333.38 557.521 332.658 549.04 339.432 547.864C345.166 546.865 351.527 540.827 351.527 540.827L379.593 513.678C382.113 516.733 389.282 524.12 389.581 535.683C389.694 543.035 388.883 550.372 387.166 557.521Z" fill="#FFC440"/>
<path d="M329.412 305.067C322.266 310.393 315.006 322.378 325.816 353.609C336.626 384.84 365.238 504.28 364.516 513.305C363.794 522.331 351.527 540.818 351.527 540.818C351.527 540.818 364.788 547.764 372.729 536.573C380.669 525.382 379.593 513.669 379.593 513.669C379.593 513.669 399.42 423.857 388.174 364.115C382.022 331.313 349.266 290.267 329.412 305.067Z" fill="#FFD1CB"/>
<path d="M389.118 369.586C380.855 372.446 359.435 378.956 333.793 379.764H333.63C332.858 376.954 332.104 374.266 331.36 371.719C350.547 371.667 369.675 369.594 388.428 365.536C388.691 366.875 388.909 368.224 389.118 369.586Z" fill="#F3C2B9"/>
<path d="M264.294 357.196C264.294 357.196 257.098 316.181 285.251 298.044C313.404 279.906 395.615 264.974 392.037 246.528L464.052 244.902C464.052 244.902 480.337 268.642 482.974 293.826C486.034 322.977 479.442 345.01 419.868 344.888C387.897 344.82 392.31 364.614 392.31 364.614C392.31 364.614 360.861 372.932 322.897 371.574C284.933 370.217 264.294 357.196 264.294 357.196Z" fill="#424D76"/>
<path d="M400.609 99.8208C396.323 100.792 386.689 105.174 386.689 105.174C386.689 105.174 373.523 155.114 370.345 161.829C367.167 168.543 365.092 179.349 378.517 188.987L392.137 247.395H464.074C464.074 247.395 469.622 186.359 473.422 165.039C477.222 143.718 472.473 102.935 472.473 102.935L445.832 99.8208H400.609Z" fill="#FFB000"/>
<path d="M524.625 232.599C521.447 251.626 412.209 247.799 405.149 247.531C403.46 249.279 397.508 254.941 392.437 253.833C386.453 252.516 381.386 248.948 377.704 250.682C374.022 252.416 369.8 256.03 367.321 255.858C364.372 255.682 361.469 255.039 358.723 253.951C360.469 251.444 362.351 249.034 364.361 246.732C362.191 247.704 359.254 249.769 357.66 250.532C356.983 250.891 356.205 251.012 355.451 250.876C354.697 250.74 354.011 250.355 353.501 249.783C353.501 249.783 358.95 244.884 360.929 243.704C362.804 242.569 368.647 239.79 371.489 239.586C374.921 239.087 395.297 235.046 404.677 236.004V236.09C408.79 234.987 484.082 214.852 489.385 213.712C489.385 213.712 470.694 152.386 468.165 142.266C465.636 132.146 464.782 102.209 472.473 102.935C477.467 103.412 488.817 104.488 495.432 119.693C500.145 130.498 528.575 209.113 524.625 232.599Z" fill="#FFD1CB"/>
<path d="M361.842 254.146C361.842 254.146 370.014 245.606 372.143 245.066C375.916 244.131 380.842 242.891 380.842 242.891" stroke="#EEB9AF" stroke-width="3" stroke-miterlimit="10" stroke-linecap="round"/>
<path d="M365.75 254.668C365.75 254.668 372.806 248.008 374.949 247.477C378.721 246.541 383.647 245.306 383.647 245.306" stroke="#EEB9AF" stroke-width="3" stroke-miterlimit="10" stroke-linecap="round"/>
<path d="M409.757 70.2287C409.757 72.3671 414.233 86.3868 400.609 99.8208C400.609 99.8208 419.491 106.831 445.814 99.8208C445.814 99.8208 438.218 70.4875 438.4 61.7434L409.757 70.2287Z" fill="#FFD1CB"/>
<path d="M435.671 68.2673C434.309 82.3414 419.5 93.4963 405.426 94.0275C413.044 82.6048 409.757 72.0628 409.757 70.2286L435.208 62.6013C435.467 64.8078 435.794 67.0142 435.671 68.2673Z" fill="#F3C2B9"/>
<path d="M393.486 43.2064C391.86 41.2996 390.861 28.9779 397.594 23.153C410.388 12.0753 434.028 7.37635 448.198 15.3169C461.863 22.9578 467.307 33.0685 465.109 52.636C463.012 71.3546 458.485 75.141 470.103 88.9836C480.545 101.428 483.782 118.989 477.445 133.721C461.986 169.656 491.973 168.893 491.973 187.04H445.51C445.51 187.04 413.062 158.941 428.916 124.006C443.104 92.7519 445.573 82.0374 435.422 64.985C430.087 56.0048 393.486 43.2064 393.486 43.2064Z" fill="#424D76"/>
<path d="M444.47 14.1638C456.424 18.0546 471.638 31.9199 469.44 51.483C467.343 70.2016 462.817 73.9925 474.412 87.8306C484.854 100.275 488.091 117.84 481.753 132.568C466.317 168.507 496.281 167.744 496.281 185.886" stroke="#424D76" stroke-width="3" stroke-miterlimit="10"/>
<path d="M435.313 55.8143C435.313 55.8143 442.577 54.879 443.054 57.5168C444.007 62.8786 435.994 64.9715 435.994 64.9715C435.994 64.9715 434.541 68.8805 432.748 72.8077C431.69 75.1276 415.645 82.7458 408.386 81.9831C401.126 81.2204 394.162 62.3383 394.076 45.5038C394.003 33.2775 397.989 26.8896 406.393 26.8896C418.106 26.8896 423.581 35.5702 431.604 33.0913C431.59 33.0868 426.337 45.3086 435.313 55.8143Z" fill="#FFD1CB"/>
<path d="M395.814 61.2303C400.531 61.2303 404.354 57.4069 404.354 52.6905C404.354 47.974 400.531 44.1506 395.814 44.1506C391.098 44.1506 387.275 47.974 387.275 52.6905C387.275 57.4069 391.098 61.2303 395.814 61.2303Z" stroke="#FFB000" stroke-width="4" stroke-miterlimit="10"/>
<path d="M417.112 61.2303C421.828 61.2303 425.652 57.4069 425.652 52.6905C425.652 47.974 421.828 44.1506 417.112 44.1506C412.395 44.1506 408.572 47.974 408.572 52.6905C408.572 57.4069 412.395 61.2303 417.112 61.2303Z" stroke="#FFB000" stroke-width="4" stroke-miterlimit="10"/>
<path d="M404.35 52.6907H408.572" stroke="#FFB000" stroke-width="4" stroke-miterlimit="10"/>
<path d="M425.652 52.6907H443.508" stroke="#FFB000" stroke-width="4" stroke-miterlimit="10"/>
</svg>
