<svg width="900" height="2525" viewBox="0 0 900 2525" fill="none" xmlns="http://www.w3.org/2000/svg">
<path fill-rule="evenodd" clip-rule="evenodd" d="M-362.825 2374.47C-816.879 2393.58 -1306.96 2148.44 -1397.18 1703.03C-1491.66 1236.63 -1132.48 842.821 -721.765 602.46C-242.214 321.81 441.752 -12.6099 776.203 431.097C1088.03 844.795 323.497 1194.7 61.5372 1641.64C-96.2666 1910.88 -51.0248 2361.35 -362.825 2374.47Z" fill="url(#paint0_linear)" fill-opacity="0.49"/>
<path d="M429.797 847.235V961.856C429.797 979.21 434.237 996.276 442.695 1011.43C451.153 1026.58 463.347 1039.32 478.117 1048.43L520.397 1074.51" stroke="#6562CF" stroke-width="6" stroke-miterlimit="10" stroke-linecap="round"/>
<path d="M406.872 847.235V961.856C406.872 979.21 402.432 996.275 393.976 1011.43C385.52 1026.58 373.327 1039.32 358.558 1048.43L316.272 1074.51" stroke="#6562CF" stroke-width="6" stroke-miterlimit="10" stroke-linecap="round"/>
<path d="M430.036 847.229H404.515C398.882 847.229 393.48 844.991 389.497 841.008C385.513 837.025 383.276 831.622 383.276 825.989H451.295C451.295 828.78 450.745 831.544 449.677 834.122C448.608 836.7 447.042 839.042 445.067 841.015C443.093 842.987 440.749 844.551 438.17 845.618C435.591 846.684 432.827 847.231 430.036 847.229Z" fill="white" stroke="#6562CF" stroke-width="5" stroke-miterlimit="10"/>
<path d="M457.767 789.285H478.343L486.361 744.595H465.785L457.767 789.285Z" fill="white" stroke="#6562CF" stroke-width="5" stroke-miterlimit="10"/>
<path d="M299.194 797.475V814.792C299.194 817.082 305.466 819.225 316.371 821.051C337.319 824.562 375.351 826.912 418.799 826.912C484.847 826.912 538.398 821.482 538.398 814.792V797.475C538.398 800.86 524.645 803.933 502.483 806.103C480.911 808.294 451.375 809.621 418.819 809.621C386.263 809.621 356.7 808.294 335.128 806.157C327.934 805.44 321.628 804.637 316.391 803.76C305.466 801.909 299.194 799.765 299.194 797.475Z" fill="#D1D1FF" stroke="#6562CF" stroke-width="5" stroke-miterlimit="10"/>
<path d="M299.194 797.475C299.194 799.765 305.466 801.909 316.371 803.734C321.608 804.61 327.914 805.413 335.108 806.13C356.68 808.294 386.216 809.621 418.819 809.621C451.422 809.621 480.931 808.294 502.503 806.157C524.665 803.96 538.417 800.887 538.417 797.528C538.417 790.831 484.867 785.395 418.819 785.395C366.304 785.395 321.694 788.827 305.612 793.605C301.444 794.78 299.194 796.101 299.194 797.475Z" fill="white" stroke="#6562CF" stroke-width="5" stroke-miterlimit="10"/>
<path d="M468.008 746.062H491.584C512.432 746.062 534.648 719.36 541.205 686.412L556.166 611.237C562.724 578.289 551.141 551.587 530.28 551.587H506.717C485.876 551.587 463.661 578.289 457.103 611.237L442.136 686.412C435.578 719.353 447.16 746.062 468.008 746.062Z" fill="#D1D1FF" stroke="#6562CF" stroke-width="5" stroke-miterlimit="10"/>
<path d="M454.07 746.062H477.646C498.494 746.062 520.709 719.36 527.267 686.412L542.227 611.237C548.785 578.289 537.203 551.587 516.342 551.587H492.779C471.938 551.587 449.722 578.289 443.165 611.237L428.198 686.412C421.64 719.353 433.222 746.062 454.07 746.062Z" fill="white" stroke="#6562CF" stroke-width="5" stroke-miterlimit="10"/>
<path d="M522.289 1106.09C532.747 1106.09 541.225 1097.61 541.225 1087.16C541.225 1076.7 532.747 1068.22 522.289 1068.22C511.83 1068.22 503.352 1076.7 503.352 1087.16C503.352 1097.61 511.83 1106.09 522.289 1106.09Z" fill="#D1D1FF" stroke="#6562CF" stroke-width="5" stroke-miterlimit="10"/>
<path d="M315.867 1106.09C326.325 1106.09 334.803 1097.61 334.803 1087.16C334.803 1076.7 326.325 1068.22 315.867 1068.22C305.409 1068.22 296.93 1076.7 296.93 1087.16C296.93 1097.61 305.409 1106.09 315.867 1106.09Z" fill="#D1D1FF" stroke="#6562CF" stroke-width="5" stroke-miterlimit="10"/>
<path d="M390.497 1017.24C390.497 1017.24 415.009 999.251 446.205 1017.24" stroke="#6562CF" stroke-width="5" stroke-miterlimit="10"/>
<path d="M481.21 742.405C447.359 790.373 311.771 761.036 311.771 761.036C310.875 742.398 312.236 693.494 279.162 665.604L355.631 667.595C416.031 673.244 460.767 661.17 474.685 654.944C486.633 672.321 505.104 708.534 481.21 742.405Z" fill="#6562CF"/>
<path d="M259.051 668.557C259.051 668.557 165.464 674.259 157.453 694.237C132.417 756.522 229.508 952.743 235.628 1000.98C240.752 1041.56 207.213 1063.26 207.213 1063.26C207.213 1063.26 222.307 1073.64 243.486 1067.91C248.02 1066.68 252.221 1060.98 260.684 1054.11C266.976 1049.01 282.474 1039.82 282.209 1032.07C281.771 1019.3 263.159 1009.45 263.684 1001.47C264.208 993.503 279.686 887.006 274.304 841.215C268.33 790.107 229.833 762.177 229.833 762.177L312.07 761.182C312.07 761.182 299.2 694.058 259.051 668.557Z" fill="#B65A18"/>
<path d="M313.364 761.082C313.364 761.082 320.413 696.474 277.523 664.316C274.131 661.774 264.666 664.88 259.223 665.956C257.232 666.354 256.708 668.61 257.896 670.29C286.324 711.156 286.901 746.201 284.943 766.91L313.364 761.082Z" fill="#8382D8"/>
<path d="M281.094 1022.02C283.366 1024.96 284.485 1028.63 284.241 1032.35C283.996 1036.06 282.405 1039.55 279.766 1042.17L250.13 1071.44C250.13 1071.44 197.118 1072.43 194.005 1071.44C190.892 1070.45 193.699 1061.6 202.328 1059.01C210.957 1056.42 222.751 1042.07 222.751 1042.07C222.751 1042.07 232.17 1031.97 247.535 1063.23L257.816 1054.2C257.816 1054.2 255.387 1027.56 259.403 1013.75H235.628C235.083 1013.76 234.543 1013.65 234.039 1013.45C233.535 1013.24 233.076 1012.94 232.689 1012.56C232.302 1012.18 231.995 1011.72 231.785 1011.22C231.575 1010.71 231.467 1010.18 231.466 1009.63C231.494 1008.59 231.925 1007.61 232.669 1006.88C233.413 1006.16 234.41 1005.76 235.448 1005.76H264.932C265.404 1005.75 265.87 1005.85 266.302 1006.05C266.733 1006.24 267.119 1006.52 267.434 1006.87L281.094 1022.02Z" fill="#333B63"/>
<path d="M501.122 762.98C486.739 804.583 368.448 799.094 348.284 797.627C348.287 797.599 348.287 797.57 348.284 797.541C347.388 778.903 341.932 720.096 308.858 692.206L352.757 681.586L357.682 667.787C416.695 672.944 460.375 661.256 474.427 655.07C484.117 667.96 517.145 716.612 501.122 762.98Z" fill="#8382D8"/>
<path d="M279.627 698.426C279.627 698.426 182.489 717.143 178.301 745.551C174.113 773.959 235.628 993.808 228.99 1034.16C222.353 1074.52 178.672 1102.42 178.672 1102.42C178.672 1102.42 214.819 1109.32 234.194 1102.42C238.614 1100.84 246.639 1090.21 254.046 1085.97C261.082 1081.95 275.837 1075 275.571 1067.25C275.133 1054.48 256.522 1043.96 257.046 1035.99C257.571 1028.02 286.987 913.556 281.605 867.764C275.631 816.657 257.046 795.364 257.046 795.364L311.406 794.369C311.406 794.369 321.588 736.697 279.627 698.426Z" fill="#C36F0B"/>
<path d="M315.98 800.681L342.761 803.336C343.51 803.336 344.25 803.185 344.938 802.891C345.627 802.596 346.247 802.165 346.763 801.623C347.279 801.081 347.68 800.439 347.94 799.738C348.2 799.036 348.315 798.289 348.277 797.541C347.374 778.777 341.852 719.28 308.161 691.622C306.789 690.502 305.174 689.719 303.445 689.336C301.716 688.953 299.921 688.982 298.205 689.419L275.638 695.226C275.638 695.226 321.25 726.382 310.53 794.262C310.403 795.052 310.448 795.861 310.663 796.632C310.878 797.402 311.257 798.118 311.775 798.728C312.293 799.338 312.937 799.828 313.663 800.165C314.389 800.503 315.179 800.678 315.98 800.681Z" fill="#E5E6FF"/>
<path d="M273.726 1055.5C276.051 1058.51 277.195 1062.26 276.943 1066.05C276.691 1069.84 275.061 1073.41 272.359 1076.08L242.126 1105.95C242.126 1105.95 181.274 1106.95 178.095 1105.95C174.916 1104.94 177.783 1095.9 186.591 1093.26C195.399 1090.62 207.426 1076 207.426 1076C207.426 1076 223.807 1065.7 239.477 1097.6L249.971 1088.38C249.971 1088.38 247.489 1061.16 251.584 1047.11H227.318C226.762 1047.12 226.211 1047.01 225.697 1046.8C225.182 1046.6 224.714 1046.29 224.319 1045.9C223.924 1045.51 223.61 1045.04 223.396 1044.53C223.181 1044.02 223.071 1043.47 223.07 1042.91C223.096 1041.85 223.536 1040.84 224.298 1040.09C225.059 1039.35 226.081 1038.93 227.145 1038.93H257.219C257.701 1038.93 258.177 1039.03 258.618 1039.22C259.058 1039.42 259.452 1039.71 259.774 1040.06L273.726 1055.5Z" fill="#3F4D79"/>
<path d="M421.64 407.079C430.806 411.904 452.543 422.889 466.17 446.305C479.796 469.722 449.928 554.893 450.326 580.3C450.725 605.708 474.811 649.714 479.006 651.705C483.201 653.696 429.757 675.6 350.905 667.15C350.905 667.15 357.144 631.614 352.591 616.169C348.038 600.724 326.944 555.921 326.944 555.921C326.944 555.921 302.977 537.695 308.088 523.239C311.493 513.608 347.401 454.131 347.401 454.131L421.64 407.079Z" fill="#FFB000"/>
<path d="M501.308 534.17C501.308 534.17 476.929 562.884 432.459 562.884C432.459 562.884 396.849 448.23 437.596 433.754C478.343 419.278 501.308 534.17 501.308 534.17Z" fill="#FFC033"/>
<path d="M504.169 609.611C502.091 628.793 346.08 654.679 346.08 654.679L346.034 654.586C343.199 656.039 332.805 660.858 325.803 657.294C317.632 653.119 310.411 651.32 305.413 652.415C299.24 653.743 292.211 658.509 288.693 657.453C284.429 656.214 280.443 654.165 276.952 651.42C280.383 647.458 284.011 643.672 287.824 640.077C284.313 641.178 279.295 644.059 276.7 644.928C272.538 646.362 270.958 642.327 270.958 642.327C270.958 642.327 280.954 635.278 283.676 633.698C288.428 631.003 299.114 628.388 302.048 628.388C307.178 628.521 334.67 631.992 348.277 634.455C370.625 622.78 427.434 593.489 449.483 586.002L441.983 561.815C441.983 561.815 473.63 558.729 495.872 538.585C495.872 538.644 506.313 589.772 504.169 609.611Z" fill="#C36F0B"/>
<path d="M281.426 652.727C281.426 652.727 296.439 639.751 299.738 639.453C305.552 638.895 313.145 638.125 313.145 638.125" stroke="#A55F2B" stroke-width="4" stroke-miterlimit="10" stroke-linecap="round"/>
<path d="M286.311 655.555C286.311 655.555 299.585 644.935 302.904 644.61C308.718 644.052 316.311 643.282 316.311 643.282" stroke="#A55F2B" stroke-width="4" stroke-miterlimit="10" stroke-linecap="round"/>
<path d="M499.396 557.873C489.606 563.621 471.898 571.26 444.174 568.99L441.977 561.895C441.977 561.895 473.63 558.815 495.865 538.664C495.865 538.644 497.538 546.782 499.396 557.873Z" fill="#B65A18"/>
<path d="M449.643 339.842C449.643 339.842 444.519 411.22 294.494 430.628C294.494 430.628 274.921 414.731 286.53 398.689C298.138 382.646 310.988 376.746 300.023 365.874C289.058 355.002 273.739 332.468 295.868 311.7C317.997 290.931 368.581 263.406 405.325 283.511C442.07 303.615 397.008 340.479 449.643 339.842Z" fill="#3F4D79"/>
<path d="M287.22 430.668C287.22 430.668 267.646 414.771 279.255 398.735C290.864 382.699 302.433 376.792 291.461 365.92C280.49 355.048 269.166 328.93 294.156 311.713C323.174 291.721 353.673 282.635 389.528 296.447" stroke="#3F4D79" stroke-width="4" stroke-miterlimit="10"/>
<path d="M382.977 344.813C382.977 344.813 389.077 387.757 421.527 407.072C421.527 407.072 400.287 449.637 346.113 456.52C346.113 456.52 361.578 428.371 361.538 419.404C361.499 410.437 354.436 384.498 354.436 384.498L382.977 344.813Z" fill="#C36F0B"/>
<path d="M384.65 360.823C385.194 380.861 371.163 396.532 359.321 404.795C357.251 394.892 354.436 384.498 354.436 384.498L382.977 344.813C383.423 347.588 384.015 350.338 384.749 353.05C384.61 355.413 384.57 358.015 384.65 360.823Z" fill="#B65A18"/>
<path d="M379.658 327.118C368.614 314.507 351.947 305.587 336.774 310.458C313.444 317.959 310.344 356.595 340.299 391.667C343.85 395.822 378.324 382.812 381.816 355.201C383.641 340.778 379.658 327.118 379.658 327.118Z" fill="#C36F0B"/>
<path d="M380.986 329.866L369.424 282.814C367.346 274.796 359.746 269.778 351.861 271.258L329.062 276.123C321.761 277.504 317.606 285.721 317.639 293.46" stroke="#FFB000" stroke-width="5" stroke-miterlimit="10" stroke-linecap="round"/>
<path d="M381.818 326.286L379.811 326.769C371.781 328.701 366.838 336.777 368.77 344.806L369.253 346.813C371.185 354.843 379.261 359.786 387.291 357.854L389.298 357.371C397.327 355.439 402.27 347.363 400.338 339.333L399.855 337.326C397.923 329.297 389.847 324.354 381.818 326.286Z" fill="white"/>
<path d="M391.181 355.533C396.491 371.462 415.361 407.463 391.181 448.768C367.001 490.072 336.21 520.956 359.793 564.629C380.262 602.542 378.908 660.792 323.951 660.792" stroke="white" stroke-width="5" stroke-miterlimit="10" stroke-linecap="round"/>
<path d="M166.891 656.683H156.683C154.403 656.684 152.172 656.021 150.263 654.774C148.355 653.526 146.851 651.749 145.937 649.661L79.975 498.083C79.1981 496.3 78.8774 494.351 79.0418 492.413C79.2063 490.475 79.8508 488.609 80.917 486.982C81.9833 485.355 83.4379 484.019 85.1495 483.095C86.8611 482.171 88.7758 481.688 90.7209 481.689L166.891 656.683Z" fill="white" stroke="#6562CF" stroke-width="6" stroke-miterlimit="10"/>
<path d="M377.136 673.462H175.301C173.098 673.462 170.916 673.028 168.881 672.185C166.845 671.342 164.996 670.106 163.438 668.547C161.881 666.989 160.646 665.139 159.803 663.104C158.961 661.068 158.527 658.886 158.528 656.683H360.357C364.807 656.683 369.075 658.451 372.222 661.598C375.368 664.744 377.136 669.012 377.136 673.462Z" fill="white" stroke="#6562CF" stroke-width="6" stroke-miterlimit="10"/>
<defs>
<linearGradient id="paint0_linear" x1="-459.251" y1="2380.34" x2="270.52" y2="-419.364" gradientUnits="userSpaceOnUse">
<stop stop-color="#FCF089"/>
<stop offset="1" stop-color="#FF0000"/>
</linearGradient>
</defs>
</svg>
