<svg width="370" height="601" viewBox="0 0 370 601" fill="none" xmlns="http://www.w3.org/2000/svg">
<path opacity="0.6" d="M62.6019 559.18H64.5419V565.66C64.3819 565.713 64.1485 565.773 63.8419 565.84C63.5485 565.907 63.2019 565.973 62.8019 566.04C62.4152 566.107 61.9885 566.16 61.5219 566.2C61.0552 566.253 60.5819 566.28 60.1019 566.28C59.1285 566.28 58.2419 566.12 57.4419 565.8C56.6419 565.48 55.9552 565.013 55.3819 564.4C54.8085 563.787 54.3619 563.033 54.0419 562.14C53.7352 561.247 53.5819 560.22 53.5819 559.06C53.5819 557.9 53.7552 556.873 54.1019 555.98C54.4619 555.073 54.9419 554.313 55.5419 553.7C56.1419 553.087 56.8419 552.62 57.6419 552.3C58.4552 551.98 59.3219 551.82 60.2419 551.82C60.8685 551.82 61.4219 551.86 61.9019 551.94C62.3952 552.02 62.8152 552.113 63.1619 552.22C63.5085 552.327 63.7885 552.433 64.0019 552.54C64.2285 552.647 64.3819 552.727 64.4619 552.78L63.8419 554.4C63.4552 554.147 62.9419 553.94 62.3019 553.78C61.6619 553.607 61.0085 553.52 60.3419 553.52C59.6352 553.52 58.9885 553.647 58.4019 553.9C57.8285 554.153 57.3352 554.52 56.9219 555C56.5219 555.48 56.2085 556.067 55.9819 556.76C55.7552 557.44 55.6419 558.207 55.6419 559.06C55.6419 559.887 55.7352 560.64 55.9219 561.32C56.1219 562 56.4152 562.587 56.8019 563.08C57.2019 563.56 57.6885 563.933 58.2619 564.2C58.8485 564.467 59.5352 564.6 60.3219 564.6C60.8819 564.6 61.3552 564.573 61.7419 564.52C62.1419 564.453 62.4285 564.393 62.6019 564.34V559.18ZM66.8794 560.82C66.8794 559.9 67.0127 559.1 67.2794 558.42C67.546 557.727 67.8994 557.153 68.3394 556.7C68.7794 556.247 69.286 555.907 69.8594 555.68C70.4327 555.453 71.0194 555.34 71.6194 555.34C73.0194 555.34 74.0927 555.78 74.8394 556.66C75.586 557.527 75.9594 558.853 75.9594 560.64C75.9594 560.72 75.9594 560.827 75.9594 560.96C75.9594 561.08 75.9527 561.193 75.9394 561.3H68.8194C68.8994 562.38 69.2127 563.2 69.7594 563.76C70.306 564.32 71.1594 564.6 72.3194 564.6C72.9727 564.6 73.5194 564.547 73.9594 564.44C74.4127 564.32 74.7527 564.207 74.9794 564.1L75.2394 565.66C75.0127 565.78 74.6127 565.907 74.0394 566.04C73.4794 566.173 72.8394 566.24 72.1194 566.24C71.2127 566.24 70.426 566.107 69.7594 565.84C69.106 565.56 68.566 565.18 68.1394 564.7C67.7127 564.22 67.3927 563.653 67.1794 563C66.9794 562.333 66.8794 561.607 66.8794 560.82ZM74.0194 559.8C74.0327 558.96 73.8194 558.273 73.3794 557.74C72.9527 557.193 72.3594 556.92 71.5994 556.92C71.1727 556.92 70.7927 557.007 70.4594 557.18C70.1394 557.34 69.866 557.553 69.6394 557.82C69.4127 558.087 69.2327 558.393 69.0994 558.74C68.9794 559.087 68.8994 559.44 68.8594 559.8H74.0194ZM80.3713 555.6H84.3113V557.16H80.3713V561.96C80.3713 562.48 80.4113 562.913 80.4913 563.26C80.5713 563.593 80.6913 563.86 80.8513 564.06C81.0113 564.247 81.2113 564.38 81.4513 564.46C81.6913 564.54 81.9713 564.58 82.2913 564.58C82.8513 564.58 83.2979 564.52 83.6313 564.4C83.9779 564.267 84.2179 564.173 84.3513 564.12L84.7113 565.66C84.5246 565.753 84.1979 565.867 83.7313 566C83.2646 566.147 82.7313 566.22 82.1313 566.22C81.4246 566.22 80.8379 566.133 80.3713 565.96C79.9179 565.773 79.5513 565.5 79.2713 565.14C78.9913 564.78 78.7913 564.34 78.6713 563.82C78.5646 563.287 78.5113 562.673 78.5113 561.98V552.7L80.3713 552.38V555.6ZM93.167 566H91.307V555.6H93.167V566ZM92.227 553.72C91.8937 553.72 91.607 553.613 91.367 553.4C91.1404 553.173 91.027 552.873 91.027 552.5C91.027 552.127 91.1404 551.833 91.367 551.62C91.607 551.393 91.8937 551.28 92.227 551.28C92.5604 551.28 92.8404 551.393 93.067 551.62C93.307 551.833 93.427 552.127 93.427 552.5C93.427 552.873 93.307 553.173 93.067 553.4C92.8404 553.613 92.5604 553.72 92.227 553.72ZM96.3656 555.9C96.7923 555.793 97.359 555.68 98.0656 555.56C98.7723 555.44 99.5856 555.38 100.506 555.38C101.332 555.38 102.019 555.5 102.566 555.74C103.112 555.967 103.546 556.293 103.866 556.72C104.199 557.133 104.432 557.633 104.566 558.22C104.699 558.807 104.766 559.453 104.766 560.16V566H102.906V560.56C102.906 559.92 102.859 559.373 102.766 558.92C102.686 558.467 102.546 558.1 102.346 557.82C102.146 557.54 101.879 557.34 101.546 557.22C101.212 557.087 100.799 557.02 100.306 557.02C100.106 557.02 99.899 557.027 99.6856 557.04C99.4723 557.053 99.2656 557.073 99.0656 557.1C98.879 557.113 98.7056 557.133 98.5456 557.16C98.399 557.187 98.2923 557.207 98.2256 557.22V566H96.3656V555.9ZM114.219 555.6H118.159V557.16H114.219V561.96C114.219 562.48 114.259 562.913 114.339 563.26C114.419 563.593 114.539 563.86 114.699 564.06C114.859 564.247 115.059 564.38 115.299 564.46C115.539 564.54 115.819 564.58 116.139 564.58C116.699 564.58 117.146 564.52 117.479 564.4C117.826 564.267 118.066 564.173 118.199 564.12L118.559 565.66C118.372 565.753 118.046 565.867 117.579 566C117.112 566.147 116.579 566.22 115.979 566.22C115.272 566.22 114.686 566.133 114.219 565.96C113.766 565.773 113.399 565.5 113.119 565.14C112.839 564.78 112.639 564.34 112.519 563.82C112.412 563.287 112.359 562.673 112.359 561.98V552.7L114.219 552.38V555.6ZM129.432 560.8C129.432 561.627 129.312 562.373 129.072 563.04C128.832 563.707 128.492 564.28 128.052 564.76C127.626 565.24 127.112 565.613 126.512 565.88C125.912 566.133 125.259 566.26 124.552 566.26C123.846 566.26 123.192 566.133 122.592 565.88C121.992 565.613 121.472 565.24 121.032 564.76C120.606 564.28 120.272 563.707 120.032 563.04C119.792 562.373 119.672 561.627 119.672 560.8C119.672 559.987 119.792 559.247 120.032 558.58C120.272 557.9 120.606 557.32 121.032 556.84C121.472 556.36 121.992 555.993 122.592 555.74C123.192 555.473 123.846 555.34 124.552 555.34C125.259 555.34 125.912 555.473 126.512 555.74C127.112 555.993 127.626 556.36 128.052 556.84C128.492 557.32 128.832 557.9 129.072 558.58C129.312 559.247 129.432 559.987 129.432 560.8ZM127.492 560.8C127.492 559.627 127.226 558.7 126.692 558.02C126.172 557.327 125.459 556.98 124.552 556.98C123.646 556.98 122.926 557.327 122.392 558.02C121.872 558.7 121.612 559.627 121.612 560.8C121.612 561.973 121.872 562.907 122.392 563.6C122.926 564.28 123.646 564.62 124.552 564.62C125.459 564.62 126.172 564.28 126.692 563.6C127.226 562.907 127.492 561.973 127.492 560.8ZM140.329 565.7C139.903 565.807 139.336 565.92 138.629 566.04C137.936 566.16 137.129 566.22 136.209 566.22C135.409 566.22 134.736 566.107 134.189 565.88C133.643 565.64 133.203 565.307 132.869 564.88C132.536 564.453 132.296 563.953 132.149 563.38C132.003 562.793 131.929 562.147 131.929 561.44V555.6H133.789V561.04C133.789 562.307 133.989 563.213 134.389 563.76C134.789 564.307 135.463 564.58 136.409 564.58C136.609 564.58 136.816 564.573 137.029 564.56C137.243 564.547 137.443 564.533 137.629 564.52C137.816 564.493 137.983 564.473 138.129 564.46C138.289 564.433 138.403 564.407 138.469 564.38V555.6H140.329V565.7ZM148.054 566.24C147.214 566.24 146.474 566.107 145.834 565.84C145.207 565.573 144.674 565.2 144.234 564.72C143.807 564.24 143.487 563.673 143.274 563.02C143.06 562.353 142.954 561.62 142.954 560.82C142.954 560.02 143.067 559.287 143.294 558.62C143.534 557.953 143.867 557.38 144.294 556.9C144.72 556.407 145.24 556.027 145.854 555.76C146.48 555.48 147.174 555.34 147.934 555.34C148.4 555.34 148.867 555.38 149.334 555.46C149.8 555.54 150.247 555.667 150.674 555.84L150.254 557.42C149.974 557.287 149.647 557.18 149.274 557.1C148.914 557.02 148.527 556.98 148.114 556.98C147.074 556.98 146.274 557.307 145.714 557.96C145.167 558.613 144.894 559.567 144.894 560.82C144.894 561.38 144.954 561.893 145.074 562.36C145.207 562.827 145.407 563.227 145.674 563.56C145.954 563.893 146.307 564.153 146.734 564.34C147.16 564.513 147.68 564.6 148.294 564.6C148.787 564.6 149.234 564.553 149.634 564.46C150.034 564.367 150.347 564.267 150.574 564.16L150.834 565.72C150.727 565.787 150.574 565.853 150.374 565.92C150.174 565.973 149.947 566.02 149.694 566.06C149.44 566.113 149.167 566.153 148.874 566.18C148.594 566.22 148.32 566.24 148.054 566.24ZM152.83 566V550.8L154.69 550.48V555.8C155.037 555.667 155.404 555.567 155.79 555.5C156.19 555.42 156.584 555.38 156.97 555.38C157.797 555.38 158.484 555.5 159.03 555.74C159.577 555.967 160.01 556.293 160.33 556.72C160.664 557.133 160.897 557.633 161.03 558.22C161.164 558.807 161.23 559.453 161.23 560.16V566H159.37V560.56C159.37 559.92 159.324 559.373 159.23 558.92C159.15 558.467 159.01 558.1 158.81 557.82C158.61 557.54 158.344 557.34 158.01 557.22C157.677 557.087 157.264 557.02 156.77 557.02C156.57 557.02 156.364 557.033 156.15 557.06C155.937 557.087 155.73 557.12 155.53 557.16C155.344 557.187 155.17 557.22 155.01 557.26C154.864 557.3 154.757 557.333 154.69 557.36V566H152.83ZM177.385 566C177.012 565.04 176.612 563.947 176.185 562.72C175.772 561.48 175.392 560.193 175.045 558.86C174.698 560.193 174.318 561.48 173.905 562.72C173.492 563.947 173.098 565.04 172.725 566H171.105C170.492 564.627 169.892 563.06 169.305 561.3C168.718 559.54 168.165 557.64 167.645 555.6H169.645C169.778 556.227 169.938 556.907 170.125 557.64C170.312 558.373 170.505 559.107 170.705 559.84C170.918 560.573 171.138 561.28 171.365 561.96C171.592 562.64 171.805 563.233 172.005 563.74C172.232 563.113 172.452 562.453 172.665 561.76C172.892 561.053 173.105 560.347 173.305 559.64C173.505 558.92 173.692 558.22 173.865 557.54C174.052 556.847 174.212 556.2 174.345 555.6H175.885C176.005 556.2 176.152 556.847 176.325 557.54C176.498 558.22 176.685 558.92 176.885 559.64C177.085 560.347 177.292 561.053 177.505 561.76C177.732 562.453 177.958 563.113 178.185 563.74C178.385 563.233 178.592 562.64 178.805 561.96C179.032 561.28 179.252 560.573 179.465 559.84C179.678 559.107 179.878 558.373 180.065 557.64C180.252 556.907 180.412 556.227 180.545 555.6H182.465C181.945 557.64 181.392 559.54 180.805 561.3C180.218 563.06 179.618 564.627 179.005 566H177.385ZM186.292 566H184.432V555.6H186.292V566ZM185.352 553.72C185.019 553.72 184.732 553.613 184.492 553.4C184.265 553.173 184.152 552.873 184.152 552.5C184.152 552.127 184.265 551.833 184.492 551.62C184.732 551.393 185.019 551.28 185.352 551.28C185.685 551.28 185.965 551.393 186.192 551.62C186.432 551.833 186.552 552.127 186.552 552.5C186.552 552.873 186.432 553.173 186.192 553.4C185.965 553.613 185.685 553.72 185.352 553.72ZM191.231 555.6H195.171V557.16H191.231V561.96C191.231 562.48 191.271 562.913 191.351 563.26C191.431 563.593 191.551 563.86 191.711 564.06C191.871 564.247 192.071 564.38 192.311 564.46C192.551 564.54 192.831 564.58 193.151 564.58C193.711 564.58 194.157 564.52 194.491 564.4C194.837 564.267 195.077 564.173 195.211 564.12L195.571 565.66C195.384 565.753 195.057 565.867 194.591 566C194.124 566.147 193.591 566.22 192.991 566.22C192.284 566.22 191.697 566.133 191.231 565.96C190.777 565.773 190.411 565.5 190.131 565.14C189.851 564.78 189.651 564.34 189.531 563.82C189.424 563.287 189.371 562.673 189.371 561.98V552.7L191.231 552.38V555.6ZM197.538 566V550.8L199.398 550.48V555.8C199.744 555.667 200.111 555.567 200.498 555.5C200.898 555.42 201.291 555.38 201.678 555.38C202.504 555.38 203.191 555.5 203.738 555.74C204.284 555.967 204.718 556.293 205.038 556.72C205.371 557.133 205.604 557.633 205.738 558.22C205.871 558.807 205.938 559.453 205.938 560.16V566H204.078V560.56C204.078 559.92 204.031 559.373 203.938 558.92C203.858 558.467 203.718 558.1 203.518 557.82C203.318 557.54 203.051 557.34 202.718 557.22C202.384 557.087 201.971 557.02 201.478 557.02C201.278 557.02 201.071 557.033 200.858 557.06C200.644 557.087 200.438 557.12 200.238 557.16C200.051 557.187 199.878 557.22 199.718 557.26C199.571 557.3 199.464 557.333 199.398 557.36V566H197.538ZM221.872 565.7C221.446 565.807 220.879 565.92 220.172 566.04C219.479 566.16 218.672 566.22 217.752 566.22C216.952 566.22 216.279 566.107 215.732 565.88C215.186 565.64 214.746 565.307 214.412 564.88C214.079 564.453 213.839 563.953 213.692 563.38C213.546 562.793 213.472 562.147 213.472 561.44V555.6H215.332V561.04C215.332 562.307 215.532 563.213 215.932 563.76C216.332 564.307 217.006 564.58 217.952 564.58C218.152 564.58 218.359 564.573 218.572 564.56C218.786 564.547 218.986 564.533 219.172 564.52C219.359 564.493 219.526 564.473 219.672 564.46C219.832 564.433 219.946 564.407 220.012 564.38V555.6H221.872V565.7ZM227.497 564.66C228.257 564.66 228.817 564.56 229.177 564.36C229.55 564.16 229.737 563.84 229.737 563.4C229.737 562.947 229.557 562.587 229.197 562.32C228.837 562.053 228.243 561.753 227.417 561.42C227.017 561.26 226.63 561.1 226.257 560.94C225.897 560.767 225.583 560.567 225.317 560.34C225.05 560.113 224.837 559.84 224.677 559.52C224.517 559.2 224.437 558.807 224.437 558.34C224.437 557.42 224.777 556.693 225.457 556.16C226.137 555.613 227.063 555.34 228.237 555.34C228.53 555.34 228.823 555.36 229.117 555.4C229.41 555.427 229.683 555.467 229.937 555.52C230.19 555.56 230.41 555.607 230.597 555.66C230.797 555.713 230.95 555.76 231.057 555.8L230.717 557.4C230.517 557.293 230.203 557.187 229.777 557.08C229.35 556.96 228.837 556.9 228.237 556.9C227.717 556.9 227.263 557.007 226.877 557.22C226.49 557.42 226.297 557.74 226.297 558.18C226.297 558.407 226.337 558.607 226.417 558.78C226.51 558.953 226.643 559.113 226.817 559.26C227.003 559.393 227.23 559.52 227.497 559.64C227.763 559.76 228.083 559.887 228.457 560.02C228.95 560.207 229.39 560.393 229.777 560.58C230.163 560.753 230.49 560.96 230.757 561.2C231.037 561.44 231.25 561.733 231.397 562.08C231.543 562.413 231.617 562.827 231.617 563.32C231.617 564.28 231.257 565.007 230.537 565.5C229.83 565.993 228.817 566.24 227.497 566.24C226.577 566.24 225.857 566.16 225.337 566C224.817 565.853 224.463 565.74 224.277 565.66L224.617 564.06C224.83 564.14 225.17 564.26 225.637 564.42C226.103 564.58 226.723 564.66 227.497 564.66ZM240.371 555.6H244.311V557.16H240.371V561.96C240.371 562.48 240.411 562.913 240.491 563.26C240.571 563.593 240.691 563.86 240.851 564.06C241.011 564.247 241.211 564.38 241.451 564.46C241.691 564.54 241.971 564.58 242.291 564.58C242.851 564.58 243.298 564.52 243.631 564.4C243.978 564.267 244.218 564.173 244.351 564.12L244.711 565.66C244.525 565.753 244.198 565.867 243.731 566C243.265 566.147 242.731 566.22 242.131 566.22C241.425 566.22 240.838 566.133 240.371 565.96C239.918 565.773 239.551 565.5 239.271 565.14C238.991 564.78 238.791 564.34 238.671 563.82C238.565 563.287 238.511 562.673 238.511 561.98V552.7L240.371 552.38V555.6ZM255.585 560.8C255.585 561.627 255.465 562.373 255.225 563.04C254.985 563.707 254.645 564.28 254.205 564.76C253.778 565.24 253.265 565.613 252.665 565.88C252.065 566.133 251.411 566.26 250.705 566.26C249.998 566.26 249.345 566.133 248.745 565.88C248.145 565.613 247.625 565.24 247.185 564.76C246.758 564.28 246.425 563.707 246.185 563.04C245.945 562.373 245.825 561.627 245.825 560.8C245.825 559.987 245.945 559.247 246.185 558.58C246.425 557.9 246.758 557.32 247.185 556.84C247.625 556.36 248.145 555.993 248.745 555.74C249.345 555.473 249.998 555.34 250.705 555.34C251.411 555.34 252.065 555.473 252.665 555.74C253.265 555.993 253.778 556.36 254.205 556.84C254.645 557.32 254.985 557.9 255.225 558.58C255.465 559.247 255.585 559.987 255.585 560.8ZM253.645 560.8C253.645 559.627 253.378 558.7 252.845 558.02C252.325 557.327 251.611 556.98 250.705 556.98C249.798 556.98 249.078 557.327 248.545 558.02C248.025 558.7 247.765 559.627 247.765 560.8C247.765 561.973 248.025 562.907 248.545 563.6C249.078 564.28 249.798 564.62 250.705 564.62C251.611 564.62 252.325 564.28 252.845 563.6C253.378 562.907 253.645 561.973 253.645 560.8ZM269.35 564.96C269.19 565.067 268.877 565.207 268.41 565.38C267.957 565.54 267.424 565.62 266.81 565.62C266.184 565.62 265.59 565.52 265.03 565.32C264.484 565.12 264.004 564.813 263.59 564.4C263.177 563.973 262.85 563.447 262.61 562.82C262.37 562.193 262.25 561.447 262.25 560.58C262.25 559.82 262.364 559.127 262.59 558.5C262.817 557.86 263.144 557.313 263.57 556.86C264.01 556.393 264.544 556.033 265.17 555.78C265.797 555.513 266.504 555.38 267.29 555.38C268.157 555.38 268.91 555.447 269.55 555.58C270.204 555.7 270.75 555.813 271.19 555.92V565.2C271.19 566.8 270.777 567.96 269.95 568.68C269.124 569.4 267.87 569.76 266.19 569.76C265.537 569.76 264.917 569.707 264.33 569.6C263.757 569.493 263.257 569.367 262.83 569.22L263.17 567.6C263.544 567.747 263.997 567.873 264.53 567.98C265.077 568.1 265.644 568.16 266.23 568.16C267.337 568.16 268.13 567.94 268.61 567.5C269.104 567.06 269.35 566.36 269.35 565.4V564.96ZM269.33 557.24C269.144 557.187 268.89 557.14 268.57 557.1C268.264 557.047 267.844 557.02 267.31 557.02C266.31 557.02 265.537 557.347 264.99 558C264.457 558.653 264.19 559.52 264.19 560.6C264.19 561.2 264.264 561.713 264.41 562.14C264.57 562.567 264.777 562.92 265.03 563.2C265.297 563.48 265.597 563.687 265.93 563.82C266.277 563.953 266.63 564.02 266.99 564.02C267.484 564.02 267.937 563.953 268.35 563.82C268.764 563.673 269.09 563.507 269.33 563.32V557.24ZM273.813 560.82C273.813 559.9 273.946 559.1 274.213 558.42C274.48 557.727 274.833 557.153 275.273 556.7C275.713 556.247 276.22 555.907 276.793 555.68C277.366 555.453 277.953 555.34 278.553 555.34C279.953 555.34 281.026 555.78 281.773 556.66C282.52 557.527 282.893 558.853 282.893 560.64C282.893 560.72 282.893 560.827 282.893 560.96C282.893 561.08 282.886 561.193 282.873 561.3H275.753C275.833 562.38 276.146 563.2 276.693 563.76C277.24 564.32 278.093 564.6 279.253 564.6C279.906 564.6 280.453 564.547 280.893 564.44C281.346 564.32 281.686 564.207 281.913 564.1L282.173 565.66C281.946 565.78 281.546 565.907 280.973 566.04C280.413 566.173 279.773 566.24 279.053 566.24C278.146 566.24 277.36 566.107 276.693 565.84C276.04 565.56 275.5 565.18 275.073 564.7C274.646 564.22 274.326 563.653 274.113 563C273.913 562.333 273.813 561.607 273.813 560.82ZM280.953 559.8C280.966 558.96 280.753 558.273 280.313 557.74C279.886 557.193 279.293 556.92 278.533 556.92C278.106 556.92 277.726 557.007 277.393 557.18C277.073 557.34 276.8 557.553 276.573 557.82C276.346 558.087 276.166 558.393 276.033 558.74C275.913 559.087 275.833 559.44 275.793 559.8H280.953ZM287.305 555.6H291.245V557.16H287.305V561.96C287.305 562.48 287.345 562.913 287.425 563.26C287.505 563.593 287.625 563.86 287.785 564.06C287.945 564.247 288.145 564.38 288.385 564.46C288.625 564.54 288.905 564.58 289.225 564.58C289.785 564.58 290.232 564.52 290.565 564.4C290.912 564.267 291.152 564.173 291.285 564.12L291.645 565.66C291.458 565.753 291.132 565.867 290.665 566C290.198 566.147 289.665 566.22 289.065 566.22C288.358 566.22 287.772 566.133 287.305 565.96C286.852 565.773 286.485 565.5 286.205 565.14C285.925 564.78 285.725 564.34 285.605 563.82C285.498 563.287 285.445 562.673 285.445 561.98V552.7L287.305 552.38V555.6ZM297.021 567.94C297.167 568.007 297.354 568.067 297.581 568.12C297.821 568.187 298.054 568.22 298.281 568.22C299.014 568.22 299.587 568.053 300.001 567.72C300.414 567.4 300.787 566.873 301.121 566.14C300.281 564.54 299.494 562.847 298.761 561.06C298.041 559.26 297.441 557.44 296.961 555.6H298.961C299.107 556.2 299.281 556.847 299.481 557.54C299.694 558.233 299.927 558.947 300.181 559.68C300.434 560.413 300.707 561.147 301.001 561.88C301.294 562.613 301.601 563.32 301.921 564C302.427 562.6 302.867 561.213 303.241 559.84C303.614 558.467 303.967 557.053 304.301 555.6H306.221C305.741 557.56 305.207 559.447 304.621 561.26C304.034 563.06 303.401 564.747 302.721 566.32C302.454 566.92 302.174 567.433 301.881 567.86C301.601 568.3 301.287 568.66 300.941 568.94C300.594 569.22 300.201 569.427 299.761 569.56C299.334 569.693 298.847 569.76 298.301 569.76C298.154 569.76 298.001 569.747 297.841 569.72C297.681 569.707 297.521 569.68 297.361 569.64C297.214 569.613 297.074 569.58 296.941 569.54C296.821 569.5 296.734 569.467 296.681 569.44L297.021 567.94ZM317.362 560.8C317.362 561.627 317.242 562.373 317.002 563.04C316.762 563.707 316.422 564.28 315.982 564.76C315.555 565.24 315.042 565.613 314.442 565.88C313.842 566.133 313.189 566.26 312.482 566.26C311.775 566.26 311.122 566.133 310.522 565.88C309.922 565.613 309.402 565.24 308.962 564.76C308.535 564.28 308.202 563.707 307.962 563.04C307.722 562.373 307.602 561.627 307.602 560.8C307.602 559.987 307.722 559.247 307.962 558.58C308.202 557.9 308.535 557.32 308.962 556.84C309.402 556.36 309.922 555.993 310.522 555.74C311.122 555.473 311.775 555.34 312.482 555.34C313.189 555.34 313.842 555.473 314.442 555.74C315.042 555.993 315.555 556.36 315.982 556.84C316.422 557.32 316.762 557.9 317.002 558.58C317.242 559.247 317.362 559.987 317.362 560.8ZM315.422 560.8C315.422 559.627 315.155 558.7 314.622 558.02C314.102 557.327 313.389 556.98 312.482 556.98C311.575 556.98 310.855 557.327 310.322 558.02C309.802 558.7 309.542 559.627 309.542 560.8C309.542 561.973 309.802 562.907 310.322 563.6C310.855 564.28 311.575 564.62 312.482 564.62C313.389 564.62 314.102 564.28 314.622 563.6C315.155 562.907 315.422 561.973 315.422 560.8ZM328.259 565.7C327.832 565.807 327.266 565.92 326.559 566.04C325.866 566.16 325.059 566.22 324.139 566.22C323.339 566.22 322.666 566.107 322.119 565.88C321.572 565.64 321.132 565.307 320.799 564.88C320.466 564.453 320.226 563.953 320.079 563.38C319.932 562.793 319.859 562.147 319.859 561.44V555.6H321.719V561.04C321.719 562.307 321.919 563.213 322.319 563.76C322.719 564.307 323.392 564.58 324.339 564.58C324.539 564.58 324.746 564.573 324.959 564.56C325.172 564.547 325.372 564.533 325.559 564.52C325.746 564.493 325.912 564.473 326.059 564.46C326.219 564.433 326.332 564.407 326.399 564.38V555.6H328.259V565.7ZM335.303 555.38C335.463 555.38 335.643 555.393 335.843 555.42C336.057 555.433 336.263 555.46 336.463 555.5C336.663 555.527 336.843 555.56 337.003 555.6C337.177 555.627 337.303 555.653 337.383 555.68L337.063 557.3C336.917 557.247 336.67 557.187 336.323 557.12C335.99 557.04 335.557 557 335.023 557C334.677 557 334.33 557.04 333.983 557.12C333.65 557.187 333.43 557.233 333.323 557.26V566H331.463V556.04C331.903 555.88 332.45 555.733 333.103 555.6C333.757 555.453 334.49 555.38 335.303 555.38ZM81.1442 588.82C81.1442 587.607 80.8442 586.673 80.2442 586.02C79.6442 585.367 78.8442 585.04 77.8442 585.04C77.2842 585.04 76.8442 585.06 76.5242 585.1C76.2176 585.14 75.9709 585.187 75.7842 585.24V591.8C76.0109 591.987 76.3376 592.167 76.7642 592.34C77.1909 592.513 77.6576 592.6 78.1642 592.6C78.6976 592.6 79.1509 592.507 79.5242 592.32C79.9109 592.12 80.2242 591.853 80.4642 591.52C80.7042 591.173 80.8776 590.773 80.9842 590.32C81.0909 589.853 81.1442 589.353 81.1442 588.82ZM83.0842 588.82C83.0842 589.607 82.9776 590.333 82.7642 591C82.5642 591.667 82.2642 592.24 81.8642 592.72C81.4642 593.2 80.9709 593.573 80.3842 593.84C79.8109 594.107 79.1509 594.24 78.4042 594.24C77.8042 594.24 77.2709 594.16 76.8042 594C76.3509 593.84 76.0109 593.687 75.7842 593.54V597.7H73.9242V583.92C74.3642 583.813 74.9109 583.7 75.5642 583.58C76.2309 583.447 76.9976 583.38 77.8642 583.38C78.6642 583.38 79.3842 583.507 80.0242 583.76C80.6642 584.013 81.2109 584.373 81.6642 584.84C82.1176 585.307 82.4642 585.88 82.7042 586.56C82.9576 587.227 83.0842 587.98 83.0842 588.82ZM89.5416 583.38C89.7016 583.38 89.8816 583.393 90.0816 583.42C90.2949 583.433 90.5016 583.46 90.7016 583.5C90.9016 583.527 91.0816 583.56 91.2416 583.6C91.4149 583.627 91.5416 583.653 91.6216 583.68L91.3016 585.3C91.1549 585.247 90.9082 585.187 90.5616 585.12C90.2282 585.04 89.7949 585 89.2616 585C88.9149 585 88.5682 585.04 88.2216 585.12C87.8882 585.187 87.6682 585.233 87.5616 585.26V594H85.7016V584.04C86.1416 583.88 86.6882 583.733 87.3416 583.6C87.9949 583.453 88.7282 583.38 89.5416 583.38ZM102.596 588.8C102.596 589.627 102.476 590.373 102.236 591.04C101.996 591.707 101.656 592.28 101.216 592.76C100.79 593.24 100.276 593.613 99.6764 593.88C99.0764 594.133 98.4231 594.26 97.7164 594.26C97.0097 594.26 96.3564 594.133 95.7564 593.88C95.1564 593.613 94.6364 593.24 94.1964 592.76C93.7697 592.28 93.4364 591.707 93.1964 591.04C92.9564 590.373 92.8364 589.627 92.8364 588.8C92.8364 587.987 92.9564 587.247 93.1964 586.58C93.4364 585.9 93.7697 585.32 94.1964 584.84C94.6364 584.36 95.1564 583.993 95.7564 583.74C96.3564 583.473 97.0097 583.34 97.7164 583.34C98.4231 583.34 99.0764 583.473 99.6764 583.74C100.276 583.993 100.79 584.36 101.216 584.84C101.656 585.32 101.996 585.9 102.236 586.58C102.476 587.247 102.596 587.987 102.596 588.8ZM100.656 588.8C100.656 587.627 100.39 586.7 99.8564 586.02C99.3364 585.327 98.6231 584.98 97.7164 584.98C96.8097 584.98 96.0897 585.327 95.5564 586.02C95.0364 586.7 94.7764 587.627 94.7764 588.8C94.7764 589.973 95.0364 590.907 95.5564 591.6C96.0897 592.28 96.8097 592.62 97.7164 592.62C98.6231 592.62 99.3364 592.28 99.8564 591.6C100.39 590.907 100.656 589.973 100.656 588.8ZM111.933 585.8C111.707 585.613 111.38 585.433 110.953 585.26C110.527 585.087 110.06 585 109.553 585C109.02 585 108.56 585.1 108.173 585.3C107.8 585.487 107.493 585.753 107.253 586.1C107.013 586.433 106.84 586.833 106.733 587.3C106.627 587.767 106.573 588.267 106.573 588.8C106.573 590.013 106.873 590.953 107.473 591.62C108.073 592.273 108.873 592.6 109.873 592.6C110.38 592.6 110.8 592.58 111.133 592.54C111.48 592.487 111.747 592.433 111.933 592.38V585.8ZM111.933 578.8L113.793 578.48V593.7C113.367 593.82 112.82 593.94 112.153 594.06C111.487 594.18 110.72 594.24 109.853 594.24C109.053 594.24 108.333 594.113 107.693 593.86C107.053 593.607 106.507 593.247 106.053 592.78C105.6 592.313 105.247 591.747 104.993 591.08C104.753 590.4 104.633 589.64 104.633 588.8C104.633 588 104.733 587.267 104.933 586.6C105.147 585.933 105.453 585.36 105.853 584.88C106.253 584.4 106.74 584.027 107.313 583.76C107.9 583.493 108.567 583.36 109.313 583.36C109.913 583.36 110.44 583.44 110.893 583.6C111.36 583.76 111.707 583.913 111.933 584.06V578.8ZM125.271 593.7C124.844 593.807 124.277 593.92 123.571 594.04C122.877 594.16 122.071 594.22 121.151 594.22C120.351 594.22 119.677 594.107 119.131 593.88C118.584 593.64 118.144 593.307 117.811 592.88C117.477 592.453 117.237 591.953 117.091 591.38C116.944 590.793 116.871 590.147 116.871 589.44V583.6H118.731V589.04C118.731 590.307 118.931 591.213 119.331 591.76C119.731 592.307 120.404 592.58 121.351 592.58C121.551 592.58 121.757 592.573 121.971 592.56C122.184 592.547 122.384 592.533 122.571 592.52C122.757 592.493 122.924 592.473 123.071 592.46C123.231 592.433 123.344 592.407 123.411 592.38V583.6H125.271V593.7ZM132.995 594.24C132.155 594.24 131.415 594.107 130.775 593.84C130.148 593.573 129.615 593.2 129.175 592.72C128.748 592.24 128.428 591.673 128.215 591.02C128.002 590.353 127.895 589.62 127.895 588.82C127.895 588.02 128.008 587.287 128.235 586.62C128.475 585.953 128.808 585.38 129.235 584.9C129.662 584.407 130.182 584.027 130.795 583.76C131.422 583.48 132.115 583.34 132.875 583.34C133.342 583.34 133.808 583.38 134.275 583.46C134.742 583.54 135.188 583.667 135.615 583.84L135.195 585.42C134.915 585.287 134.588 585.18 134.215 585.1C133.855 585.02 133.468 584.98 133.055 584.98C132.015 584.98 131.215 585.307 130.655 585.96C130.108 586.613 129.835 587.567 129.835 588.82C129.835 589.38 129.895 589.893 130.015 590.36C130.148 590.827 130.348 591.227 130.615 591.56C130.895 591.893 131.248 592.153 131.675 592.34C132.102 592.513 132.622 592.6 133.235 592.6C133.728 592.6 134.175 592.553 134.575 592.46C134.975 592.367 135.288 592.267 135.515 592.16L135.775 593.72C135.668 593.787 135.515 593.853 135.315 593.92C135.115 593.973 134.888 594.02 134.635 594.06C134.382 594.113 134.108 594.153 133.815 594.18C133.535 594.22 133.262 594.24 132.995 594.24ZM139.512 583.6H143.452V585.16H139.512V589.96C139.512 590.48 139.552 590.913 139.632 591.26C139.712 591.593 139.832 591.86 139.992 592.06C140.152 592.247 140.352 592.38 140.592 592.46C140.832 592.54 141.112 592.58 141.432 592.58C141.992 592.58 142.439 592.52 142.772 592.4C143.119 592.267 143.359 592.173 143.492 592.12L143.852 593.66C143.665 593.753 143.339 593.867 142.872 594C142.405 594.147 141.872 594.22 141.272 594.22C140.565 594.22 139.979 594.133 139.512 593.96C139.059 593.773 138.692 593.5 138.412 593.14C138.132 592.78 137.932 592.34 137.812 591.82C137.705 591.287 137.652 590.673 137.652 589.98V580.7L139.512 580.38V583.6ZM159.628 588.8C159.628 589.627 159.508 590.373 159.268 591.04C159.028 591.707 158.688 592.28 158.248 592.76C157.821 593.24 157.308 593.613 156.708 593.88C156.108 594.133 155.454 594.26 154.748 594.26C154.041 594.26 153.388 594.133 152.788 593.88C152.188 593.613 151.668 593.24 151.228 592.76C150.801 592.28 150.468 591.707 150.228 591.04C149.988 590.373 149.868 589.627 149.868 588.8C149.868 587.987 149.988 587.247 150.228 586.58C150.468 585.9 150.801 585.32 151.228 584.84C151.668 584.36 152.188 583.993 152.788 583.74C153.388 583.473 154.041 583.34 154.748 583.34C155.454 583.34 156.108 583.473 156.708 583.74C157.308 583.993 157.821 584.36 158.248 584.84C158.688 585.32 159.028 585.9 159.268 586.58C159.508 587.247 159.628 587.987 159.628 588.8ZM157.688 588.8C157.688 587.627 157.421 586.7 156.888 586.02C156.368 585.327 155.654 584.98 154.748 584.98C153.841 584.98 153.121 585.327 152.588 586.02C152.068 586.7 151.808 587.627 151.808 588.8C151.808 589.973 152.068 590.907 152.588 591.6C153.121 592.28 153.841 592.62 154.748 592.62C155.654 592.62 156.368 592.28 156.888 591.6C157.421 590.907 157.688 589.973 157.688 588.8ZM162.245 583.9C162.671 583.793 163.238 583.68 163.945 583.56C164.651 583.44 165.465 583.38 166.385 583.38C167.211 583.38 167.898 583.5 168.445 583.74C168.991 583.967 169.425 584.293 169.745 584.72C170.078 585.133 170.311 585.633 170.445 586.22C170.578 586.807 170.645 587.453 170.645 588.16V594H168.785V588.56C168.785 587.92 168.738 587.373 168.645 586.92C168.565 586.467 168.425 586.1 168.225 585.82C168.025 585.54 167.758 585.34 167.425 585.22C167.091 585.087 166.678 585.02 166.185 585.02C165.985 585.02 165.778 585.027 165.565 585.04C165.351 585.053 165.145 585.073 164.945 585.1C164.758 585.113 164.585 585.133 164.425 585.16C164.278 585.187 164.171 585.207 164.105 585.22V594H162.245V583.9ZM175.469 583.6H179.409V585.16H175.469V589.96C175.469 590.48 175.509 590.913 175.589 591.26C175.669 591.593 175.789 591.86 175.949 592.06C176.109 592.247 176.309 592.38 176.549 592.46C176.789 592.54 177.069 592.58 177.389 592.58C177.949 592.58 178.396 592.52 178.729 592.4C179.076 592.267 179.316 592.173 179.449 592.12L179.809 593.66C179.622 593.753 179.296 593.867 178.829 594C178.362 594.147 177.829 594.22 177.229 594.22C176.522 594.22 175.936 594.133 175.469 593.96C175.016 593.773 174.649 593.5 174.369 593.14C174.089 592.78 173.889 592.34 173.769 591.82C173.662 591.287 173.609 590.673 173.609 589.98V580.7L175.469 580.38V583.6ZM190.682 588.8C190.682 589.627 190.562 590.373 190.322 591.04C190.082 591.707 189.742 592.28 189.302 592.76C188.876 593.24 188.362 593.613 187.762 593.88C187.162 594.133 186.509 594.26 185.802 594.26C185.096 594.26 184.442 594.133 183.842 593.88C183.242 593.613 182.722 593.24 182.282 592.76C181.856 592.28 181.522 591.707 181.282 591.04C181.042 590.373 180.922 589.627 180.922 588.8C180.922 587.987 181.042 587.247 181.282 586.58C181.522 585.9 181.856 585.32 182.282 584.84C182.722 584.36 183.242 583.993 183.842 583.74C184.442 583.473 185.096 583.34 185.802 583.34C186.509 583.34 187.162 583.473 187.762 583.74C188.362 583.993 188.876 584.36 189.302 584.84C189.742 585.32 190.082 585.9 190.322 586.58C190.562 587.247 190.682 587.987 190.682 588.8ZM188.742 588.8C188.742 587.627 188.476 586.7 187.942 586.02C187.422 585.327 186.709 584.98 185.802 584.98C184.896 584.98 184.176 585.327 183.642 586.02C183.122 586.7 182.862 587.627 182.862 588.8C182.862 589.973 183.122 590.907 183.642 591.6C184.176 592.28 184.896 592.62 185.802 592.62C186.709 592.62 187.422 592.28 187.942 591.6C188.476 590.907 188.742 589.973 188.742 588.8ZM207.108 588.8C207.108 589.627 206.988 590.373 206.748 591.04C206.508 591.707 206.168 592.28 205.728 592.76C205.301 593.24 204.788 593.613 204.188 593.88C203.588 594.133 202.935 594.26 202.228 594.26C201.521 594.26 200.868 594.133 200.268 593.88C199.668 593.613 199.148 593.24 198.708 592.76C198.281 592.28 197.948 591.707 197.708 591.04C197.468 590.373 197.348 589.627 197.348 588.8C197.348 587.987 197.468 587.247 197.708 586.58C197.948 585.9 198.281 585.32 198.708 584.84C199.148 584.36 199.668 583.993 200.268 583.74C200.868 583.473 201.521 583.34 202.228 583.34C202.935 583.34 203.588 583.473 204.188 583.74C204.788 583.993 205.301 584.36 205.728 584.84C206.168 585.32 206.508 585.9 206.748 586.58C206.988 587.247 207.108 587.987 207.108 588.8ZM205.168 588.8C205.168 587.627 204.901 586.7 204.368 586.02C203.848 585.327 203.135 584.98 202.228 584.98C201.321 584.98 200.601 585.327 200.068 586.02C199.548 586.7 199.288 587.627 199.288 588.8C199.288 589.973 199.548 590.907 200.068 591.6C200.601 592.28 201.321 592.62 202.228 592.62C203.135 592.62 203.848 592.28 204.368 591.6C204.901 590.907 205.168 589.973 205.168 588.8ZM218.005 593.7C217.578 593.807 217.012 593.92 216.305 594.04C215.612 594.16 214.805 594.22 213.885 594.22C213.085 594.22 212.412 594.107 211.865 593.88C211.318 593.64 210.878 593.307 210.545 592.88C210.212 592.453 209.972 591.953 209.825 591.38C209.678 590.793 209.605 590.147 209.605 589.44V583.6H211.465V589.04C211.465 590.307 211.665 591.213 212.065 591.76C212.465 592.307 213.138 592.58 214.085 592.58C214.285 592.58 214.492 592.573 214.705 592.56C214.918 592.547 215.118 592.533 215.305 592.52C215.492 592.493 215.658 592.473 215.805 592.46C215.965 592.433 216.078 592.407 216.145 592.38V583.6H218.005V593.7ZM225.049 583.38C225.209 583.38 225.389 583.393 225.589 583.42C225.803 583.433 226.009 583.46 226.209 583.5C226.409 583.527 226.589 583.56 226.749 583.6C226.923 583.627 227.049 583.653 227.129 583.68L226.809 585.3C226.663 585.247 226.416 585.187 226.069 585.12C225.736 585.04 225.303 585 224.769 585C224.423 585 224.076 585.04 223.729 585.12C223.396 585.187 223.176 585.233 223.069 585.26V594H221.209V584.04C221.649 583.88 222.196 583.733 222.849 583.6C223.503 583.453 224.236 583.38 225.049 583.38ZM240.773 588.82C240.773 587.607 240.473 586.673 239.873 586.02C239.273 585.367 238.473 585.04 237.473 585.04C236.913 585.04 236.473 585.06 236.153 585.1C235.846 585.14 235.6 585.187 235.413 585.24V591.8C235.64 591.987 235.966 592.167 236.393 592.34C236.82 592.513 237.286 592.6 237.793 592.6C238.326 592.6 238.78 592.507 239.153 592.32C239.54 592.12 239.853 591.853 240.093 591.52C240.333 591.173 240.506 590.773 240.613 590.32C240.72 589.853 240.773 589.353 240.773 588.82ZM242.713 588.82C242.713 589.607 242.606 590.333 242.393 591C242.193 591.667 241.893 592.24 241.493 592.72C241.093 593.2 240.6 593.573 240.013 593.84C239.44 594.107 238.78 594.24 238.033 594.24C237.433 594.24 236.9 594.16 236.433 594C235.98 593.84 235.64 593.687 235.413 593.54V597.7H233.553V583.92C233.993 583.813 234.54 583.7 235.193 583.58C235.86 583.447 236.626 583.38 237.493 583.38C238.293 583.38 239.013 583.507 239.653 583.76C240.293 584.013 240.84 584.373 241.293 584.84C241.746 585.307 242.093 585.88 242.333 586.56C242.586 587.227 242.713 587.98 242.713 588.82ZM248.45 594.2C247.304 594.173 246.49 593.927 246.01 593.46C245.53 592.993 245.29 592.267 245.29 591.28V578.8L247.15 578.48V590.98C247.15 591.287 247.177 591.54 247.23 591.74C247.284 591.94 247.37 592.1 247.49 592.22C247.61 592.34 247.77 592.433 247.97 592.5C248.17 592.553 248.417 592.6 248.71 592.64L248.45 594.2ZM254.319 592.66C254.759 592.66 255.146 592.653 255.479 592.64C255.826 592.613 256.113 592.573 256.339 592.52V589.42C256.206 589.353 255.986 589.3 255.679 589.26C255.386 589.207 255.026 589.18 254.599 589.18C254.319 589.18 254.019 589.2 253.699 589.24C253.393 589.28 253.106 589.367 252.839 589.5C252.586 589.62 252.373 589.793 252.199 590.02C252.026 590.233 251.939 590.52 251.939 590.88C251.939 591.547 252.153 592.013 252.579 592.28C253.006 592.533 253.586 592.66 254.319 592.66ZM254.159 583.34C254.906 583.34 255.533 583.44 256.039 583.64C256.559 583.827 256.973 584.1 257.279 584.46C257.599 584.807 257.826 585.227 257.959 585.72C258.093 586.2 258.159 586.733 258.159 587.32V593.82C257.999 593.847 257.773 593.887 257.479 593.94C257.199 593.98 256.879 594.02 256.519 594.06C256.159 594.1 255.766 594.133 255.339 594.16C254.926 594.2 254.513 594.22 254.099 594.22C253.513 594.22 252.973 594.16 252.479 594.04C251.986 593.92 251.559 593.733 251.199 593.48C250.839 593.213 250.559 592.867 250.359 592.44C250.159 592.013 250.059 591.5 250.059 590.9C250.059 590.327 250.173 589.833 250.399 589.42C250.639 589.007 250.959 588.673 251.359 588.42C251.759 588.167 252.226 587.98 252.759 587.86C253.293 587.74 253.853 587.68 254.439 587.68C254.626 587.68 254.819 587.693 255.019 587.72C255.219 587.733 255.406 587.76 255.579 587.8C255.766 587.827 255.926 587.853 256.059 587.88C256.193 587.907 256.286 587.927 256.339 587.94V587.42C256.339 587.113 256.306 586.813 256.239 586.52C256.173 586.213 256.053 585.947 255.879 585.72C255.706 585.48 255.466 585.293 255.159 585.16C254.866 585.013 254.479 584.94 253.999 584.94C253.386 584.94 252.846 584.987 252.379 585.08C251.926 585.16 251.586 585.247 251.359 585.34L251.139 583.8C251.379 583.693 251.779 583.593 252.339 583.5C252.899 583.393 253.506 583.34 254.159 583.34ZM262.988 583.6H266.928V585.16H262.988V589.96C262.988 590.48 263.028 590.913 263.108 591.26C263.188 591.593 263.308 591.86 263.468 592.06C263.628 592.247 263.828 592.38 264.068 592.46C264.308 592.54 264.588 592.58 264.908 592.58C265.468 592.58 265.915 592.52 266.248 592.4C266.595 592.267 266.835 592.173 266.968 592.12L267.328 593.66C267.142 593.753 266.815 593.867 266.348 594C265.882 594.147 265.348 594.22 264.748 594.22C264.042 594.22 263.455 594.133 262.988 593.96C262.535 593.773 262.168 593.5 261.888 593.14C261.608 592.78 261.408 592.34 261.288 591.82C261.182 591.287 261.128 590.673 261.128 589.98V580.7L262.988 580.38V583.6ZM273.355 578.48C273.902 578.48 274.369 578.52 274.755 578.6C275.155 578.68 275.435 578.753 275.595 578.82L275.255 580.42C275.095 580.34 274.869 580.267 274.575 580.2C274.282 580.12 273.922 580.08 273.495 580.08C272.629 580.08 272.022 580.32 271.675 580.8C271.329 581.267 271.155 581.9 271.155 582.7V583.6H275.155V585.16H271.155V594H269.295V582.66C269.295 581.327 269.622 580.3 270.275 579.58C270.929 578.847 271.955 578.48 273.355 578.48ZM286.19 588.8C286.19 589.627 286.07 590.373 285.83 591.04C285.59 591.707 285.25 592.28 284.81 592.76C284.383 593.24 283.87 593.613 283.27 593.88C282.67 594.133 282.017 594.26 281.31 594.26C280.603 594.26 279.95 594.133 279.35 593.88C278.75 593.613 278.23 593.24 277.79 592.76C277.363 592.28 277.03 591.707 276.79 591.04C276.55 590.373 276.43 589.627 276.43 588.8C276.43 587.987 276.55 587.247 276.79 586.58C277.03 585.9 277.363 585.32 277.79 584.84C278.23 584.36 278.75 583.993 279.35 583.74C279.95 583.473 280.603 583.34 281.31 583.34C282.017 583.34 282.67 583.473 283.27 583.74C283.87 583.993 284.383 584.36 284.81 584.84C285.25 585.32 285.59 585.9 285.83 586.58C286.07 587.247 286.19 587.987 286.19 588.8ZM284.25 588.8C284.25 587.627 283.983 586.7 283.45 586.02C282.93 585.327 282.217 584.98 281.31 584.98C280.403 584.98 279.683 585.327 279.15 586.02C278.63 586.7 278.37 587.627 278.37 588.8C278.37 589.973 278.63 590.907 279.15 591.6C279.683 592.28 280.403 592.62 281.31 592.62C282.217 592.62 282.93 592.28 283.45 591.6C283.983 590.907 284.25 589.973 284.25 588.8ZM292.647 583.38C292.807 583.38 292.987 583.393 293.187 583.42C293.4 583.433 293.607 583.46 293.807 583.5C294.007 583.527 294.187 583.56 294.347 583.6C294.52 583.627 294.647 583.653 294.727 583.68L294.407 585.3C294.26 585.247 294.014 585.187 293.667 585.12C293.334 585.04 292.9 585 292.367 585C292.02 585 291.674 585.04 291.327 585.12C290.994 585.187 290.774 585.233 290.667 585.26V594H288.807V584.04C289.247 583.88 289.794 583.733 290.447 583.6C291.1 583.453 291.834 583.38 292.647 583.38ZM296.522 583.9C296.949 583.793 297.509 583.68 298.202 583.56C298.909 583.44 299.722 583.38 300.642 583.38C301.309 583.38 301.869 583.473 302.322 583.66C302.775 583.833 303.155 584.093 303.462 584.44C303.555 584.373 303.702 584.28 303.902 584.16C304.102 584.04 304.349 583.927 304.642 583.82C304.935 583.7 305.262 583.6 305.622 583.52C305.982 583.427 306.369 583.38 306.782 583.38C307.582 583.38 308.235 583.5 308.742 583.74C309.249 583.967 309.642 584.293 309.922 584.72C310.215 585.147 310.409 585.653 310.502 586.24C310.609 586.827 310.662 587.467 310.662 588.16V594H308.802V588.56C308.802 587.947 308.769 587.42 308.702 586.98C308.649 586.54 308.535 586.173 308.362 585.88C308.202 585.587 307.975 585.373 307.682 585.24C307.402 585.093 307.035 585.02 306.582 585.02C305.955 585.02 305.435 585.107 305.022 585.28C304.622 585.44 304.349 585.587 304.202 585.72C304.309 586.067 304.389 586.447 304.442 586.86C304.495 587.273 304.522 587.707 304.522 588.16V594H302.662V588.56C302.662 587.947 302.629 587.42 302.562 586.98C302.495 586.54 302.375 586.173 302.202 585.88C302.042 585.587 301.815 585.373 301.522 585.24C301.242 585.093 300.882 585.02 300.442 585.02C300.255 585.02 300.055 585.027 299.842 585.04C299.629 585.053 299.422 585.073 299.222 585.1C299.035 585.113 298.862 585.133 298.702 585.16C298.542 585.187 298.435 585.207 298.382 585.22V594H296.522V583.9ZM315.908 583.9C315.908 585.02 315.868 586.04 315.788 586.96C315.708 587.867 315.608 588.773 315.488 589.68H314.328C314.208 588.773 314.108 587.867 314.028 586.96C313.948 586.04 313.908 585.02 313.908 583.9V580.14H315.908V583.9ZM316.248 592.92C316.248 593.28 316.128 593.593 315.888 593.86C315.648 594.127 315.322 594.26 314.908 594.26C314.495 594.26 314.168 594.127 313.928 593.86C313.688 593.593 313.568 593.28 313.568 592.92C313.568 592.56 313.688 592.247 313.928 591.98C314.168 591.713 314.495 591.58 314.908 591.58C315.322 591.58 315.648 591.713 315.888 591.98C316.128 592.247 316.248 592.56 316.248 592.92Z" fill="#01062C"/>
<path d="M70.645 516.585C74.1917 516.585 75.965 515.372 75.965 512.945C75.965 512.198 75.8017 511.568 75.475 511.055C75.1717 510.518 74.7517 510.063 74.215 509.69C73.6783 509.293 73.06 508.955 72.36 508.675C71.6833 508.395 70.96 508.115 70.19 507.835C69.3033 507.532 68.4633 507.193 67.67 506.82C66.8767 506.423 66.1883 505.968 65.605 505.455C65.0217 504.918 64.555 504.288 64.205 503.565C63.8783 502.842 63.715 501.967 63.715 500.94C63.715 498.817 64.4383 497.16 65.885 495.97C67.3317 494.78 69.3267 494.185 71.87 494.185C73.34 494.185 74.67 494.348 75.86 494.675C77.0733 494.978 77.96 495.317 78.52 495.69L77.435 498.455C76.945 498.152 76.21 497.86 75.23 497.58C74.2733 497.277 73.1533 497.125 71.87 497.125C71.2167 497.125 70.61 497.195 70.05 497.335C69.49 497.475 69 497.685 68.58 497.965C68.16 498.245 67.8217 498.607 67.565 499.05C67.3317 499.47 67.215 499.972 67.215 500.555C67.215 501.208 67.3433 501.757 67.6 502.2C67.8567 502.643 68.2183 503.04 68.685 503.39C69.1517 503.717 69.6883 504.02 70.295 504.3C70.925 504.58 71.6133 504.86 72.36 505.14C73.41 505.56 74.3667 505.98 75.23 506.4C76.1167 506.82 76.875 507.322 77.505 507.905C78.1583 508.488 78.66 509.188 79.01 510.005C79.36 510.798 79.535 511.767 79.535 512.91C79.535 515.033 78.7533 516.667 77.19 517.81C75.65 518.953 73.4683 519.525 70.645 519.525C69.6883 519.525 68.8017 519.455 67.985 519.315C67.1917 519.198 66.48 519.058 65.85 518.895C65.22 518.708 64.6717 518.522 64.205 518.335C63.7617 518.125 63.4117 517.95 63.155 517.81L64.17 515.01C64.7067 515.313 65.5233 515.652 66.62 516.025C67.7167 516.398 69.0583 516.585 70.645 516.585ZM86.4729 500.8H93.3679V503.53H86.4729V511.93C86.4729 512.84 86.5429 513.598 86.6829 514.205C86.8229 514.788 87.0329 515.255 87.3129 515.605C87.5929 515.932 87.9429 516.165 88.3629 516.305C88.7829 516.445 89.2729 516.515 89.8329 516.515C90.8129 516.515 91.5946 516.41 92.1779 516.2C92.7846 515.967 93.2046 515.803 93.4379 515.71L94.0679 518.405C93.7413 518.568 93.1696 518.767 92.3529 519C91.5363 519.257 90.6029 519.385 89.5529 519.385C88.3163 519.385 87.2896 519.233 86.4729 518.93C85.6796 518.603 85.0379 518.125 84.5479 517.495C84.0579 516.865 83.7079 516.095 83.4979 515.185C83.3113 514.252 83.2179 513.178 83.2179 511.965V495.725L86.4729 495.165V500.8ZM103.67 516.655C104.44 516.655 105.117 516.643 105.7 516.62C106.307 516.573 106.808 516.503 107.205 516.41V510.985C106.972 510.868 106.587 510.775 106.05 510.705C105.537 510.612 104.907 510.565 104.16 510.565C103.67 510.565 103.145 510.6 102.585 510.67C102.048 510.74 101.547 510.892 101.08 511.125C100.637 511.335 100.263 511.638 99.96 512.035C99.6566 512.408 99.505 512.91 99.505 513.54C99.505 514.707 99.8783 515.523 100.625 515.99C101.372 516.433 102.387 516.655 103.67 516.655ZM103.39 500.345C104.697 500.345 105.793 500.52 106.68 500.87C107.59 501.197 108.313 501.675 108.85 502.305C109.41 502.912 109.807 503.647 110.04 504.51C110.273 505.35 110.39 506.283 110.39 507.31V518.685C110.11 518.732 109.713 518.802 109.2 518.895C108.71 518.965 108.15 519.035 107.52 519.105C106.89 519.175 106.202 519.233 105.455 519.28C104.732 519.35 104.008 519.385 103.285 519.385C102.258 519.385 101.313 519.28 100.45 519.07C99.5866 518.86 98.84 518.533 98.21 518.09C97.58 517.623 97.09 517.017 96.74 516.27C96.39 515.523 96.215 514.625 96.215 513.575C96.215 512.572 96.4133 511.708 96.81 510.985C97.23 510.262 97.79 509.678 98.49 509.235C99.19 508.792 100.007 508.465 100.94 508.255C101.873 508.045 102.853 507.94 103.88 507.94C104.207 507.94 104.545 507.963 104.895 508.01C105.245 508.033 105.572 508.08 105.875 508.15C106.202 508.197 106.482 508.243 106.715 508.29C106.948 508.337 107.112 508.372 107.205 508.395V507.485C107.205 506.948 107.147 506.423 107.03 505.91C106.913 505.373 106.703 504.907 106.4 504.51C106.097 504.09 105.677 503.763 105.14 503.53C104.627 503.273 103.95 503.145 103.11 503.145C102.037 503.145 101.092 503.227 100.275 503.39C99.4816 503.53 98.8866 503.682 98.49 503.845L98.105 501.15C98.525 500.963 99.225 500.788 100.205 500.625C101.185 500.438 102.247 500.345 103.39 500.345ZM122.516 500.415C122.796 500.415 123.111 500.438 123.461 500.485C123.834 500.508 124.196 500.555 124.546 500.625C124.896 500.672 125.211 500.73 125.491 500.8C125.794 500.847 126.016 500.893 126.156 500.94L125.596 503.775C125.339 503.682 124.908 503.577 124.301 503.46C123.718 503.32 122.959 503.25 122.026 503.25C121.419 503.25 120.813 503.32 120.206 503.46C119.623 503.577 119.238 503.658 119.051 503.705V519H115.796V501.57C116.566 501.29 117.523 501.033 118.666 500.8C119.809 500.543 121.093 500.415 122.516 500.415ZM132.342 500.8H139.237V503.53H132.342V511.93C132.342 512.84 132.412 513.598 132.552 514.205C132.692 514.788 132.902 515.255 133.182 515.605C133.462 515.932 133.812 516.165 134.232 516.305C134.652 516.445 135.142 516.515 135.702 516.515C136.682 516.515 137.464 516.41 138.047 516.2C138.654 515.967 139.074 515.803 139.307 515.71L139.937 518.405C139.61 518.568 139.039 518.767 138.222 519C137.405 519.257 136.472 519.385 135.422 519.385C134.185 519.385 133.159 519.233 132.342 518.93C131.549 518.603 130.907 518.125 130.417 517.495C129.927 516.865 129.577 516.095 129.367 515.185C129.18 514.252 129.087 513.178 129.087 511.965V495.725L132.342 495.165V500.8ZM157.869 518.475C157.122 518.662 156.131 518.86 154.894 519.07C153.681 519.28 152.269 519.385 150.659 519.385C149.259 519.385 148.081 519.187 147.124 518.79C146.167 518.37 145.397 517.787 144.814 517.04C144.231 516.293 143.811 515.418 143.554 514.415C143.297 513.388 143.169 512.257 143.169 511.02V500.8H146.424V510.32C146.424 512.537 146.774 514.123 147.474 515.08C148.174 516.037 149.352 516.515 151.009 516.515C151.359 516.515 151.721 516.503 152.094 516.48C152.467 516.457 152.817 516.433 153.144 516.41C153.471 516.363 153.762 516.328 154.019 516.305C154.299 516.258 154.497 516.212 154.614 516.165V500.8H157.869V518.475ZM176.112 509.935C176.112 507.812 175.587 506.178 174.537 505.035C173.487 503.892 172.087 503.32 170.337 503.32C169.357 503.32 168.587 503.355 168.027 503.425C167.49 503.495 167.058 503.577 166.732 503.67V515.15C167.128 515.477 167.7 515.792 168.447 516.095C169.193 516.398 170.01 516.55 170.897 516.55C171.83 516.55 172.623 516.387 173.277 516.06C173.953 515.71 174.502 515.243 174.922 514.66C175.342 514.053 175.645 513.353 175.832 512.56C176.018 511.743 176.112 510.868 176.112 509.935ZM179.507 509.935C179.507 511.312 179.32 512.583 178.947 513.75C178.597 514.917 178.072 515.92 177.372 516.76C176.672 517.6 175.808 518.253 174.782 518.72C173.778 519.187 172.623 519.42 171.317 519.42C170.267 519.42 169.333 519.28 168.517 519C167.723 518.72 167.128 518.452 166.732 518.195V525.475H163.477V501.36C164.247 501.173 165.203 500.975 166.347 500.765C167.513 500.532 168.855 500.415 170.372 500.415C171.772 500.415 173.032 500.637 174.152 501.08C175.272 501.523 176.228 502.153 177.022 502.97C177.815 503.787 178.422 504.79 178.842 505.98C179.285 507.147 179.507 508.465 179.507 509.935ZM192.398 519V494.745H207.028V497.65H195.793V504.965H205.768V507.835H195.793V519H192.398ZM226.573 509.9C226.573 511.347 226.363 512.653 225.943 513.82C225.523 514.987 224.928 515.99 224.158 516.83C223.411 517.67 222.513 518.323 221.463 518.79C220.413 519.233 219.27 519.455 218.033 519.455C216.796 519.455 215.653 519.233 214.603 518.79C213.553 518.323 212.643 517.67 211.873 516.83C211.126 515.99 210.543 514.987 210.123 513.82C209.703 512.653 209.493 511.347 209.493 509.9C209.493 508.477 209.703 507.182 210.123 506.015C210.543 504.825 211.126 503.81 211.873 502.97C212.643 502.13 213.553 501.488 214.603 501.045C215.653 500.578 216.796 500.345 218.033 500.345C219.27 500.345 220.413 500.578 221.463 501.045C222.513 501.488 223.411 502.13 224.158 502.97C224.928 503.81 225.523 504.825 225.943 506.015C226.363 507.182 226.573 508.477 226.573 509.9ZM223.178 509.9C223.178 507.847 222.711 506.225 221.778 505.035C220.868 503.822 219.62 503.215 218.033 503.215C216.446 503.215 215.186 503.822 214.253 505.035C213.343 506.225 212.888 507.847 212.888 509.9C212.888 511.953 213.343 513.587 214.253 514.8C215.186 515.99 216.446 516.585 218.033 516.585C219.62 516.585 220.868 515.99 221.778 514.8C222.711 513.587 223.178 511.953 223.178 509.9ZM245.643 518.475C244.896 518.662 243.904 518.86 242.668 519.07C241.454 519.28 240.043 519.385 238.433 519.385C237.033 519.385 235.854 519.187 234.898 518.79C233.941 518.37 233.171 517.787 232.588 517.04C232.004 516.293 231.584 515.418 231.328 514.415C231.071 513.388 230.943 512.257 230.943 511.02V500.8H234.198V510.32C234.198 512.537 234.548 514.123 235.248 515.08C235.948 516.037 237.126 516.515 238.783 516.515C239.133 516.515 239.494 516.503 239.868 516.48C240.241 516.457 240.591 516.433 240.918 516.41C241.244 516.363 241.536 516.328 241.793 516.305C242.073 516.258 242.271 516.212 242.388 516.165V500.8H245.643V518.475ZM251.25 501.325C251.997 501.138 252.989 500.94 254.225 500.73C255.462 500.52 256.885 500.415 258.495 500.415C259.942 500.415 261.144 500.625 262.1 501.045C263.057 501.442 263.815 502.013 264.375 502.76C264.959 503.483 265.367 504.358 265.6 505.385C265.834 506.412 265.95 507.543 265.95 508.78V519H262.695V509.48C262.695 508.36 262.614 507.403 262.45 506.61C262.31 505.817 262.065 505.175 261.715 504.685C261.365 504.195 260.899 503.845 260.315 503.635C259.732 503.402 259.009 503.285 258.145 503.285C257.795 503.285 257.434 503.297 257.06 503.32C256.687 503.343 256.325 503.378 255.975 503.425C255.649 503.448 255.345 503.483 255.065 503.53C254.809 503.577 254.622 503.612 254.505 503.635V519H251.25V501.325ZM283.108 504.65C282.711 504.323 282.14 504.008 281.393 503.705C280.646 503.402 279.83 503.25 278.943 503.25C278.01 503.25 277.205 503.425 276.528 503.775C275.875 504.102 275.338 504.568 274.918 505.175C274.498 505.758 274.195 506.458 274.008 507.275C273.821 508.092 273.728 508.967 273.728 509.9C273.728 512.023 274.253 513.668 275.303 514.835C276.353 515.978 277.753 516.55 279.503 516.55C280.39 516.55 281.125 516.515 281.708 516.445C282.315 516.352 282.781 516.258 283.108 516.165V504.65ZM283.108 492.4L286.363 491.84V518.475C285.616 518.685 284.66 518.895 283.493 519.105C282.326 519.315 280.985 519.42 279.468 519.42C278.068 519.42 276.808 519.198 275.688 518.755C274.568 518.312 273.611 517.682 272.818 516.865C272.025 516.048 271.406 515.057 270.963 513.89C270.543 512.7 270.333 511.37 270.333 509.9C270.333 508.5 270.508 507.217 270.858 506.05C271.231 504.883 271.768 503.88 272.468 503.04C273.168 502.2 274.02 501.547 275.023 501.08C276.05 500.613 277.216 500.38 278.523 500.38C279.573 500.38 280.495 500.52 281.288 500.8C282.105 501.08 282.711 501.348 283.108 501.605V492.4ZM290.943 509.935C290.943 508.325 291.177 506.925 291.643 505.735C292.11 504.522 292.728 503.518 293.498 502.725C294.268 501.932 295.155 501.337 296.158 500.94C297.162 500.543 298.188 500.345 299.238 500.345C301.688 500.345 303.567 501.115 304.873 502.655C306.18 504.172 306.833 506.493 306.833 509.62C306.833 509.76 306.833 509.947 306.833 510.18C306.833 510.39 306.822 510.588 306.798 510.775H294.338C294.478 512.665 295.027 514.1 295.983 515.08C296.94 516.06 298.433 516.55 300.463 516.55C301.607 516.55 302.563 516.457 303.333 516.27C304.127 516.06 304.722 515.862 305.118 515.675L305.573 518.405C305.177 518.615 304.477 518.837 303.473 519.07C302.493 519.303 301.373 519.42 300.113 519.42C298.527 519.42 297.15 519.187 295.983 518.72C294.84 518.23 293.895 517.565 293.148 516.725C292.402 515.885 291.842 514.893 291.468 513.75C291.118 512.583 290.943 511.312 290.943 509.935ZM303.438 508.15C303.462 506.68 303.088 505.478 302.318 504.545C301.572 503.588 300.533 503.11 299.203 503.11C298.457 503.11 297.792 503.262 297.208 503.565C296.648 503.845 296.17 504.218 295.773 504.685C295.377 505.152 295.062 505.688 294.828 506.295C294.618 506.902 294.478 507.52 294.408 508.15H303.438ZM318.229 500.415C318.509 500.415 318.824 500.438 319.174 500.485C319.547 500.508 319.909 500.555 320.259 500.625C320.609 500.672 320.924 500.73 321.204 500.8C321.507 500.847 321.729 500.893 321.869 500.94L321.309 503.775C321.052 503.682 320.621 503.577 320.014 503.46C319.431 503.32 318.672 503.25 317.739 503.25C317.132 503.25 316.526 503.32 315.919 503.46C315.336 503.577 314.951 503.658 314.764 503.705V519H311.509V501.57C312.279 501.29 313.236 501.033 314.379 500.8C315.522 500.543 316.806 500.415 318.229 500.415Z" fill="black"/>
<circle cx="185" cy="276" r="185" fill="url(#paint0_linear)" fill-opacity="0.61"/>
<path d="M127.203 284.14C127.203 284.14 116.228 345.837 123.051 400.999H254.132C254.132 400.999 248.87 300.582 241.801 277.81L165.635 275.056L127.203 284.14Z" fill="url(#paint1_radial)"/>
<path d="M127.203 284.14C127.203 284.14 117.132 345.837 123.956 400.999H254.132C254.132 400.999 248.871 300.582 241.801 277.81L165.635 275.056L127.203 284.14Z" fill="url(#paint2_radial)"/>
<path d="M143.11 302.02C143.398 300.705 143.685 299.307 144.549 298.239C145.412 297.17 146.481 296.512 147.631 295.896L156.346 291.087C159.552 289.319 162.799 287.552 166.375 286.812C170.609 285.908 203.163 290.1 196.545 277.235C196.332 276.823 196.055 276.448 195.723 276.125L165.635 275.056L127.203 284.14C127.203 284.14 115.036 324.628 121.859 379.789H140.973C137.972 353.894 137.684 327.505 143.11 302.02Z" fill="url(#paint3_radial)"/>
<path d="M181.008 324.628C181.008 324.628 182.035 372.596 186.598 400.67L133.985 400.999L131.848 319.12L179.117 308.309L181.008 324.628Z" fill="url(#paint4_radial)"/>
<path d="M151.125 92.0202L163.415 87.9509L186.392 87.4577H190.503L194.49 95.1441L191.695 107.681L173.979 114.134L157.414 112.613L148.453 104.639L151.125 92.0202Z" fill="url(#paint5_radial)"/>
<path d="M138.835 26.8705C138.835 26.8705 131.971 59.2193 135.259 73.6468C138.547 88.0743 152.235 78.456 152.235 78.456L153.509 93.3767L149.44 94.8976L147.673 100.241C147.673 100.241 154.003 111.093 155.77 111.873C157.538 112.654 167.896 119.19 167.896 119.19L168.06 135.508L184.872 114.915L194.737 104.516V90.6227L189.146 89.3485C189.146 89.3485 181.049 83.224 185.365 60.2058L188.653 33.5705L175.747 19.5129L148.7 14.005L139.082 19.0197L138.835 26.8705Z" fill="#FDE5E0"/>
<path d="M138.835 26.8705C138.835 26.8705 131.971 59.2193 135.259 73.6468C138.547 88.0743 152.235 78.456 152.235 78.456L153.509 93.3767L149.44 94.8976L147.673 100.241C147.673 100.241 154.003 111.093 155.77 111.873C157.538 112.654 167.896 119.19 167.896 119.19L168.06 135.508L184.872 114.915L194.737 104.516V90.6227L189.146 89.3485C189.146 89.3485 181.049 83.224 185.365 60.2058L188.653 33.5705L175.747 19.5129L148.7 14.005L139.082 19.0197L138.835 26.8705Z" fill="url(#paint6_radial)"/>
<path d="M170.198 120.629C170.198 120.629 171.431 123.506 170.198 126.424C168.964 129.343 168.677 130.905 168.677 130.905C168.677 130.905 173.321 128.521 173.856 126.835C174.39 125.15 175.582 125.068 175.582 125.068V120.957L175.993 115.778L180.391 114.216H185.447L202.218 92.7601C202.218 92.7601 239.622 107.311 242.294 109.119C242.294 109.119 248.131 107.763 259.475 133.823C270.82 159.883 278.712 180.887 278.712 180.887C279.311 180.887 279.904 181.005 280.458 181.234C281.012 181.464 281.514 181.8 281.938 182.223C282.362 182.647 282.698 183.15 282.927 183.704C283.156 184.257 283.274 184.85 283.274 185.45V186.97C283.274 186.97 284.302 187.957 287.837 193.547C291.372 199.137 292.112 206.7 289.851 204.275C287.59 201.85 256.187 188.203 245.089 188.984C245.089 188.984 239.006 230.705 243.034 245.379C247.062 260.053 250.638 262.108 245.582 271.192C240.526 280.276 244.061 283.071 244.061 283.071C244.061 283.071 190.873 288.908 185.447 284.592C180.021 280.276 172.458 280.811 172.458 280.811C172.458 280.811 130.203 290.059 126.175 286.195C122.147 282.332 118.818 258.039 122.64 255.532L116.804 250.969C116.804 250.969 118.818 256.765 115.529 258.039C112.241 259.313 100.362 256.518 99.6221 252.983C98.8822 249.448 101.883 247.681 101.883 247.681C101.883 247.681 85.9345 233.253 90.9903 226.677C96.0461 220.1 95.7994 218.703 95.7994 218.703C95.7994 218.703 98.5945 203.823 93.2921 189.93C87.9897 176.037 97.0736 174.105 97.8546 164.692C98.6356 155.279 93.2921 137.358 98.8411 135.344C98.8411 135.344 137.931 104.064 139.205 103.982C140.479 103.899 140.356 104.475 140.356 104.475L159.798 114.093L164.566 115.367L168.677 116.354L170.198 120.629Z" fill="#7BCAB5"/>
<path d="M180.556 188.779L168.677 159.431L153.468 138.92L126.668 137.933L115.118 157.91C115.118 157.91 128.847 194.821 130.162 201.932C130.162 201.932 134.067 203.042 134.396 206.988C134.725 210.934 132.957 211.14 132.957 211.14L119.763 253.312L122.64 255.573C122.353 255.737 121.983 256.395 121.53 257.423C119.681 263.794 122.64 282.866 126.175 286.236C129.71 289.607 172.458 280.852 172.458 280.852C172.458 280.852 180.063 280.359 185.447 284.633C187.297 286.113 194.449 286.401 203.204 286.154L180.556 188.779Z" fill="url(#paint7_radial)"/>
<path d="M230.908 140.934C230.333 165.802 234.731 178.01 234.731 178.01L270.738 184.093C272.069 184.352 273.414 184.53 274.766 184.627C278.794 184.997 283.275 187.012 283.275 187.012V185.491C283.275 184.281 282.794 183.12 281.938 182.264C281.083 181.409 279.922 180.928 278.712 180.928C278.712 180.928 270.861 159.924 259.475 133.864C250.391 113.024 244.842 109.736 242.993 109.243L242.294 109.161C242.294 109.161 231.484 116.107 230.908 140.934Z" fill="url(#paint8_radial)"/>
<path d="M194.202 275.344C183.109 269.81 170.879 266.939 158.483 266.959C156.346 266.959 154.003 267 152.317 265.643C150.632 264.287 150.098 260.176 151.208 257.464C154.044 250.64 161.155 246.941 167.32 242.954C173.928 238.651 179.904 233.45 185.077 227.499C188.366 223.676 195.024 217.346 193.791 211.838C192.558 206.33 186.968 205.385 182.529 207.933C169.006 215.661 155.976 223.799 141.836 230.458L135.835 233.253C131.683 240.775 126.381 247.64 122.147 255.203L122.64 255.573C118.818 258.08 122.106 282.373 126.175 286.236C130.245 290.1 172.458 280.852 172.458 280.852C172.869 280.825 173.281 280.825 173.691 280.852C173.756 280.666 173.839 280.487 173.938 280.317C174.373 279.846 174.951 279.528 175.582 279.413C181.46 277.728 187.749 278.961 193.791 280.112C194.695 280.317 195.764 280.441 196.463 279.824C197.984 278.55 196.011 276.248 194.202 275.344Z" fill="url(#paint9_radial)"/>
<path d="M164.566 42.6133L158.442 57.7396L157.908 54.9445C157.908 54.9445 156.14 58.8494 153.879 60.3702C151.619 61.8911 136.287 58.6028 134.396 59.7537C132.505 60.9046 131.971 81.3743 138.301 82.1553C144.631 82.9363 155.154 81.4977 155.154 81.4977C155.154 81.4977 166.909 79.6069 170.444 63.1653C170.444 63.1653 165.142 55.7666 170.444 48.4501C170.444 48.4501 175.253 42.5311 179.282 47.5869C183.31 52.6427 180.186 60.4935 177.268 60.6169C177.268 60.6169 178.131 67.3579 184.995 62.4665C191.859 57.5752 193.462 55.1911 191.325 53.4237C191.325 53.4237 199.916 38.8729 195.23 27.857C190.544 16.8412 184.378 5.98972 180.433 8.9081C176.487 11.8265 178.665 6.60627 166.005 2.57809C153.345 -1.4501 143.357 -0.833539 145.905 4.96212C148.454 10.7578 146.933 8.90809 141.219 9.0314C135.506 9.15472 128.847 12.0731 133.122 16.5945C133.122 16.5945 124.654 19.7595 136.369 25.473L138.835 26.8705C138.835 26.8705 140.973 24.4454 141.589 22.308C141.589 22.308 153.715 28.1447 160.949 23.0479C160.949 23.0479 159.305 26.2129 162.84 26.0895C161.668 28.7565 161.211 31.6828 161.513 34.5802C161.816 37.4777 162.868 40.2463 164.566 42.6133Z" fill="#F58F87"/>
<path d="M164.566 42.6133L158.442 57.7396L157.908 54.9445C157.908 54.9445 156.14 58.8494 153.879 60.3702C151.619 61.8911 136.287 58.6028 134.396 59.7537C132.505 60.9046 131.971 81.3743 138.301 82.1553C144.631 82.9363 155.154 81.4977 155.154 81.4977C155.154 81.4977 166.909 79.6069 170.444 63.1653C170.444 63.1653 165.142 55.7666 170.444 48.4501C170.444 48.4501 175.253 42.5311 179.282 47.5869C183.31 52.6427 180.186 60.4935 177.268 60.6169C177.268 60.6169 178.131 67.3579 184.995 62.4665C191.859 57.5752 193.462 55.1911 191.325 53.4237C191.325 53.4237 199.916 38.8729 195.23 27.857C190.544 16.8412 184.378 5.98972 180.433 8.9081C176.487 11.8265 178.665 6.60627 166.005 2.57809C153.345 -1.4501 143.357 -0.833539 145.905 4.96212C148.454 10.7578 146.933 8.90809 141.219 9.0314C135.506 9.15472 128.847 12.0731 133.122 16.5945C133.122 16.5945 124.654 19.7595 136.369 25.473L138.835 26.8705C138.835 26.8705 140.973 24.4454 141.589 22.308C141.589 22.308 153.715 28.1447 160.949 23.0479C160.949 23.0479 159.305 26.2129 162.84 26.0895C161.668 28.7565 161.211 31.6828 161.513 34.5802C161.816 37.4777 162.868 40.2463 164.566 42.6133Z" fill="url(#paint10_radial)"/>
<path d="M151.125 94.651V92.0203L137.479 102.132C137.479 102.132 143.151 116.559 151.125 120.588C159.1 124.616 158.565 129.713 158.565 129.713C158.565 129.713 162.593 111.298 170.198 120.999C170.198 120.999 173.979 112.86 157.784 106.982C157.784 106.982 149.235 101.515 151.125 94.651Z" fill="#F8FCFA"/>
<path d="M151.125 94.651V92.0203L137.479 102.132C137.479 102.132 143.151 116.559 151.125 120.588C159.1 124.616 158.565 129.713 158.565 129.713C158.565 129.713 162.593 111.298 170.198 120.999C170.198 120.999 173.979 112.86 157.784 106.982C157.784 106.982 149.235 101.515 151.125 94.651Z" fill="url(#paint11_radial)"/>
<path d="M168.677 130.905C168.677 130.905 177.596 125.767 174.76 119.149C171.924 112.531 181.953 111.709 187.461 106.612C192.969 101.515 190.503 87.4577 190.503 87.4577L202.259 91.6092C202.259 91.6092 201.683 119.683 188.612 124.081C188.612 124.081 179.569 111.175 176.651 118.738C173.733 126.301 182.899 123.3 168.677 130.905Z" fill="#F8FCFA"/>
<path d="M168.677 130.905C168.677 130.905 177.596 125.767 174.76 119.149C171.924 112.531 181.953 111.709 187.461 106.612C192.969 101.515 190.503 87.4577 190.503 87.4577L202.259 91.6092C202.259 91.6092 201.683 119.683 188.612 124.081C188.612 124.081 179.569 111.175 176.651 118.738C173.733 126.301 182.899 123.3 168.677 130.905Z" fill="url(#paint12_radial)"/>
<path d="M116.845 257.011C116.845 257.011 143.521 258.039 167.526 236.336C191.53 214.633 206.986 206.043 206.986 206.043L248.747 188.984C248.747 188.984 258.078 190.382 263.709 189.601C264.613 189.483 265.469 189.123 266.186 188.559C266.902 187.994 267.452 187.247 267.778 186.395C268.066 185.655 268.107 184.956 267.532 184.586C266.956 184.216 272.135 182.531 270.984 179.695C269.834 176.859 269.053 177.681 266.216 177.475L242.869 175.667C242.869 175.667 249.117 173.036 258.242 173.981C267.367 174.927 270.203 168.104 268.847 166.583L268.436 165.884L256.146 166.747L243.65 165.021C242.375 164.841 241.077 164.911 239.828 165.226L228.647 167.939C227.767 168.157 226.95 168.579 226.263 169.172C221.002 173.776 197.038 194.575 193.134 195.52C189.229 196.465 154.948 205.755 154.948 205.755C154.948 205.755 134.889 211.92 130.902 211.139C130.902 211.139 108.87 211.386 116.845 257.011Z" fill="#FDE5E0"/>
<path d="M116.845 257.011C116.845 257.011 143.521 258.039 167.526 236.336C191.53 214.633 206.986 206.043 206.986 206.043L248.747 188.984C248.747 188.984 258.078 190.382 263.709 189.601C264.613 189.483 265.469 189.123 266.186 188.559C266.902 187.994 267.452 187.247 267.778 186.395C268.066 185.655 268.107 184.956 267.532 184.586C266.956 184.216 272.135 182.531 270.984 179.695C269.834 176.859 269.053 177.681 266.216 177.475L242.869 175.667C242.869 175.667 249.117 173.036 258.242 173.981C267.367 174.927 270.203 168.104 268.847 166.583L268.436 165.884L256.146 166.747L243.65 165.021C242.375 164.841 241.077 164.911 239.828 165.226L229.264 167.816C227.985 168.11 226.798 168.718 225.811 169.583C219.687 174.927 196.915 194.616 193.134 195.52C189.352 196.424 154.948 205.755 154.948 205.755C154.948 205.755 134.889 211.92 130.902 211.139C130.902 211.139 108.87 211.386 116.845 257.011Z" fill="url(#paint13_radial)"/>
<path d="M245.089 189.026C245.089 189.026 228.072 193.424 176.445 191.081L151.577 192.93C151.577 192.93 144.014 195.808 143.069 200.165C142.124 204.522 137.438 205.837 137.479 209.084V210.4L144.713 208.961L154.167 206.166L160.333 204.316C160.333 204.316 166.58 202.631 174.76 206.988C182.94 211.345 231.853 233.664 261.284 230.499C290.714 227.334 294.866 221.415 292.4 214.592C289.933 207.769 289.851 204.316 289.851 204.316C289.851 204.316 263.216 188.121 245.089 189.026Z" fill="#FDE5E0"/>
<path d="M245.089 189.026C245.089 189.026 228.072 193.424 176.445 191.081L151.577 192.93C151.577 192.93 144.014 195.808 143.069 200.165C142.124 204.522 137.438 205.837 137.479 209.084V210.4L144.713 208.961L154.167 206.166L160.333 204.316C160.333 204.316 166.58 202.631 174.76 206.988C182.94 211.345 231.853 233.664 261.284 230.499C290.714 227.334 294.866 221.415 292.4 214.592C289.933 207.769 289.851 204.316 289.851 204.316C289.851 204.316 263.216 188.121 245.089 189.026Z" fill="url(#paint14_radial)"/>
<path d="M266.216 177.475L242.869 175.667C242.869 175.667 249.117 173.036 258.242 173.981C267.367 174.927 270.203 168.104 268.847 166.583L268.436 165.884L256.146 166.747L243.65 165.021C242.375 164.841 241.077 164.911 239.828 165.226L227.784 168.145L238.636 183.518L251.255 182.449L267.532 184.586C267.532 184.586 272.135 182.531 270.984 179.695C269.834 176.859 269.053 177.681 266.216 177.475Z" fill="url(#paint15_radial)"/>
<path d="M110.843 210.276C107.35 214.428 104.76 219.319 100.691 222.936C100.497 223.124 100.263 223.265 100.007 223.351C99.7508 223.436 99.4789 223.463 99.2111 223.43C97.8957 223.265 97.6902 221.95 97.6902 220.881C97.7313 213.894 100.156 207.029 99.3343 200.083C98.7589 194.821 96.2926 189.683 97.0736 184.463C97.8546 179.243 101.718 174.968 101.883 169.789C102.047 165.391 99.5399 161.486 97.6491 157.499C97.8944 159.902 97.963 162.32 97.8546 164.733C97.0736 174.146 87.9897 176.119 93.2921 189.971C98.5945 203.823 95.7994 218.744 95.7994 218.744C95.7994 218.744 96.0461 220.141 90.9903 226.718C85.9345 233.295 101.883 247.722 101.883 247.722C101.883 247.722 98.8411 249.49 99.6221 253.024C100.403 256.559 112.241 259.354 115.529 258.08C117.091 257.505 117.461 255.861 117.42 254.34L117.173 253.888C116.598 253.189 115.612 252.983 114.707 252.819H114.625C112.013 252.318 109.687 250.851 108.109 248.71C106.532 246.569 105.821 243.911 106.116 241.269C106.281 239.542 106.528 237.816 106.774 236.131L102.499 244.886C100.321 241.228 100.567 236.46 102.171 232.473C103.774 228.485 106.486 225.074 109.199 221.744L123.956 203.618C118.859 203.083 114.173 206.413 110.843 210.276Z" fill="url(#paint16_radial)"/>
<path d="M157.291 39.4895C151.002 33.8582 137.027 36.6122 137.027 36.6122C136.205 41.7502 135.259 48.2857 134.766 54.739L150.427 55.2323C150.427 55.2323 163.539 45.1207 157.291 39.4895Z" fill="url(#paint17_radial)"/>
<defs>
<linearGradient id="paint0_linear" x1="185" y1="91" x2="185" y2="350.5" gradientUnits="userSpaceOnUse">
<stop stop-color="#F5F3F3"/>
<stop offset="1" stop-color="white" stop-opacity="0.52"/>
</linearGradient>
<radialGradient id="paint1_radial" cx="0" cy="0" r="1" gradientUnits="userSpaceOnUse" gradientTransform="translate(153.953 239.493) scale(162.887)">
<stop offset="0.1" stop-color="#3F62A3"/>
<stop offset="0.24" stop-color="#4365A5"/>
<stop offset="0.38" stop-color="#4F70AA"/>
<stop offset="0.52" stop-color="#6381B4"/>
<stop offset="0.65" stop-color="#7E99C1"/>
<stop offset="0.79" stop-color="#A2B8D2"/>
<stop offset="0.92" stop-color="#CDDDE6"/>
<stop offset="1" stop-color="#EAF6F4"/>
</radialGradient>
<radialGradient id="paint2_radial" cx="0" cy="0" r="1" gradientUnits="userSpaceOnUse" gradientTransform="translate(199149 108960) scale(45812.5 43529.5)">
<stop offset="0.15" stop-color="#292B68" stop-opacity="0"/>
<stop offset="0.26" stop-color="#2C3270" stop-opacity="0.87"/>
<stop offset="0.46" stop-color="#334583" stop-opacity="0.54"/>
<stop offset="0.74" stop-color="#3F62A3" stop-opacity="0"/>
</radialGradient>
<radialGradient id="paint3_radial" cx="0" cy="0" r="1" gradientUnits="userSpaceOnUse" gradientTransform="translate(103742 89871.9) scale(21935.6 29587)">
<stop offset="0.15" stop-color="#292B68"/>
<stop offset="0.26" stop-color="#2C3270" stop-opacity="0.87"/>
<stop offset="0.46" stop-color="#334583" stop-opacity="0.54"/>
<stop offset="0.74" stop-color="#3F62A3" stop-opacity="0"/>
</radialGradient>
<radialGradient id="paint4_radial" cx="0" cy="0" r="1" gradientUnits="userSpaceOnUse" gradientTransform="translate(73406 90479.3) scale(11531 19521.3)">
<stop offset="0.15" stop-color="#292B68"/>
<stop offset="0.26" stop-color="#2C3270" stop-opacity="0.87"/>
<stop offset="0.46" stop-color="#334583" stop-opacity="0.54"/>
<stop offset="0.74" stop-color="#3F62A3" stop-opacity="0"/>
</radialGradient>
<radialGradient id="paint5_radial" cx="0" cy="0" r="1" gradientUnits="userSpaceOnUse" gradientTransform="translate(171.455 100.792) scale(18.8174)">
<stop offset="0.04" stop-color="#CCECFA"/>
<stop offset="1" stop-color="#CCECFA"/>
</radialGradient>
<radialGradient id="paint6_radial" cx="0" cy="0" r="1" gradientUnits="userSpaceOnUse" gradientTransform="translate(200.549 90.1048) scale(58.7951)">
<stop offset="0.1" stop-color="#F8AEA4"/>
<stop offset="0.27" stop-color="#F8AEA4" stop-opacity="0.71"/>
<stop offset="0.44" stop-color="#F8AEA4" stop-opacity="0.46"/>
<stop offset="0.6" stop-color="#F8AEA4" stop-opacity="0.26"/>
<stop offset="0.73" stop-color="#F8AEA4" stop-opacity="0.12"/>
<stop offset="0.84" stop-color="#F8AEA4" stop-opacity="0.03"/>
<stop offset="0.91" stop-color="#F8AEA4" stop-opacity="0"/>
</radialGradient>
<radialGradient id="paint7_radial" cx="0" cy="0" r="1" gradientUnits="userSpaceOnUse" gradientTransform="translate(124.4 218.115) scale(60.5708)">
<stop stop-color="#37B4A8"/>
<stop offset="0.21" stop-color="#38B4A8" stop-opacity="0.99"/>
<stop offset="0.34" stop-color="#3BB5A9" stop-opacity="0.94"/>
<stop offset="0.45" stop-color="#41B7AA" stop-opacity="0.86"/>
<stop offset="0.55" stop-color="#48BAAB" stop-opacity="0.75"/>
<stop offset="0.63" stop-color="#52BDAD" stop-opacity="0.6"/>
<stop offset="0.72" stop-color="#5FC1B0" stop-opacity="0.42"/>
<stop offset="0.79" stop-color="#6DC5B2" stop-opacity="0.21"/>
<stop offset="0.85" stop-color="#7BCAB5" stop-opacity="0"/>
</radialGradient>
<radialGradient id="paint8_radial" cx="0" cy="0" r="1" gradientUnits="userSpaceOnUse" gradientTransform="translate(75482.6 52894.4) scale(13910.2 20659.3)">
<stop stop-color="#37B4A8"/>
<stop offset="0.21" stop-color="#38B4A8" stop-opacity="0.99"/>
<stop offset="0.34" stop-color="#3BB5A9" stop-opacity="0.94"/>
<stop offset="0.45" stop-color="#41B7AA" stop-opacity="0.86"/>
<stop offset="0.55" stop-color="#48BAAB" stop-opacity="0.75"/>
<stop offset="0.63" stop-color="#52BDAD" stop-opacity="0.6"/>
<stop offset="0.72" stop-color="#5FC1B0" stop-opacity="0.42"/>
<stop offset="0.79" stop-color="#6DC5B2" stop-opacity="0.21"/>
<stop offset="0.85" stop-color="#7BCAB5" stop-opacity="0"/>
</radialGradient>
<radialGradient id="paint9_radial" cx="0" cy="0" r="1" gradientUnits="userSpaceOnUse" gradientTransform="translate(83141.6 57424.4) scale(17384 18420.3)">
<stop stop-color="#37B4A8"/>
<stop offset="0.21" stop-color="#38B4A8" stop-opacity="0.99"/>
<stop offset="0.34" stop-color="#3BB5A9" stop-opacity="0.94"/>
<stop offset="0.45" stop-color="#41B7AA" stop-opacity="0.86"/>
<stop offset="0.55" stop-color="#48BAAB" stop-opacity="0.75"/>
<stop offset="0.63" stop-color="#52BDAD" stop-opacity="0.6"/>
<stop offset="0.72" stop-color="#5FC1B0" stop-opacity="0.42"/>
<stop offset="0.79" stop-color="#6DC5B2" stop-opacity="0.21"/>
<stop offset="0.85" stop-color="#7BCAB5" stop-opacity="0"/>
</radialGradient>
<radialGradient id="paint10_radial" cx="0" cy="0" r="1" gradientUnits="userSpaceOnUse" gradientTransform="translate(196.377 53.6744) scale(64.7223)">
<stop stop-color="#C87680" stop-opacity="0.91"/>
<stop offset="0.17" stop-color="#CF7A81" stop-opacity="0.76"/>
<stop offset="0.54" stop-color="#E28584" stop-opacity="0.38"/>
<stop offset="0.88" stop-color="#F58F87" stop-opacity="0"/>
</radialGradient>
<radialGradient id="paint11_radial" cx="0" cy="0" r="1" gradientUnits="userSpaceOnUse" gradientTransform="translate(151.849 91.4942) scale(15.9565)">
<stop offset="0.04" stop-color="#CCECFA"/>
<stop offset="1" stop-color="#CCECFA" stop-opacity="0"/>
</radialGradient>
<radialGradient id="paint12_radial" cx="0" cy="0" r="1" gradientUnits="userSpaceOnUse" gradientTransform="translate(42306.6 20341.9) scale(1523.95 1971.62)">
<stop offset="0.04" stop-color="#CCECFA"/>
<stop offset="1" stop-color="#CCECFA" stop-opacity="0"/>
</radialGradient>
<radialGradient id="paint13_radial" cx="0" cy="0" r="1" gradientUnits="userSpaceOnUse" gradientTransform="translate(203422 70044.2) scale(31022.1 18308.6)">
<stop offset="0.1" stop-color="#F8AEA4"/>
<stop offset="0.27" stop-color="#F8AEA4" stop-opacity="0.71"/>
<stop offset="0.44" stop-color="#F8AEA4" stop-opacity="0.46"/>
<stop offset="0.6" stop-color="#F8AEA4" stop-opacity="0.26"/>
<stop offset="0.73" stop-color="#F8AEA4" stop-opacity="0.12"/>
<stop offset="0.84" stop-color="#F8AEA4" stop-opacity="0.03"/>
<stop offset="0.91" stop-color="#F8AEA4" stop-opacity="0"/>
</radialGradient>
<radialGradient id="paint14_radial" cx="0" cy="0" r="1" gradientUnits="userSpaceOnUse" gradientTransform="translate(249412 30120) scale(35555.3 9560.09)">
<stop offset="0.1" stop-color="#F8AEA4"/>
<stop offset="0.27" stop-color="#F8AEA4" stop-opacity="0.71"/>
<stop offset="0.44" stop-color="#F8AEA4" stop-opacity="0.46"/>
<stop offset="0.6" stop-color="#F8AEA4" stop-opacity="0.26"/>
<stop offset="0.73" stop-color="#F8AEA4" stop-opacity="0.12"/>
<stop offset="0.84" stop-color="#F8AEA4" stop-opacity="0.03"/>
<stop offset="0.91" stop-color="#F8AEA4" stop-opacity="0"/>
</radialGradient>
<radialGradient id="paint15_radial" cx="0" cy="0" r="1" gradientUnits="userSpaceOnUse" gradientTransform="translate(60808 12369.2) scale(2679.46 1214.37)">
<stop offset="0.1" stop-color="#F8AEA4"/>
<stop offset="0.27" stop-color="#F8AEA4" stop-opacity="0.71"/>
<stop offset="0.44" stop-color="#F8AEA4" stop-opacity="0.46"/>
<stop offset="0.6" stop-color="#F8AEA4" stop-opacity="0.26"/>
<stop offset="0.73" stop-color="#F8AEA4" stop-opacity="0.12"/>
<stop offset="0.84" stop-color="#F8AEA4" stop-opacity="0.03"/>
<stop offset="0.91" stop-color="#F8AEA4" stop-opacity="0"/>
</radialGradient>
<radialGradient id="paint16_radial" cx="0" cy="0" r="1" gradientUnits="userSpaceOnUse" gradientTransform="translate(34337.3 85232) scale(11102.8 32990.6)">
<stop stop-color="#37B4A8"/>
<stop offset="0.21" stop-color="#38B4A8" stop-opacity="0.99"/>
<stop offset="0.34" stop-color="#3BB5A9" stop-opacity="0.94"/>
<stop offset="0.45" stop-color="#41B7AA" stop-opacity="0.86"/>
<stop offset="0.55" stop-color="#48BAAB" stop-opacity="0.75"/>
<stop offset="0.63" stop-color="#52BDAD" stop-opacity="0.6"/>
<stop offset="0.72" stop-color="#5FC1B0" stop-opacity="0.42"/>
<stop offset="0.79" stop-color="#6DC5B2" stop-opacity="0.21"/>
<stop offset="0.85" stop-color="#7BCAB5" stop-opacity="0"/>
</radialGradient>
<radialGradient id="paint17_radial" cx="0" cy="0" r="1" gradientUnits="userSpaceOnUse" gradientTransform="translate(28293.8 4180.74) scale(1493.18 1189.82)">
<stop offset="0.1" stop-color="#F8AEA4"/>
<stop offset="0.27" stop-color="#F8AEA4" stop-opacity="0.71"/>
<stop offset="0.44" stop-color="#F8AEA4" stop-opacity="0.46"/>
<stop offset="0.6" stop-color="#F8AEA4" stop-opacity="0.26"/>
<stop offset="0.73" stop-color="#F8AEA4" stop-opacity="0.12"/>
<stop offset="0.84" stop-color="#F8AEA4" stop-opacity="0.03"/>
<stop offset="0.91" stop-color="#F8AEA4" stop-opacity="0"/>
</radialGradient>
</defs>
</svg>
