<svg width="855" height="2524" viewBox="0 0 855 2524" fill="none" xmlns="http://www.w3.org/2000/svg">
<path fill-rule="evenodd" clip-rule="evenodd" d="M-407.188 2374.21C-861.241 2393.32 -1351.32 2148.18 -1441.54 1702.77C-1536.02 1236.37 -1176.84 842.56 -766.127 602.199C-286.576 321.55 397.39 -12.8707 731.841 430.837C1043.67 844.534 279.135 1194.44 17.1751 1641.38C-140.629 1910.62 -95.3868 2361.09 -407.188 2374.21Z" fill="url(#paint0_linear)" fill-opacity="0.49"/>
<path d="M385.434 846.973V961.594C385.434 978.948 389.874 996.014 398.332 1011.17C406.789 1026.32 418.983 1039.06 433.754 1048.17L476.034 1074.25" stroke="#6562CF" stroke-width="6" stroke-miterlimit="10" stroke-linecap="round"/>
<path d="M362.508 846.973V961.594C362.508 978.947 358.069 996.013 349.613 1011.17C341.156 1026.32 328.964 1039.06 314.195 1048.17L271.908 1074.25" stroke="#6562CF" stroke-width="6" stroke-miterlimit="10" stroke-linecap="round"/>
<path d="M385.673 846.967H360.152C354.519 846.967 349.117 844.729 345.134 840.746C341.15 836.762 338.913 831.36 338.913 825.727H406.932C406.932 828.518 406.382 831.281 405.314 833.86C404.245 836.438 402.679 838.78 400.704 840.753C398.73 842.725 396.386 844.289 393.807 845.355C391.228 846.422 388.464 846.969 385.673 846.967Z" fill="white" stroke="#6562CF" stroke-width="5" stroke-miterlimit="10"/>
<path d="M413.404 789.022H433.979L441.997 744.333H421.422L413.404 789.022Z" fill="white" stroke="#6562CF" stroke-width="5" stroke-miterlimit="10"/>
<path d="M254.83 797.213V814.529C254.83 816.819 261.103 818.963 272.008 820.789C292.955 824.3 330.988 826.649 374.436 826.649C440.484 826.649 494.034 821.22 494.034 814.529V797.213C494.034 800.598 480.282 803.671 458.12 805.841C436.548 808.032 407.012 809.359 374.456 809.359C341.899 809.359 312.337 808.032 290.765 805.894C283.57 805.177 277.265 804.374 272.028 803.498C261.103 801.646 254.83 799.503 254.83 797.213Z" fill="#D1D1FF" stroke="#6562CF" stroke-width="5" stroke-miterlimit="10"/>
<path d="M254.83 797.213C254.83 799.503 261.103 801.647 272.008 803.472C277.245 804.348 283.55 805.151 290.745 805.868C312.317 808.032 341.853 809.359 374.456 809.359C407.058 809.359 436.568 808.032 458.139 805.894C480.302 803.698 494.054 800.624 494.054 797.266C494.054 790.569 440.504 785.133 374.456 785.133C321.941 785.133 277.331 788.564 261.249 793.343C257.081 794.518 254.83 795.839 254.83 797.213Z" fill="white" stroke="#6562CF" stroke-width="5" stroke-miterlimit="10"/>
<path d="M423.645 745.8H447.221C468.069 745.8 490.284 719.098 496.842 686.15L511.803 610.975C518.36 578.027 506.778 551.325 485.917 551.325H462.354C441.513 551.325 419.298 578.027 412.74 610.975L397.773 686.15C391.215 719.091 402.797 745.8 423.645 745.8Z" fill="#D1D1FF" stroke="#6562CF" stroke-width="5" stroke-miterlimit="10"/>
<path d="M409.707 745.8H433.283C454.131 745.8 476.346 719.098 482.903 686.15L497.864 610.975C504.422 578.027 492.84 551.325 471.978 551.325H448.416C427.574 551.325 405.359 578.027 398.801 610.975L383.834 686.15C377.277 719.091 388.859 745.8 409.707 745.8Z" fill="white" stroke="#6562CF" stroke-width="5" stroke-miterlimit="10"/>
<path d="M477.925 1105.83C488.384 1105.83 496.862 1097.35 496.862 1086.89C496.862 1076.44 488.384 1067.96 477.925 1067.96C467.467 1067.96 458.989 1076.44 458.989 1086.89C458.989 1097.35 467.467 1105.83 477.925 1105.83Z" fill="#D1D1FF" stroke="#6562CF" stroke-width="5" stroke-miterlimit="10"/>
<path d="M271.504 1105.83C281.962 1105.83 290.44 1097.35 290.44 1086.89C290.44 1076.44 281.962 1067.96 271.504 1067.96C261.045 1067.96 252.567 1076.44 252.567 1086.89C252.567 1097.35 261.045 1105.83 271.504 1105.83Z" fill="#D1D1FF" stroke="#6562CF" stroke-width="5" stroke-miterlimit="10"/>
<path d="M346.134 1016.98C346.134 1016.98 370.646 998.989 401.841 1016.98" stroke="#6562CF" stroke-width="5" stroke-miterlimit="10"/>
<path d="M436.847 742.143C402.996 790.111 267.408 760.774 267.408 760.774C266.512 742.136 267.873 693.232 234.799 665.342L311.268 667.333C371.668 672.981 416.404 660.908 430.322 654.682C442.269 672.059 460.741 708.272 436.847 742.143Z" fill="#6562CF"/>
<path d="M214.688 668.295C214.688 668.295 121.101 673.997 113.09 693.975C88.0535 756.26 185.145 952.48 191.264 1000.71C196.388 1041.29 162.85 1063 162.85 1063C162.85 1063 177.943 1073.37 199.123 1067.65C203.656 1066.42 207.858 1060.72 216.32 1053.85C222.613 1048.75 238.111 1039.56 237.845 1031.81C237.407 1019.04 218.796 1009.18 219.321 1001.21C219.845 993.24 235.323 886.744 229.94 840.953C223.967 789.845 185.47 761.915 185.47 761.915L267.707 760.92C267.707 760.92 254.837 693.796 214.688 668.295Z" fill="#B65A18"/>
<path d="M269.001 760.82C269.001 760.82 276.05 696.212 233.159 664.054C229.768 661.512 220.303 664.618 214.86 665.693C212.869 666.092 212.345 668.348 213.533 670.028C241.96 710.894 242.538 745.939 240.58 766.648L269.001 760.82Z" fill="#8382D8"/>
<path d="M236.73 1021.75C239.003 1024.7 240.122 1028.37 239.878 1032.08C239.633 1035.8 238.042 1039.29 235.403 1041.91L205.767 1071.18C205.767 1071.18 152.754 1072.17 149.641 1071.18C146.529 1070.19 149.336 1061.33 157.965 1058.74C166.593 1056.16 178.388 1041.81 178.388 1041.81C178.388 1041.81 187.806 1031.71 203.172 1062.97L213.453 1053.94C213.453 1053.94 211.024 1027.3 215.039 1013.49H191.264C190.72 1013.5 190.18 1013.39 189.676 1013.19C189.172 1012.98 188.713 1012.68 188.326 1012.3C187.939 1011.91 187.632 1011.46 187.422 1010.95C187.212 1010.45 187.104 1009.91 187.103 1009.37C187.13 1008.33 187.562 1007.35 188.306 1006.62C189.05 1005.9 190.047 1005.49 191.085 1005.49H220.568C221.04 1005.49 221.507 1005.59 221.938 1005.78C222.369 1005.98 222.755 1006.26 223.071 1006.61L236.73 1021.75Z" fill="#333B63"/>
<path d="M456.759 762.718C442.376 804.321 324.085 798.832 303.92 797.365C303.924 797.336 303.924 797.307 303.92 797.279C303.024 778.641 297.568 719.834 264.494 691.944L308.394 681.324L313.319 667.525C372.332 672.682 416.012 660.994 430.063 654.808C439.754 667.698 472.781 716.349 456.759 762.718Z" fill="#8382D8"/>
<path d="M235.263 698.163C235.263 698.163 138.126 716.881 133.937 745.289C129.749 773.696 191.264 993.546 184.627 1033.9C177.99 1074.26 134.309 1102.16 134.309 1102.16C134.309 1102.16 170.456 1109.06 189.831 1102.16C194.251 1100.58 202.276 1089.95 209.683 1085.71C216.719 1081.69 231.473 1074.74 231.208 1066.99C230.77 1054.22 212.159 1043.7 212.683 1035.73C213.207 1027.75 242.624 913.293 237.241 867.502C231.268 816.395 212.683 795.102 212.683 795.102L267.043 794.106C267.043 794.106 277.225 736.434 235.263 698.163Z" fill="#C36F0B"/>
<path d="M271.616 800.418L298.398 803.073C299.146 803.074 299.887 802.923 300.575 802.628C301.263 802.334 301.884 801.903 302.4 801.36C302.916 800.818 303.316 800.177 303.577 799.475C303.837 798.774 303.951 798.026 303.914 797.279C303.011 778.515 297.489 719.018 263.797 691.36C262.426 690.24 260.811 689.457 259.082 689.074C257.352 688.691 255.558 688.719 253.841 689.156L231.274 694.964C231.274 694.964 276.886 726.12 266.167 794C266.039 794.79 266.085 795.598 266.3 796.369C266.514 797.14 266.894 797.855 267.412 798.465C267.93 799.076 268.574 799.566 269.3 799.903C270.026 800.24 270.816 800.416 271.616 800.418Z" fill="#E5E6FF"/>
<path d="M229.363 1055.24C231.687 1058.24 232.832 1062 232.58 1065.79C232.328 1069.58 230.697 1073.15 227.996 1075.82L197.762 1105.68C197.762 1105.68 136.911 1106.69 133.732 1105.68C130.552 1104.68 133.42 1095.64 142.228 1093C151.035 1090.36 163.062 1075.74 163.062 1075.74C163.062 1075.74 179.443 1065.44 195.114 1097.33L205.608 1088.11C205.608 1088.11 203.125 1060.9 207.221 1046.85H182.954C182.399 1046.86 181.848 1046.75 181.333 1046.54C180.819 1046.33 180.35 1046.02 179.955 1045.63C179.561 1045.24 179.247 1044.78 179.033 1044.27C178.818 1043.75 178.707 1043.2 178.707 1042.65C178.732 1041.58 179.173 1040.57 179.934 1039.83C180.696 1039.09 181.717 1038.67 182.782 1038.67H212.856C213.337 1038.67 213.814 1038.77 214.254 1038.96C214.695 1039.16 215.089 1039.44 215.411 1039.8L229.363 1055.24Z" fill="#3F4D79"/>
<path d="M377.276 406.816C386.443 411.642 408.18 422.627 421.806 446.043C435.433 469.46 405.565 554.63 405.963 580.038C406.361 605.446 430.448 649.452 434.643 651.443C438.838 653.434 385.394 675.337 306.542 666.888C306.542 666.888 312.781 631.352 308.228 615.906C303.675 600.461 282.581 555.659 282.581 555.659C282.581 555.659 258.614 537.433 263.724 522.977C267.129 513.346 303.037 453.869 303.037 453.869L377.276 406.816Z" fill="#FFB000"/>
<path d="M456.945 533.908C456.945 533.908 432.566 562.622 388.095 562.622C388.095 562.622 352.486 447.968 393.233 433.492C433.979 419.016 456.945 533.908 456.945 533.908Z" fill="#FFC033"/>
<path d="M459.805 609.349C457.728 628.531 301.717 654.417 301.717 654.417L301.67 654.324C298.836 655.777 288.442 660.596 281.44 657.032C273.269 652.857 266.048 651.058 261.05 652.153C254.877 653.481 247.848 658.246 244.33 657.191C240.066 655.952 236.079 653.903 232.589 651.158C236.019 647.196 239.648 643.41 243.461 639.814C239.949 640.916 234.932 643.797 232.336 644.666C228.175 646.1 226.595 642.064 226.595 642.064C226.595 642.064 236.591 635.016 239.312 633.436C244.065 630.741 254.751 628.126 257.684 628.126C262.815 628.259 290.307 631.73 303.914 634.193C326.262 622.517 383.071 593.227 405.12 585.74L397.62 561.553C397.62 561.553 429.267 558.467 451.509 538.323C451.509 538.382 461.949 589.51 459.805 609.349Z" fill="#C36F0B"/>
<path d="M237.062 652.465C237.062 652.465 252.076 639.489 255.375 639.191C261.189 638.633 268.782 637.863 268.782 637.863" stroke="#A55F2B" stroke-width="4" stroke-miterlimit="10" stroke-linecap="round"/>
<path d="M241.947 655.292C241.947 655.292 255.222 644.673 258.541 644.347C264.355 643.79 271.948 643.02 271.948 643.02" stroke="#A55F2B" stroke-width="4" stroke-miterlimit="10" stroke-linecap="round"/>
<path d="M455.033 557.611C445.243 563.359 427.535 570.998 399.81 568.728L397.613 561.633C397.613 561.633 429.267 558.553 451.502 538.402C451.502 538.382 453.175 546.52 455.033 557.611Z" fill="#B65A18"/>
<path d="M405.279 339.58C405.279 339.58 400.155 410.958 250.131 430.366C250.131 430.366 230.558 414.469 242.166 398.427C253.775 382.384 266.625 376.484 255.66 365.612C244.695 354.74 229.376 332.206 251.505 311.437C273.634 290.669 324.217 263.144 360.962 283.249C397.706 303.353 352.645 340.217 405.279 339.58Z" fill="#3F4D79"/>
<path d="M242.857 430.405C242.857 430.405 223.283 414.509 234.892 398.473C246.501 382.437 258.069 376.53 247.098 365.658C236.126 354.786 224.803 328.668 249.793 311.451C278.811 291.459 309.31 282.372 345.165 296.185" stroke="#3F4D79" stroke-width="4" stroke-miterlimit="10"/>
<path d="M338.614 344.551C338.614 344.551 344.714 387.495 377.164 406.81C377.164 406.81 355.924 449.375 301.75 456.258C301.75 456.258 317.215 428.109 317.175 419.142C317.135 410.175 310.073 384.236 310.073 384.236L338.614 344.551Z" fill="#C36F0B"/>
<path d="M340.286 360.561C340.831 380.599 326.799 396.27 314.958 404.533C312.887 394.63 310.073 384.236 310.073 384.236L338.614 344.551C339.06 347.326 339.652 350.075 340.386 352.788C340.247 355.151 340.207 357.753 340.286 360.561Z" fill="#B65A18"/>
<path d="M335.295 326.856C324.251 314.245 307.584 305.324 292.411 310.196C269.081 317.696 265.981 356.333 295.936 391.404C299.487 395.559 333.961 382.55 337.452 354.939C339.278 340.516 335.295 326.856 335.295 326.856Z" fill="#C36F0B"/>
<path d="M336.623 329.604L325.06 282.552C322.983 274.534 315.383 269.516 307.498 270.996L284.698 275.861C277.397 277.242 273.242 285.459 273.276 293.198" stroke="#FFB000" stroke-width="5" stroke-miterlimit="10" stroke-linecap="round"/>
<path d="M337.454 326.024L335.447 326.507C327.418 328.439 322.475 336.514 324.407 344.544L324.89 346.551C326.822 354.581 334.898 359.524 342.927 357.591L344.934 357.109C352.964 355.176 357.907 347.101 355.975 339.071L355.492 337.064C353.56 329.034 345.484 324.091 337.454 326.024Z" fill="white"/>
<path d="M346.818 355.271C352.127 371.2 370.997 407.201 346.818 448.505C322.638 489.81 291.847 520.693 315.43 564.367C335.899 602.28 334.545 660.529 279.588 660.529" stroke="white" stroke-width="5" stroke-miterlimit="10" stroke-linecap="round"/>
<path d="M122.528 656.421H112.32C110.04 656.422 107.809 655.759 105.9 654.511C103.991 653.264 102.488 651.487 101.574 649.398L35.6117 497.821C34.8348 496.038 34.5141 494.089 34.6786 492.151C34.843 490.213 35.4875 488.346 36.5538 486.72C37.6201 485.093 39.0746 483.757 40.7862 482.833C42.4978 481.909 44.4125 481.426 46.3576 481.427L122.528 656.421Z" fill="white" stroke="#6562CF" stroke-width="6" stroke-miterlimit="10"/>
<path d="M332.773 673.2H130.938C128.734 673.2 126.553 672.766 124.517 671.923C122.482 671.079 120.633 669.843 119.075 668.285C117.518 666.727 116.282 664.877 115.44 662.842C114.597 660.806 114.164 658.624 114.165 656.421H315.994C320.444 656.421 324.712 658.189 327.858 661.335C331.005 664.482 332.773 668.75 332.773 673.2Z" fill="white" stroke="#6562CF" stroke-width="6" stroke-miterlimit="10"/>
<defs>
<linearGradient id="paint0_linear" x1="-503.613" y1="2380.08" x2="226.158" y2="-419.625" gradientUnits="userSpaceOnUse">
<stop stop-color="#FCF089"/>
<stop offset="1" stop-color="#FF0000"/>
</linearGradient>
</defs>
</svg>
