<svg width="1498" height="1621" viewBox="0 0 1498 1621" fill="none" xmlns="http://www.w3.org/2000/svg">
<path fill-rule="evenodd" clip-rule="evenodd" d="M826.287 917.856C455.069 655.7 216.693 162.296 417.258 -245.507C627.276 -672.531 1152.2 -765.027 1624.21 -704.542C2175.34 -633.919 2921.18 -481.041 2915.05 74.5636C2909.34 592.59 2090.24 402.767 1609.86 596.712C1320.48 713.544 1081.21 1097.88 826.287 917.856Z" fill="url(#paint0_linear)"/>
<path d="M862.09 625.892H784.167C780.925 625.89 777.781 624.785 775.25 622.759C772.72 620.733 770.954 617.906 770.244 614.743L753.263 539.056C752.795 536.97 752.803 534.805 753.285 532.723C753.766 530.64 754.711 528.692 756.047 527.023C757.383 525.354 759.078 524.007 761.005 523.082C762.932 522.156 765.042 521.676 767.18 521.676" stroke="#6562CF" stroke-width="5" stroke-miterlimit="10" stroke-linecap="round"/>
<path d="M1005.82 625.892H927.894C924.652 625.89 921.508 624.785 918.977 622.759C916.447 620.733 914.681 617.906 913.971 614.743L896.99 539.056C896.522 536.97 896.53 534.805 897.012 532.723C897.494 530.64 898.438 528.692 899.774 527.023C901.11 525.354 902.805 524.007 904.732 523.082C906.659 522.156 908.77 521.676 910.908 521.676" stroke="#6562CF" stroke-width="5" stroke-miterlimit="10" stroke-linecap="round"/>
<path d="M920.53 548.379H788.29C783.477 548.379 778.806 546.75 775.036 543.758C771.267 540.765 768.621 536.585 767.53 531.898L748.474 450.056C747.853 447.389 747.842 444.616 748.443 441.944C749.044 439.272 750.24 436.77 751.944 434.625C753.647 432.48 755.812 430.748 758.278 429.557C760.745 428.366 763.448 427.748 766.187 427.748H898.433C903.245 427.748 907.915 429.377 911.684 432.37C915.452 435.362 918.097 439.542 919.187 444.23L938.243 526.087C938.86 528.754 938.868 531.525 938.265 534.194C937.663 536.864 936.465 539.363 934.763 541.505C933.06 543.648 930.896 545.379 928.432 546.569C925.968 547.759 923.267 548.378 920.53 548.379Z" fill="white" stroke="#6562CF" stroke-width="5" stroke-miterlimit="10" stroke-linecap="round"/>
<path d="M1009.81 607.013H797.724C792.511 607.013 788.284 611.239 788.284 616.452C788.284 621.665 792.511 625.891 797.724 625.891H1009.81C1015.03 625.891 1019.25 621.665 1019.25 616.452C1019.25 611.239 1015.03 607.013 1009.81 607.013Z" fill="#EAEEFF" stroke="#6562CF" stroke-width="5" stroke-miterlimit="10" stroke-linecap="round"/>
<path d="M772.513 840.495L798.845 644.26C799.35 633.966 807.463 625.892 817.302 625.892H862.806C872.645 625.892 880.758 633.966 881.269 644.26L907.6 840.495" stroke="#6562CF" stroke-width="5" stroke-miterlimit="10" stroke-linecap="round"/>
<path d="M939.747 625.892H983.931C993.481 625.892 1001.36 633.966 1001.86 644.26L1027.91 840.495" stroke="#6562CF" stroke-width="5" stroke-miterlimit="10" stroke-linecap="round"/>
<path d="M1148.25 431.439C1151.12 433.331 1157.77 447.426 1157.89 449.124C1158.01 450.822 1150.37 463.442 1150.37 463.442C1150.37 463.442 1147.34 463.508 1146.76 456.566C1146.05 448.347 1142.45 445.234 1137.22 444.063C1135.03 443.575 1131.02 445.24 1130.73 448.458C1130.45 451.677 1138.76 453.813 1140.43 455.767C1142.97 458.719 1141.54 462.881 1141.54 462.981C1141.54 462.981 1128.71 459.096 1126.25 458.375C1124.03 457.715 1114.12 448.703 1107.94 439.768C1105.64 441.453 1103.23 442.982 1100.72 444.346C1085.18 452.704 1031.91 472.143 1004.31 467.737C976.6 463.297 998.736 375.063 998.736 375.063C1038.87 376.917 1055.67 371.806 1058.74 370.724L1052.5 411.511C1069.37 411.012 1110.87 417.887 1110.89 417.893C1122.55 419.424 1144.12 428.725 1148.25 431.439Z" fill="#F1921B"/>
<path d="M998.542 375.024H998.781C1038.91 376.877 1055.72 371.766 1058.78 370.684L1057.31 380.673C1057.31 380.673 1027.54 394.69 994.425 393.436L998.542 375.024Z" fill="#EB7200"/>
<path d="M1002.57 486.554C1012.1 485.855 1029.38 374.913 1029.38 374.913C1050.66 375.224 1076.39 365.296 1076.39 365.296C1076.39 365.296 1058.8 307.627 1052.73 295.735C1046.67 283.843 1003.13 263.283 997.987 261.796L913.116 242.373C913.116 242.373 840.67 260.369 817.823 278.838C794.977 297.306 777.125 375.207 777.125 375.207C819.083 392.127 862.584 389.635 862.584 389.635L847.795 478.774C843.006 500.416 827.707 569.128 854.682 602.49C854.682 602.49 876.385 495.821 1002.57 486.554Z" fill="#EAEEFF"/>
<path d="M946.789 270.913L921.407 286.401L889.221 248.977L913.382 234.504C914.086 234.085 914.867 233.809 915.678 233.694C916.489 233.579 917.315 233.626 918.108 233.832C918.901 234.039 919.645 234.401 920.297 234.897C920.949 235.393 921.496 236.014 921.906 236.724L946.789 270.913Z" fill="#DBDAFF"/>
<path d="M985.39 274.464L1003.25 285.008L1002.39 263.577L997.987 261.795C997.987 261.795 990.141 267.056 985.39 274.464Z" fill="#DBDAFF"/>
<path d="M862.584 389.624C866.025 378.353 869.465 351.128 869.465 351.128" stroke="#C7BFFF" stroke-width="5" stroke-linejoin="round"/>
<path d="M921.407 286.401L946.312 271.856C946.312 271.856 970.207 300.286 970.873 305.258C971.539 310.23 972.793 360.934 972.793 360.934H985.39" stroke="#C7BFFF" stroke-width="5" stroke-linejoin="round"/>
<path d="M1002.78 284.986L985.862 275.408C985.862 275.408 970.518 299.681 970.879 305.258" stroke="#C7BFFF" stroke-width="5" stroke-linejoin="round"/>
<path d="M865.286 378.425C865.286 378.425 811.658 380.018 780.138 363.226" stroke="#C7BFFF" stroke-width="5" stroke-linejoin="round"/>
<path d="M1025.73 466.249C1025.73 468.796 999.574 467.87 995.89 467.87C992.205 467.87 969.125 468.746 963.704 467.87C934.231 470.295 802.774 479.851 787.485 458.602C769.788 433.997 785.598 378.337 785.598 378.337C825.304 392.127 862.584 389.619 862.584 389.619L859.327 410.756C890.841 414.641 947.711 434.618 967.044 441.616C971.19 440.289 986.972 435.512 994.963 437.332C1004.21 439.413 1015.31 447.737 1016.47 450.051C1017.62 452.365 1025.73 463.708 1025.73 466.249Z" fill="#F1921B"/>
<path d="M995.873 467.869C999.558 467.869 1025.72 468.796 1025.72 466.255C1025.72 463.713 1017.62 452.381 1016.47 450.067C1015.31 447.753 1004.21 439.429 994.963 437.348C994.963 437.348 1006.38 453.203 995.873 467.869Z" fill="#EB7200"/>
<path d="M785.576 378.354C785.576 378.354 826.214 392.649 862.584 389.624L859.327 410.756C859.327 410.756 810.792 402.987 783.856 385.407L785.576 378.354Z" fill="#EB7200"/>
<path d="M1137.16 842.492H1047.3C1047.21 841.122 1047.18 839.812 1047.2 838.552H1137.28C1137.37 839.866 1137.33 841.187 1137.16 842.492Z" fill="#3F4D79"/>
<path d="M1056.45 802.26C1056.78 812.06 1047.3 818.27 1047.3 838.525H1137.16C1137.16 838.525 1138.46 821.533 1120.51 817.615C1102.56 813.697 1086.2 808.464 1084.57 802.26H1056.45Z" fill="#FFB000"/>
<path d="M1085.18 820.567L1093.39 808.425" stroke="#3F4D79" stroke-width="5" stroke-miterlimit="10" stroke-linecap="round"/>
<path d="M1091.58 822.043L1099.3 810.889" stroke="#3F4D79" stroke-width="5" stroke-miterlimit="10" stroke-linecap="round"/>
<path d="M1099.95 822.537L1106.19 812.365" stroke="#3F4D79" stroke-width="5" stroke-miterlimit="10" stroke-linecap="round"/>
<path d="M959.819 494.406C959.819 494.406 1096.96 485.827 1130.29 525.038C1163.62 564.25 1098.93 704.093 1092.39 789.047C1092.39 789.047 1059.57 792.316 1046.25 789.047C1032.93 785.778 1021.33 640.536 1054.9 600.67C1054.9 600.67 927.267 630.031 877.495 593.001C827.723 555.97 939.115 495.105 959.819 494.406Z" fill="#3C4564"/>
<path d="M1084.56 802.26C1075.44 805.34 1065.57 805.34 1056.46 802.26L1053.8 790.14C1053.8 790.14 1071.26 791.023 1087.21 789.497L1084.56 802.26Z" fill="#F1921B"/>
<path d="M1340.22 706.423L1268.94 761.134C1267.93 759.902 1267.02 758.698 1266.2 757.521L1337.2 703.027C1338.33 704.04 1339.35 705.179 1340.22 706.423Z" fill="#3F4D79"/>
<path d="M1251.16 723.343C1257.39 730.923 1253.65 741.617 1265.99 757.688L1337.27 702.977C1337.27 702.977 1327.95 688.704 1311.31 696.534C1294.67 704.364 1278.53 710.169 1273.45 706.235L1251.16 723.343Z" fill="#FFB000"/>
<path d="M1285.29 719.508L1284.4 705.363" stroke="#3F4D79" stroke-width="5" stroke-miterlimit="10" stroke-linecap="round"/>
<path d="M1290.7 716.063L1289.82 703.394" stroke="#3F4D79" stroke-width="5" stroke-miterlimit="10" stroke-linecap="round"/>
<path d="M1296.12 712.616L1295.24 701.423" stroke="#3F4D79" stroke-width="5" stroke-miterlimit="10" stroke-linecap="round"/>
<path d="M854.682 596.941C856.735 608.006 973.437 634.82 1097.62 556.431C1097.62 556.431 1105.78 650.991 1231.26 719.581C1231.26 719.581 1258.56 709.725 1270.83 688.066C1270.83 688.066 1188.98 592.346 1157.46 504.445C1144.23 467.536 977.727 486.859 953.382 494.406C929.037 501.953 845.531 547.624 854.682 596.941Z" fill="#3F4D79"/>
<path d="M1273.45 706.235C1273.45 706.235 1268.07 722.794 1251.16 723.344L1240.14 715.53C1250.11 710.436 1258.97 703.427 1266.22 694.903L1273.45 706.235Z" fill="#F1921B"/>
<path d="M961.917 211.869C961.917 211.869 956.728 225.509 923.072 238.505C923.072 238.505 946.756 270.924 970.846 301.385C970.846 301.385 980.501 273.399 997.954 261.807L961.917 211.869Z" fill="#F1921B"/>
<path d="M997.987 261.796C992.843 265.309 988.509 270.053 984.924 275.114C973.826 266.79 961.345 252.179 957.649 241.58C955.824 236.336 960.657 222.157 963.459 213.966L997.987 261.796Z" fill="#EB7200"/>
<path d="M961.24 214.532C961.24 218.971 957.383 232.639 962.05 238.122C970.585 248.15 995.035 264.204 1007.06 263.532C1015.63 263.072 1027.76 225.902 1029.57 220.347C1031.38 214.793 1039.2 192.518 1033.65 186.563C1028.1 180.609 981.711 167.579 972.494 186.769C962.277 208.039 961.24 214.532 961.24 214.532Z" fill="#F1921B"/>
<path d="M1052.73 173.645C1048.18 203.45 1028.76 207.346 990.523 184.96C973.004 174.71 985.39 193.068 975.54 209.005L972.322 210.204C972.427 208.6 972.655 201.974 969.358 201.958C964.503 201.958 963.01 209.305 962.544 213.839L960.679 214.532C960.679 214.532 960.479 181.309 965.191 170.748C976.844 144.605 1010.53 158.728 1018.79 163.173C1044.86 177.185 1052.73 173.645 1052.73 173.645Z" fill="#FFB000"/>
<path d="M989.663 182.679C1016.85 204.144 1038.22 209.233 1048.83 196.614" stroke="#FFB000" stroke-width="4" stroke-miterlimit="10"/>
<path d="M966.983 192.443L966.93 192.427C960.421 190.576 953.643 194.351 951.792 200.86L950.283 206.165C948.431 212.674 952.206 219.452 958.715 221.303L958.769 221.319C965.277 223.17 972.055 219.395 973.906 212.886L975.416 207.581C977.267 201.072 973.492 194.294 966.983 192.443Z" fill="white" stroke="#3F4D79" stroke-width="5" stroke-miterlimit="10" stroke-linecap="round"/>
<path d="M975.867 205.986L973.437 214.532C972.668 217.229 970.861 219.51 968.411 220.874C965.962 222.238 963.071 222.574 960.374 221.807L957.088 220.869C956.944 220.831 956.805 220.786 956.661 220.736C959.313 221.379 962.111 220.968 964.466 219.591C966.821 218.213 968.551 215.976 969.291 213.35L971.722 204.804C972.474 202.183 972.18 199.372 970.903 196.962C969.627 194.552 967.465 192.73 964.874 191.88L965.307 191.991L968.576 192.912C969.916 193.287 971.169 193.923 972.262 194.785C973.355 195.646 974.267 196.715 974.944 197.93C975.622 199.146 976.053 200.483 976.211 201.866C976.37 203.249 976.253 204.649 975.867 205.986Z" fill="white" stroke="#3F4D79" stroke-width="5" stroke-miterlimit="10" stroke-linecap="round"/>
<path d="M965.307 191.974L975.296 156.903C975.736 155.355 976.477 153.909 977.476 152.647C978.474 151.385 979.712 150.333 981.118 149.549C982.524 148.766 984.07 148.267 985.669 148.082C987.267 147.896 988.887 148.027 990.434 148.468L1025.95 158.567C1030.35 159.816 1032.34 163.284 1031.09 167.685" stroke="#3F4D79" stroke-width="5" stroke-miterlimit="10" stroke-linecap="round"/>
<path d="M1131.24 469.268H975.529C968.42 469.268 963.914 462.16 967.344 456.355L1020.06 367.194C1024.65 359.425 1033.38 354.62 1042.9 354.62H1198.62C1205.73 354.62 1210.23 361.728 1206.8 367.533L1154.08 456.694C1149.48 464.452 1140.74 469.268 1131.24 469.268Z" fill="#EAEEFF"/>
<path d="M1129.71 472.132H980.396C973.432 472.132 969.02 465.168 972.383 459.48L1024.03 372.128C1028.53 364.526 1037.1 359.809 1046.41 359.809H1195.73C1202.69 359.809 1207.1 366.773 1203.74 372.461L1152.09 459.807C1147.6 467.41 1139.02 472.132 1129.71 472.132Z" fill="#C0C1FF"/>
<path d="M1131.24 469.268H975.529C968.42 469.268 963.914 462.16 967.344 456.355L1020.06 367.194C1024.65 359.425 1033.38 354.62 1042.9 354.62H1198.62C1205.73 354.62 1210.23 361.728 1206.8 367.533L1154.08 456.694C1149.48 464.452 1140.74 469.268 1131.24 469.268Z" stroke="#6562CF" stroke-width="5" stroke-miterlimit="10"/>
<path d="M1133.34 469.385H849.005C846.007 469.385 843.578 471.815 843.578 474.812V476.011C843.578 479.008 846.007 481.438 849.005 481.438H1133.34C1136.33 481.438 1138.76 479.008 1138.76 476.011V474.812C1138.76 471.815 1136.33 469.385 1133.34 469.385Z" fill="#D1D1FF" stroke="#6562CF" stroke-width="6" stroke-miterlimit="10"/>
<defs>
<linearGradient id="paint0_linear" x1="746.348" y1="863.617" x2="3033.99" y2="-907.706" gradientUnits="userSpaceOnUse">
<stop stop-color="#FCF089"/>
<stop offset="0.89375" stop-color="#B40000"/>
</linearGradient>
</defs>
</svg>
